solid OpenSCAD_Model
  facet normal 1 0 0
    outer loop
      vertex 59.5 -4.5 12
      vertex 59.5 -6.5 12
      vertex 59.5 -4.5 2
    endloop
  endfacet
  facet normal 1 0 0
    outer loop
      vertex 59.5 4.5 2
      vertex 59.5 6.5 12
      vertex 59.5 4.5 12
    endloop
  endfacet
  facet normal 1 0 0
    outer loop
      vertex 59.5 6.5 12
      vertex 59.5 4.5 2
      vertex 59.5 6.5 0
    endloop
  endfacet
  facet normal 1 -0 0
    outer loop
      vertex 59.5 -4.5 2
      vertex 59.5 6.5 0
      vertex 59.5 4.5 2
    endloop
  endfacet
  facet normal 1 0 0
    outer loop
      vertex 59.5 -4.5 2
      vertex 59.5 -6.5 0
      vertex 59.5 6.5 0
    endloop
  endfacet
  facet normal 1 0 0
    outer loop
      vertex 59.5 -6.5 0
      vertex 59.5 -4.5 2
      vertex 59.5 -6.5 12
    endloop
  endfacet
  facet normal 0 0 1
    outer loop
      vertex -4.5 4.5 2
      vertex 4.5 4.5 2
      vertex 4.5 59.5 2
    endloop
  endfacet
  facet normal 0 0 1
    outer loop
      vertex 4.5 4.5 2
      vertex 3.38956 -2.56155 2
      vertex 3.50075 -3.83643 2
    endloop
  endfacet
  facet normal 0 0 1
    outer loop
      vertex 3.50075 -3.83643 2
      vertex 3.38956 -2.56155 2
      vertex 3.4599 -3.57535 2
    endloop
  endfacet
  facet normal 0 -0 1
    outer loop
      vertex 0.534531 -2.53307 2
      vertex 4.5 4.5 2
      vertex -4.5 4.5 2
    endloop
  endfacet
  facet normal 0 0 1
    outer loop
      vertex 4.5 4.5 2
      vertex 2.2408 -2.56155 2
      vertex 3.38956 -2.56155 2
    endloop
  endfacet
  facet normal 0 0 1
    outer loop
      vertex 4.5 4.5 2
      vertex 0.807831 -2.56833 2
      vertex 2.2408 -2.56155 2
    endloop
  endfacet
  facet normal 0 -0 1
    outer loop
      vertex 1.17468 -3.07014 2
      vertex 2.2408 -2.56155 2
      vertex 1.13333 -2.84366 2
    endloop
  endfacet
  facet normal -0 0 1
    outer loop
      vertex 1.16147 -3.19797 2
      vertex 2.17435 -3.63705 2
      vertex 1.17468 -3.07014 2
    endloop
  endfacet
  facet normal 0 0 1
    outer loop
      vertex 1.46814 -4.05885 2
      vertex 1.20453 -4.15921 2
      vertex 1.46814 -4.4725 2
    endloop
  endfacet
  facet normal -0 0 1
    outer loop
      vertex 1.1218 -3.31291 2
      vertex 2.17435 -3.63705 2
      vertex 1.16147 -3.19797 2
    endloop
  endfacet
  facet normal 0 -0 1
    outer loop
      vertex 1.46814 -4.05885 2
      vertex 2.17435 -3.63705 2
      vertex 1.1218 -3.31291 2
    endloop
  endfacet
  facet normal 0 0 1
    outer loop
      vertex 2.17435 -3.63705 2
      vertex 1.86011 -4.05885 2
      vertex 2.11873 -3.9951 2
    endloop
  endfacet
  facet normal 0 0 1
    outer loop
      vertex 2.2408 -2.56155 2
      vertex 1.17468 -3.07014 2
      vertex 2.17435 -3.63705 2
    endloop
  endfacet
  facet normal 0 -0 1
    outer loop
      vertex 1.13333 -2.84366 2
      vertex 2.2408 -2.56155 2
      vertex 1.00923 -2.67413 2
    endloop
  endfacet
  facet normal 0 0 1
    outer loop
      vertex 2.2408 -2.56155 2
      vertex 0.807831 -2.56833 2
      vertex 1.00923 -2.67413 2
    endloop
  endfacet
  facet normal 0 0 1
    outer loop
      vertex 4.5 4.5 2
      vertex 0.534531 -2.53307 2
      vertex 0.807831 -2.56833 2
    endloop
  endfacet
  facet normal 0 0 1
    outer loop
      vertex 0.534531 -2.53307 2
      vertex -4.5 4.5 2
      vertex 0.278381 -2.56799 2
    endloop
  endfacet
  facet normal -0 -0 1
    outer loop
      vertex -1.46196 -2.56155 2
      vertex 0.278381 -2.56799 2
      vertex -4.5 4.5 2
    endloop
  endfacet
  facet normal 0 0 1
    outer loop
      vertex 0.278381 -2.56799 2
      vertex -1.46196 -2.56155 2
      vertex 0.0822296 -2.67276 2
    endloop
  endfacet
  facet normal 0 0 1
    outer loop
      vertex -0.402222 -4.4725 2
      vertex -0.132736 -4.20805 2
      vertex -0.402222 -4.05885 2
    endloop
  endfacet
  facet normal 0 0 1
    outer loop
      vertex -0.0423737 -4.04597 2
      vertex -0.402222 -4.05885 2
      vertex -0.132736 -4.20805 2
    endloop
  endfacet
  facet normal 0 0 1
    outer loop
      vertex 0.0822296 -2.67276 2
      vertex -1.46196 -2.56155 2
      vertex -0.0505219 -2.84399 2
    endloop
  endfacet
  facet normal 0 0 1
    outer loop
      vertex -0.0505219 -2.84399 2
      vertex -1.46196 -2.56155 2
      vertex -0.11647 -3.07829 2
    endloop
  endfacet
  facet normal 0 0 1
    outer loop
      vertex -0.794189 -4.05885 2
      vertex -1.0239 -4.18904 2
      vertex -0.794189 -4.4725 2
    endloop
  endfacet
  facet normal 0 0 1
    outer loop
      vertex -0.11647 -3.07829 2
      vertex -0.794189 -4.05885 2
      vertex -0.402222 -4.05885 2
    endloop
  endfacet
  facet normal 0 0 1
    outer loop
      vertex -1.46196 -4.18904 2
      vertex -0.794189 -4.05885 2
      vertex -1.46196 -2.56155 2
    endloop
  endfacet
  facet normal 0 -0 1
    outer loop
      vertex -0.794189 -4.05885 2
      vertex -0.11647 -3.07829 2
      vertex -1.46196 -2.56155 2
    endloop
  endfacet
  facet normal 0 0 1
    outer loop
      vertex -1.46196 -2.56155 2
      vertex -4.5 4.5 2
      vertex -1.82271 -2.56155 2
    endloop
  endfacet
  facet normal -0 0 1
    outer loop
      vertex -2.46745 -3.00505 2
      vertex -2.30147 -3.17188 2
      vertex -2.30147 -2.87213 2
    endloop
  endfacet
  facet normal 0 0 1
    outer loop
      vertex -2.30147 -3.17188 2
      vertex -3.00859 -4.4725 2
      vertex -2.31639 -4.18904 2
    endloop
  endfacet
  facet normal 0 0 1
    outer loop
      vertex -3.00859 -4.4725 2
      vertex -2.30147 -3.17188 2
      vertex -2.46745 -3.00505 2
    endloop
  endfacet
  facet normal 0 -0 1
    outer loop
      vertex -3.58635 -3.00505 2
      vertex -1.82271 -2.56155 2
      vertex -4.5 4.5 2
    endloop
  endfacet
  facet normal 0 -0 1
    outer loop
      vertex -2.86618 -3.00505 2
      vertex -1.82271 -2.56155 2
      vertex -3.58635 -3.00505 2
    endloop
  endfacet
  facet normal 0 0 1
    outer loop
      vertex -2.30147 -2.87213 2
      vertex -2.86618 -3.00505 2
      vertex -2.46745 -3.00505 2
    endloop
  endfacet
  facet normal 0 0 1
    outer loop
      vertex -1.82271 -2.56155 2
      vertex -2.86618 -3.00505 2
      vertex -2.30147 -2.87213 2
    endloop
  endfacet
  facet normal 0 0 1
    outer loop
      vertex -2.86618 -3.00505 2
      vertex -3.58635 -3.00505 2
      vertex -3.07912 -3.65842 2
    endloop
  endfacet
  facet normal 0 -0 1
    outer loop
      vertex -3.33003 -3.82556 2
      vertex -3.07912 -3.65842 2
      vertex -3.58635 -3.00505 2
    endloop
  endfacet
  facet normal 0 0 1
    outer loop
      vertex -3.07912 -3.65842 2
      vertex -3.33003 -3.82556 2
      vertex -3.17813 -3.96935 2
    endloop
  endfacet
  facet normal 0 0 1
    outer loop
      vertex -3.21304 -4.08801 2
      vertex -3.29578 -3.94424 2
      vertex -3.23373 -4.16464 2
    endloop
  endfacet
  facet normal 0 0 1
    outer loop
      vertex -3.17813 -3.96935 2
      vertex -3.29578 -3.94424 2
      vertex -3.21304 -4.08801 2
    endloop
  endfacet
  facet normal -0 -0 1
    outer loop
      vertex -3.29578 -3.94424 2
      vertex -3.17813 -3.96935 2
      vertex -3.33003 -3.82556 2
    endloop
  endfacet
  facet normal 0 0 1
    outer loop
      vertex -4.5 4.5 2
      vertex 4.5 59.5 2
      vertex -4.5 59.5 2
    endloop
  endfacet
  facet normal -0 0 1
    outer loop
      vertex 4.5 4.5 2
      vertex 59.5 -4.5 2
      vertex 59.5 4.5 2
    endloop
  endfacet
  facet normal -0 0 1
    outer loop
      vertex 3.50075 -3.83643 2
      vertex 59.5 -4.5 2
      vertex 4.5 4.5 2
    endloop
  endfacet
  facet normal -0 0 1
    outer loop
      vertex 3.45346 -4.10921 2
      vertex 59.5 -4.5 2
      vertex 3.50075 -3.83643 2
    endloop
  endfacet
  facet normal -0 0 1
    outer loop
      vertex 3.31155 -4.31993 2
      vertex 59.5 -4.5 2
      vertex 3.45346 -4.10921 2
    endloop
  endfacet
  facet normal -0 0 1
    outer loop
      vertex 3.08727 -4.4547 2
      vertex 59.5 -4.5 2
      vertex 3.31155 -4.31993 2
    endloop
  endfacet
  facet normal -0 0 1
    outer loop
      vertex 2.79279 -4.49963 2
      vertex 59.5 -4.5 2
      vertex 3.08727 -4.4547 2
    endloop
  endfacet
  facet normal -0 0 1
    outer loop
      vertex 1.86011 -4.05885 2
      vertex 2.19249 -4.21159 2
      vertex 2.11873 -3.9951 2
    endloop
  endfacet
  facet normal 0 0 1
    outer loop
      vertex 1.86011 -4.4725 2
      vertex 2.19249 -4.21159 2
      vertex 1.86011 -4.05885 2
    endloop
  endfacet
  facet normal 0 0 1
    outer loop
      vertex 2.19249 -4.21159 2
      vertex 1.86011 -4.4725 2
      vertex 2.33235 -4.3701 2
    endloop
  endfacet
  facet normal 0 0 1
    outer loop
      vertex 1.86011 -4.4725 2
      vertex 2.53392 -4.46725 2
      vertex 2.33235 -4.3701 2
    endloop
  endfacet
  facet normal -0 0 1
    outer loop
      vertex 1.86011 -4.4725 2
      vertex 2.79279 -4.49963 2
      vertex 2.53392 -4.46725 2
    endloop
  endfacet
  facet normal -0 0 1
    outer loop
      vertex 1.46814 -4.4725 2
      vertex 2.79279 -4.49963 2
      vertex 1.86011 -4.4725 2
    endloop
  endfacet
  facet normal 0 0 1
    outer loop
      vertex 1.20453 -4.4725 2
      vertex 1.46814 -4.4725 2
      vertex 1.20453 -4.15921 2
    endloop
  endfacet
  facet normal -0 0 1
    outer loop
      vertex 1.20453 -4.4725 2
      vertex 2.79279 -4.49963 2
      vertex 1.46814 -4.4725 2
    endloop
  endfacet
  facet normal -0 0 1
    outer loop
      vertex -0.132736 -4.4725 2
      vertex 2.79279 -4.49963 2
      vertex 1.20453 -4.4725 2
    endloop
  endfacet
  facet normal 0 0 1
    outer loop
      vertex -0.132736 -4.20805 2
      vertex -0.402222 -4.4725 2
      vertex -0.132736 -4.4725 2
    endloop
  endfacet
  facet normal -0 0 1
    outer loop
      vertex -0.402222 -4.4725 2
      vertex 2.79279 -4.49963 2
      vertex -0.132736 -4.4725 2
    endloop
  endfacet
  facet normal -0 0 1
    outer loop
      vertex -0.794189 -4.4725 2
      vertex 2.79279 -4.49963 2
      vertex -0.402222 -4.4725 2
    endloop
  endfacet
  facet normal 0 0 1
    outer loop
      vertex -1.0239 -4.4725 2
      vertex -0.794189 -4.4725 2
      vertex -1.0239 -4.18904 2
    endloop
  endfacet
  facet normal -0 0 1
    outer loop
      vertex -1.0239 -4.4725 2
      vertex 2.79279 -4.49963 2
      vertex -0.794189 -4.4725 2
    endloop
  endfacet
  facet normal -0 0 1
    outer loop
      vertex -2.31639 -4.4725 2
      vertex 2.79279 -4.49963 2
      vertex -1.0239 -4.4725 2
    endloop
  endfacet
  facet normal 0 0 1
    outer loop
      vertex -2.31639 -4.18904 2
      vertex -3.00859 -4.4725 2
      vertex -2.31639 -4.4725 2
    endloop
  endfacet
  facet normal -0 0 1
    outer loop
      vertex -3.00859 -4.4725 2
      vertex 2.79279 -4.49963 2
      vertex -2.31639 -4.4725 2
    endloop
  endfacet
  facet normal -0 0 1
    outer loop
      vertex -3.46429 -4.4725 2
      vertex 2.79279 -4.49963 2
      vertex -3.00859 -4.4725 2
    endloop
  endfacet
  facet normal 0 0 1
    outer loop
      vertex -3.58635 -3.00505 2
      vertex -4.5 4.5 2
      vertex -3.98915 -3.00505 2
    endloop
  endfacet
  facet normal 0 0 1
    outer loop
      vertex -59.5 -4.5 2
      vertex -4.5 4.5 2
      vertex -59.5 4.5 2
    endloop
  endfacet
  facet normal 0 0 1
    outer loop
      vertex -4.5 4.5 2
      vertex -59.5 -4.5 2
      vertex -3.98915 -3.00505 2
    endloop
  endfacet
  facet normal 0 0 1
    outer loop
      vertex 2.79279 -4.49963 2
      vertex -59.5 -4.5 2
      vertex 59.5 -4.5 2
    endloop
  endfacet
  facet normal 0 0 1
    outer loop
      vertex -3.46429 -4.4725 2
      vertex -59.5 -4.5 2
      vertex 2.79279 -4.49963 2
    endloop
  endfacet
  facet normal 0 0 1
    outer loop
      vertex -3.98915 -3.00505 2
      vertex -59.5 -4.5 2
      vertex -3.46429 -4.4725 2
    endloop
  endfacet
  facet normal -0 0 1
    outer loop
      vertex 3.38956 -2.845 2
      vertex 3.4599 -3.57535 2
      vertex 3.38956 -2.56155 2
    endloop
  endfacet
  facet normal 0 0 1
    outer loop
      vertex 3.38956 -2.845 2
      vertex 3.33731 -3.37531 2
      vertex 3.4599 -3.57535 2
    endloop
  endfacet
  facet normal 0 0 1
    outer loop
      vertex 3.38956 -2.845 2
      vertex 3.14659 -3.24815 2
      vertex 3.33731 -3.37531 2
    endloop
  endfacet
  facet normal 0 0 1
    outer loop
      vertex 3.38956 -2.845 2
      vertex 2.90129 -3.20576 2
      vertex 3.14659 -3.24815 2
    endloop
  endfacet
  facet normal -0 0 1
    outer loop
      vertex 2.58665 -2.845 2
      vertex 2.90129 -3.20576 2
      vertex 3.38956 -2.845 2
    endloop
  endfacet
  facet normal 0 0 1
    outer loop
      vertex 2.90129 -3.20576 2
      vertex 2.58665 -2.845 2
      vertex 2.71109 -3.23628 2
    endloop
  endfacet
  facet normal 0 0 1
    outer loop
      vertex 2.71109 -3.23628 2
      vertex 2.58665 -2.845 2
      vertex 2.55545 -3.32784 2
    endloop
  endfacet
  facet normal 0 0 1
    outer loop
      vertex 2.80499 -3.51364 2
      vertex 3.1088 -3.84457 2
      vertex 3.08879 -3.70912 2
    endloop
  endfacet
  facet normal 0 0 1
    outer loop
      vertex 2.93282 -3.53619 2
      vertex 3.08879 -3.70912 2
      vertex 3.02878 -3.60385 2
    endloop
  endfacet
  facet normal 0 0 1
    outer loop
      vertex 3.1088 -3.84457 2
      vertex 2.49985 -3.96391 2
      vertex 3.0876 -3.99545 2
    endloop
  endfacet
  facet normal 0 0 1
    outer loop
      vertex 3.08879 -3.70912 2
      vertex 2.93282 -3.53619 2
      vertex 2.80499 -3.51364 2
    endloop
  endfacet
  facet normal 0 -0 1
    outer loop
      vertex 2.79686 -4.19719 2
      vertex 3.0876 -3.99545 2
      vertex 2.49985 -3.96391 2
    endloop
  endfacet
  facet normal 0 0 1
    outer loop
      vertex 3.1088 -3.84457 2
      vertex 2.80499 -3.51364 2
      vertex 2.54596 -3.63705 2
    endloop
  endfacet
  facet normal 0 -0 1
    outer loop
      vertex 2.92487 -4.17447 2
      vertex 3.0876 -3.99545 2
      vertex 2.79686 -4.19719 2
    endloop
  endfacet
  facet normal 0 0 1
    outer loop
      vertex 3.0876 -3.99545 2
      vertex 2.92487 -4.17447 2
      vertex 3.02403 -4.10632 2
    endloop
  endfacet
  facet normal 0 0 1
    outer loop
      vertex 2.54596 -3.63705 2
      vertex 2.80499 -3.51364 2
      vertex 2.66089 -3.54449 2
    endloop
  endfacet
  facet normal 0 0 1
    outer loop
      vertex 2.79686 -4.19719 2
      vertex 2.49985 -3.96391 2
      vertex 2.69141 -4.18329 2
    endloop
  endfacet
  facet normal 0 0 1
    outer loop
      vertex 3.1088 -3.84457 2
      vertex 2.54596 -3.63705 2
      vertex 2.49985 -3.96391 2
    endloop
  endfacet
  facet normal -0 -0 1
    outer loop
      vertex 2.5412 -4.06935 2
      vertex 2.69141 -4.18329 2
      vertex 2.49985 -3.96391 2
    endloop
  endfacet
  facet normal 0 0 1
    outer loop
      vertex 2.69141 -4.18329 2
      vertex 2.5412 -4.06935 2
      vertex 2.60561 -4.14159 2
    endloop
  endfacet
  facet normal -0 0 1
    outer loop
      vertex 2.17435 -3.63705 2
      vertex 2.49985 -3.96391 2
      vertex 2.54596 -3.63705 2
    endloop
  endfacet
  facet normal 0 0 1
    outer loop
      vertex 2.49985 -3.96391 2
      vertex 2.17435 -3.63705 2
      vertex 2.11873 -3.9951 2
    endloop
  endfacet
  facet normal 0 0 1
    outer loop
      vertex 2.17435 -3.63705 2
      vertex 1.46814 -4.05885 2
      vertex 1.86011 -4.05885 2
    endloop
  endfacet
  facet normal -0 0 1
    outer loop
      vertex 1.06145 -3.41718 2
      vertex 1.46814 -4.05885 2
      vertex 1.1218 -3.31291 2
    endloop
  endfacet
  facet normal -0 0 1
    outer loop
      vertex 0.986176 -3.51297 2
      vertex 1.46814 -4.05885 2
      vertex 1.06145 -3.41718 2
    endloop
  endfacet
  facet normal 0 0 1
    outer loop
      vertex 1.46814 -4.05885 2
      vertex 0.986176 -3.51297 2
      vertex 1.20453 -4.15921 2
    endloop
  endfacet
  facet normal -0 0 1
    outer loop
      vertex 0.898849 -3.60162 2
      vertex 1.20453 -4.15921 2
      vertex 0.986176 -3.51297 2
    endloop
  endfacet
  facet normal -0 0 1
    outer loop
      vertex 0.802383 -3.68452 2
      vertex 1.20453 -4.15921 2
      vertex 0.898849 -3.60162 2
    endloop
  endfacet
  facet normal -0 0 1
    outer loop
      vertex 0.702881 -3.76353 2
      vertex 1.20453 -4.15921 2
      vertex 0.802383 -3.68452 2
    endloop
  endfacet
  facet normal -0 0 1
    outer loop
      vertex 0.606415 -3.84052 2
      vertex 1.20453 -4.15921 2
      vertex 0.702881 -3.76353 2
    endloop
  endfacet
  facet normal -0 0 1
    outer loop
      vertex 0.515717 -3.91679 2
      vertex 1.20453 -4.15921 2
      vertex 0.606415 -3.84052 2
    endloop
  endfacet
  facet normal -0 0 1
    outer loop
      vertex 0.433487 -3.99374 2
      vertex 1.20453 -4.15921 2
      vertex 0.515717 -3.91679 2
    endloop
  endfacet
  facet normal -0 0 1
    outer loop
      vertex 0.365509 -4.07376 2
      vertex 1.20453 -4.15921 2
      vertex 0.433487 -3.99374 2
    endloop
  endfacet
  facet normal 0 0 1
    outer loop
      vertex 1.20453 -4.15921 2
      vertex 0.365509 -4.07376 2
      vertex 0.317535 -4.15921 2
    endloop
  endfacet
  facet normal 0 0 1
    outer loop
      vertex 0.537247 -2.83687 2
      vertex 0.788147 -3.08643 2
      vertex 0.725418 -2.89926 2
    endloop
  endfacet
  facet normal 0 0 1
    outer loop
      vertex 0.788147 -3.08643 2
      vertex 0.537247 -2.83687 2
      vertex 0.767975 -3.18916 2
    endloop
  endfacet
  facet normal -0 0 1
    outer loop
      vertex 0.297699 -2.98488 2
      vertex 0.767975 -3.18916 2
      vertex 0.537247 -2.83687 2
    endloop
  endfacet
  facet normal -0 0 1
    outer loop
      vertex 0.267349 -3.09999 2
      vertex 0.767975 -3.18916 2
      vertex 0.297699 -2.98488 2
    endloop
  endfacet
  facet normal 0 0 1
    outer loop
      vertex 0.297699 -2.98488 2
      vertex 0.537247 -2.83687 2
      vertex 0.429596 -2.85332 2
    endloop
  endfacet
  facet normal 0 0 1
    outer loop
      vertex 0.297699 -2.98488 2
      vertex 0.429596 -2.85332 2
      vertex 0.350769 -2.90265 2
    endloop
  endfacet
  facet normal 0 0 1
    outer loop
      vertex 0.767975 -3.18916 2
      vertex 0.267349 -3.09999 2
      vertex 0.707443 -3.29393 2
    endloop
  endfacet
  facet normal 0 0 1
    outer loop
      vertex 0.707443 -3.29393 2
      vertex 0.267349 -3.09999 2
      vertex 0.596756 -3.41396 2
    endloop
  endfacet
  facet normal 0 0 1
    outer loop
      vertex 0.267349 -3.09999 2
      vertex 0.23497 -3.72861 2
      vertex 0.596756 -3.41396 2
    endloop
  endfacet
  facet normal 0 0 1
    outer loop
      vertex -0.11647 -3.07829 2
      vertex 0.23497 -3.72861 2
      vertex 0.267349 -3.09999 2
    endloop
  endfacet
  facet normal 0 0 1
    outer loop
      vertex 0.23497 -3.72861 2
      vertex -0.11647 -3.07829 2
      vertex 0.0795135 -3.88797 2
    endloop
  endfacet
  facet normal 0 0 1
    outer loop
      vertex -0.402222 -4.05885 2
      vertex 0.0795135 -3.88797 2
      vertex -0.11647 -3.07829 2
    endloop
  endfacet
  facet normal 0 0 1
    outer loop
      vertex 0.0795135 -3.88797 2
      vertex -0.402222 -4.05885 2
      vertex -0.0423737 -4.04597 2
    endloop
  endfacet
  facet normal 0 0 1
    outer loop
      vertex -0.794189 -4.05885 2
      vertex -1.46196 -4.18904 2
      vertex -1.0239 -4.18904 2
    endloop
  endfacet
  facet normal -0 0 1
    outer loop
      vertex -2.30147 -3.17188 2
      vertex -1.84308 -4.18904 2
      vertex -1.84308 -2.88568 2
    endloop
  endfacet
  facet normal 0 0 1
    outer loop
      vertex -1.84308 -4.18904 2
      vertex -2.30147 -3.17188 2
      vertex -2.31639 -4.18904 2
    endloop
  endfacet
  facet normal 0 0 -1
    outer loop
      vertex 59.5 -6.5 0
      vertex 6.5 6.5 0
      vertex 59.5 6.5 0
    endloop
  endfacet
  facet normal 0 0 -1
    outer loop
      vertex 6.5 6.5 0
      vertex -6.5 6.5 0
      vertex 6.5 59.5 0
    endloop
  endfacet
  facet normal 0 0 -1
    outer loop
      vertex 59.5 -6.5 0
      vertex -6.5 6.5 0
      vertex 6.5 6.5 0
    endloop
  endfacet
  facet normal 0 0 -1
    outer loop
      vertex -59.5 -6.5 0
      vertex -6.5 6.5 0
      vertex 59.5 -6.5 0
    endloop
  endfacet
  facet normal -0 0 -1
    outer loop
      vertex -6.5 6.5 0
      vertex -59.5 -6.5 0
      vertex -59.5 6.5 0
    endloop
  endfacet
  facet normal -0 0 -1
    outer loop
      vertex 6.5 59.5 0
      vertex -6.5 6.5 0
      vertex -6.5 59.5 0
    endloop
  endfacet
  facet normal -1 0 0
    outer loop
      vertex 4.5 4.5 2
      vertex 4.5 59.5 12
      vertex 4.5 59.5 2
    endloop
  endfacet
  facet normal -1 -0 0
    outer loop
      vertex 4.5 59.5 12
      vertex 4.5 4.5 2
      vertex 4.5 4.5 12
    endloop
  endfacet
  facet normal 0 1 -0
    outer loop
      vertex 59.5 6.5 0
      vertex 6.5 6.5 12
      vertex 59.5 6.5 12
    endloop
  endfacet
  facet normal 0 1 0
    outer loop
      vertex 6.5 6.5 12
      vertex 59.5 6.5 0
      vertex 6.5 6.5 0
    endloop
  endfacet
  facet normal 0 -1 0
    outer loop
      vertex -59.5 -6.5 0
      vertex 59.5 -6.5 12
      vertex -59.5 -6.5 12
    endloop
  endfacet
  facet normal 0 -1 -0
    outer loop
      vertex 59.5 -6.5 12
      vertex -59.5 -6.5 0
      vertex 59.5 -6.5 0
    endloop
  endfacet
  facet normal -0 0 1
    outer loop
      vertex -59.5 -4.5 12
      vertex 59.5 -6.5 12
      vertex 59.5 -4.5 12
    endloop
  endfacet
  facet normal 0 0 1
    outer loop
      vertex 59.5 -6.5 12
      vertex -59.5 -4.5 12
      vertex -59.5 -6.5 12
    endloop
  endfacet
  facet normal 0 1 -0
    outer loop
      vertex 59.5 -4.5 2
      vertex -59.5 -4.5 12
      vertex 59.5 -4.5 12
    endloop
  endfacet
  facet normal 0 1 0
    outer loop
      vertex -59.5 -4.5 12
      vertex 59.5 -4.5 2
      vertex -59.5 -4.5 2
    endloop
  endfacet
  facet normal 0 0 1
    outer loop
      vertex 6.5 59.5 12
      vertex 4.5 59.5 12
      vertex 6.5 6.5 12
    endloop
  endfacet
  facet normal -0 0 1
    outer loop
      vertex 6.5 6.5 12
      vertex 59.5 4.5 12
      vertex 59.5 6.5 12
    endloop
  endfacet
  facet normal 0 0 1
    outer loop
      vertex 6.5 6.5 12
      vertex 4.5 4.5 12
      vertex 59.5 4.5 12
    endloop
  endfacet
  facet normal 0 0 1
    outer loop
      vertex 4.5 4.5 12
      vertex 6.5 6.5 12
      vertex 4.5 59.5 12
    endloop
  endfacet
  facet normal 0 -1 0
    outer loop
      vertex -59.5 4.5 2
      vertex -4.5 4.5 12
      vertex -59.5 4.5 12
    endloop
  endfacet
  facet normal 0 -1 -0
    outer loop
      vertex -4.5 4.5 12
      vertex -59.5 4.5 2
      vertex -4.5 4.5 2
    endloop
  endfacet
  facet normal 0 -1 0
    outer loop
      vertex 4.5 4.5 2
      vertex 59.5 4.5 12
      vertex 4.5 4.5 12
    endloop
  endfacet
  facet normal 0 -1 -0
    outer loop
      vertex 59.5 4.5 12
      vertex 4.5 4.5 2
      vertex 59.5 4.5 2
    endloop
  endfacet
  facet normal 0 1 0
    outer loop
      vertex 6.5 59.5 12
      vertex 4.5 59.5 2
      vertex 4.5 59.5 12
    endloop
  endfacet
  facet normal 0 1 0
    outer loop
      vertex 4.5 59.5 2
      vertex 6.5 59.5 0
      vertex -4.5 59.5 2
    endloop
  endfacet
  facet normal 0 1 -0
    outer loop
      vertex 6.5 59.5 0
      vertex 4.5 59.5 2
      vertex 6.5 59.5 12
    endloop
  endfacet
  facet normal 0 1 -0
    outer loop
      vertex -4.5 59.5 2
      vertex -6.5 59.5 12
      vertex -4.5 59.5 12
    endloop
  endfacet
  facet normal 0 1 0
    outer loop
      vertex -4.5 59.5 2
      vertex -6.5 59.5 0
      vertex -6.5 59.5 12
    endloop
  endfacet
  facet normal 0 1 0
    outer loop
      vertex -6.5 59.5 0
      vertex -4.5 59.5 2
      vertex 6.5 59.5 0
    endloop
  endfacet
  facet normal -1 0 0
    outer loop
      vertex -6.5 6.5 0
      vertex -6.5 59.5 12
      vertex -6.5 59.5 0
    endloop
  endfacet
  facet normal -1 -0 0
    outer loop
      vertex -6.5 59.5 12
      vertex -6.5 6.5 0
      vertex -6.5 6.5 12
    endloop
  endfacet
  facet normal 1 -0 0
    outer loop
      vertex 6.5 6.5 12
      vertex 6.5 59.5 0
      vertex 6.5 59.5 12
    endloop
  endfacet
  facet normal 1 0 0
    outer loop
      vertex 6.5 59.5 0
      vertex 6.5 6.5 12
      vertex 6.5 6.5 0
    endloop
  endfacet
  facet normal 0 0 1
    outer loop
      vertex -6.5 6.5 12
      vertex -4.5 59.5 12
      vertex -6.5 59.5 12
    endloop
  endfacet
  facet normal 0 0 1
    outer loop
      vertex -4.5 59.5 12
      vertex -6.5 6.5 12
      vertex -4.5 4.5 12
    endloop
  endfacet
  facet normal 0 0 1
    outer loop
      vertex -59.5 4.5 12
      vertex -6.5 6.5 12
      vertex -59.5 6.5 12
    endloop
  endfacet
  facet normal 0 0 1
    outer loop
      vertex -6.5 6.5 12
      vertex -59.5 4.5 12
      vertex -4.5 4.5 12
    endloop
  endfacet
  facet normal 1 -0 0
    outer loop
      vertex -4.5 4.5 12
      vertex -4.5 59.5 2
      vertex -4.5 59.5 12
    endloop
  endfacet
  facet normal 1 0 0
    outer loop
      vertex -4.5 59.5 2
      vertex -4.5 4.5 12
      vertex -4.5 4.5 2
    endloop
  endfacet
  facet normal -1 0 0
    outer loop
      vertex -59.5 6.5 0
      vertex -59.5 4.5 2
      vertex -59.5 6.5 12
    endloop
  endfacet
  facet normal -1 0 0
    outer loop
      vertex -59.5 6.5 0
      vertex -59.5 -4.5 2
      vertex -59.5 4.5 2
    endloop
  endfacet
  facet normal -1 0 0
    outer loop
      vertex -59.5 -6.5 0
      vertex -59.5 -4.5 2
      vertex -59.5 6.5 0
    endloop
  endfacet
  facet normal -1 0 0
    outer loop
      vertex -59.5 -6.5 12
      vertex -59.5 -4.5 2
      vertex -59.5 -6.5 0
    endloop
  endfacet
  facet normal -1 0 0
    outer loop
      vertex -59.5 -4.5 2
      vertex -59.5 -6.5 12
      vertex -59.5 -4.5 12
    endloop
  endfacet
  facet normal -1 -0 0
    outer loop
      vertex -59.5 6.5 12
      vertex -59.5 4.5 2
      vertex -59.5 4.5 12
    endloop
  endfacet
  facet normal 0 1 -0
    outer loop
      vertex -6.5 6.5 0
      vertex -59.5 6.5 12
      vertex -6.5 6.5 12
    endloop
  endfacet
  facet normal 0 1 0
    outer loop
      vertex -59.5 6.5 12
      vertex -6.5 6.5 0
      vertex -59.5 6.5 0
    endloop
  endfacet
  facet normal 0 0 1
    outer loop
      vertex 0.788147 -3.08643 1.7
      vertex 1.17468 -3.07014 1.7
      vertex 1.13333 -2.84366 1.7
    endloop
  endfacet
  facet normal 0 0 1
    outer loop
      vertex 1.17468 -3.07014 1.7
      vertex 0.788147 -3.08643 1.7
      vertex 1.16147 -3.19797 1.7
    endloop
  endfacet
  facet normal -0 0 1
    outer loop
      vertex 0.767975 -3.18916 1.7
      vertex 1.16147 -3.19797 1.7
      vertex 0.788147 -3.08643 1.7
    endloop
  endfacet
  facet normal 0 0 1
    outer loop
      vertex 0.725418 -2.89926 1.7
      vertex 1.13333 -2.84366 1.7
      vertex 1.00923 -2.67413 1.7
    endloop
  endfacet
  facet normal 0 0 1
    outer loop
      vertex 1.16147 -3.19797 1.7
      vertex 0.767975 -3.18916 1.7
      vertex 1.1218 -3.31291 1.7
    endloop
  endfacet
  facet normal 0 0 1
    outer loop
      vertex 1.1218 -3.31291 1.7
      vertex 0.767975 -3.18916 1.7
      vertex 1.06145 -3.41718 1.7
    endloop
  endfacet
  facet normal 0 0 1
    outer loop
      vertex 0.725418 -2.89926 1.7
      vertex 1.00923 -2.67413 1.7
      vertex 0.807831 -2.56833 1.7
    endloop
  endfacet
  facet normal -0 0 1
    outer loop
      vertex 0.707443 -3.29393 1.7
      vertex 1.06145 -3.41718 1.7
      vertex 0.767975 -3.18916 1.7
    endloop
  endfacet
  facet normal 0 0 1
    outer loop
      vertex 1.06145 -3.41718 1.7
      vertex 0.707443 -3.29393 1.7
      vertex 0.986176 -3.51297 1.7
    endloop
  endfacet
  facet normal 0 0 1
    outer loop
      vertex 1.13333 -2.84366 1.7
      vertex 0.725418 -2.89926 1.7
      vertex 0.788147 -3.08643 1.7
    endloop
  endfacet
  facet normal 0 0 1
    outer loop
      vertex 0.807831 -2.56833 1.7
      vertex 0.537247 -2.83687 1.7
      vertex 0.725418 -2.89926 1.7
    endloop
  endfacet
  facet normal 0 0 1
    outer loop
      vertex 0.534531 -2.53307 1.7
      vertex 0.537247 -2.83687 1.7
      vertex 0.807831 -2.56833 1.7
    endloop
  endfacet
  facet normal 0 0 1
    outer loop
      vertex 0.534531 -2.53307 1.7
      vertex 0.429596 -2.85332 1.7
      vertex 0.537247 -2.83687 1.7
    endloop
  endfacet
  facet normal -0 0 1
    outer loop
      vertex 0.278381 -2.56799 1.7
      vertex 0.429596 -2.85332 1.7
      vertex 0.534531 -2.53307 1.7
    endloop
  endfacet
  facet normal 0 0 1
    outer loop
      vertex 0.429596 -2.85332 1.7
      vertex 0.278381 -2.56799 1.7
      vertex 0.350769 -2.90265 1.7
    endloop
  endfacet
  facet normal -0 0 1
    outer loop
      vertex 0.0822296 -2.67276 1.7
      vertex 0.350769 -2.90265 1.7
      vertex 0.278381 -2.56799 1.7
    endloop
  endfacet
  facet normal 0 0 1
    outer loop
      vertex 0.350769 -2.90265 1.7
      vertex 0.0822296 -2.67276 1.7
      vertex 0.297699 -2.98488 1.7
    endloop
  endfacet
  facet normal -0 0 1
    outer loop
      vertex -0.0505219 -2.84399 1.7
      vertex 0.297699 -2.98488 1.7
      vertex 0.0822296 -2.67276 1.7
    endloop
  endfacet
  facet normal 0 0 1
    outer loop
      vertex 0.297699 -2.98488 1.7
      vertex -0.0505219 -2.84399 1.7
      vertex 0.267349 -3.09999 1.7
    endloop
  endfacet
  facet normal 0 0 1
    outer loop
      vertex 0.267349 -3.09999 1.7
      vertex -0.0505219 -2.84399 1.7
      vertex -0.11647 -3.07829 1.7
    endloop
  endfacet
  facet normal 0 0 1
    outer loop
      vertex 0.986176 -3.51297 1.7
      vertex 0.707443 -3.29393 1.7
      vertex 0.898849 -3.60162 1.7
    endloop
  endfacet
  facet normal -0 0 1
    outer loop
      vertex 0.596756 -3.41396 1.7
      vertex 0.898849 -3.60162 1.7
      vertex 0.707443 -3.29393 1.7
    endloop
  endfacet
  facet normal 0 0 1
    outer loop
      vertex 0.898849 -3.60162 1.7
      vertex 0.596756 -3.41396 1.7
      vertex 0.802383 -3.68452 1.7
    endloop
  endfacet
  facet normal 0 0 1
    outer loop
      vertex 0.802383 -3.68452 1.7
      vertex 0.596756 -3.41396 1.7
      vertex 0.702881 -3.76353 1.7
    endloop
  endfacet
  facet normal 0 0 1
    outer loop
      vertex 0.702881 -3.76353 1.7
      vertex 0.596756 -3.41396 1.7
      vertex 0.606415 -3.84052 1.7
    endloop
  endfacet
  facet normal -0 0 1
    outer loop
      vertex 0.23497 -3.72861 1.7
      vertex 0.606415 -3.84052 1.7
      vertex 0.596756 -3.41396 1.7
    endloop
  endfacet
  facet normal 0 0 1
    outer loop
      vertex 0.606415 -3.84052 1.7
      vertex 0.23497 -3.72861 1.7
      vertex 0.515717 -3.91679 1.7
    endloop
  endfacet
  facet normal 0 0 1
    outer loop
      vertex 0.515717 -3.91679 1.7
      vertex 0.23497 -3.72861 1.7
      vertex 0.433487 -3.99374 1.7
    endloop
  endfacet
  facet normal -0 0 1
    outer loop
      vertex 0.0795135 -3.88797 1.7
      vertex 0.433487 -3.99374 1.7
      vertex 0.23497 -3.72861 1.7
    endloop
  endfacet
  facet normal 0 0 1
    outer loop
      vertex 0.433487 -3.99374 1.7
      vertex 0.0795135 -3.88797 1.7
      vertex 0.365509 -4.07376 1.7
    endloop
  endfacet
  facet normal -0 0 1
    outer loop
      vertex 0.317535 -4.15921 1.7
      vertex 1.20453 -4.4725 1.7
      vertex 1.20453 -4.15921 1.7
    endloop
  endfacet
  facet normal 0 0 1
    outer loop
      vertex 0.365509 -4.07376 1.7
      vertex 0.0795135 -3.88797 1.7
      vertex 0.317535 -4.15921 1.7
    endloop
  endfacet
  facet normal -0 0 1
    outer loop
      vertex -0.0423737 -4.04597 1.7
      vertex 0.317535 -4.15921 1.7
      vertex 0.0795135 -3.88797 1.7
    endloop
  endfacet
  facet normal 0 0 1
    outer loop
      vertex -0.132736 -4.20805 1.7
      vertex 0.317535 -4.15921 1.7
      vertex -0.0423737 -4.04597 1.7
    endloop
  endfacet
  facet normal 0 0 1
    outer loop
      vertex 0.317535 -4.15921 1.7
      vertex -0.132736 -4.20805 1.7
      vertex -0.132736 -4.4725 1.7
    endloop
  endfacet
  facet normal 0 0 1
    outer loop
      vertex 0.317535 -4.15921 1.7
      vertex -0.132736 -4.4725 1.7
      vertex 1.20453 -4.4725 1.7
    endloop
  endfacet
  facet normal 0 0 1
    outer loop
      vertex -1.84308 -2.88568 1.7
      vertex -1.46196 -2.56155 1.7
      vertex -1.82271 -2.56155 1.7
    endloop
  endfacet
  facet normal -0 0 1
    outer loop
      vertex -1.46196 -4.18904 1.7
      vertex -1.0239 -4.4725 1.7
      vertex -1.0239 -4.18904 1.7
    endloop
  endfacet
  facet normal 0 0 1
    outer loop
      vertex -1.46196 -2.56155 1.7
      vertex -1.84308 -2.88568 1.7
      vertex -1.46196 -4.18904 1.7
    endloop
  endfacet
  facet normal 0 0 1
    outer loop
      vertex -1.84308 -4.18904 1.7
      vertex -1.46196 -4.18904 1.7
      vertex -1.84308 -2.88568 1.7
    endloop
  endfacet
  facet normal -0 0 1
    outer loop
      vertex -1.84308 -4.18904 1.7
      vertex -1.0239 -4.4725 1.7
      vertex -1.46196 -4.18904 1.7
    endloop
  endfacet
  facet normal 0 0 1
    outer loop
      vertex -2.31639 -4.4725 1.7
      vertex -1.84308 -4.18904 1.7
      vertex -2.31639 -4.18904 1.7
    endloop
  endfacet
  facet normal 0 0 1
    outer loop
      vertex -1.84308 -4.18904 1.7
      vertex -2.31639 -4.4725 1.7
      vertex -1.0239 -4.4725 1.7
    endloop
  endfacet
  facet normal -0 0 1
    outer loop
      vertex -2.30147 -2.87213 1.7
      vertex -1.84308 -2.88568 1.7
      vertex -1.82271 -2.56155 1.7
    endloop
  endfacet
  facet normal 0 0 1
    outer loop
      vertex -1.84308 -2.88568 1.7
      vertex -2.30147 -2.87213 1.7
      vertex -2.30147 -3.17188 1.7
    endloop
  endfacet
  facet normal 0 0 1
    outer loop
      vertex 3.38956 -2.56155 1.7
      vertex 2.58665 -2.845 1.7
      vertex 3.38956 -2.845 1.7
    endloop
  endfacet
  facet normal -0 0 1
    outer loop
      vertex 2.2408 -2.56155 1.7
      vertex 2.58665 -2.845 1.7
      vertex 3.38956 -2.56155 1.7
    endloop
  endfacet
  facet normal 0 0 1
    outer loop
      vertex 2.2408 -2.56155 1.7
      vertex 2.55545 -3.32784 1.7
      vertex 2.58665 -2.845 1.7
    endloop
  endfacet
  facet normal 0 0 1
    outer loop
      vertex 2.17435 -3.63705 1.7
      vertex 2.55545 -3.32784 1.7
      vertex 2.2408 -2.56155 1.7
    endloop
  endfacet
  facet normal 0 0 1
    outer loop
      vertex 2.55545 -3.32784 1.7
      vertex 2.17435 -3.63705 1.7
      vertex 2.54596 -3.63705 1.7
    endloop
  endfacet
  facet normal 0 0 1
    outer loop
      vertex 3.50075 -3.83643 1.7
      vertex 3.08879 -3.70912 1.7
      vertex 3.1088 -3.84457 1.7
    endloop
  endfacet
  facet normal 0 0 1
    outer loop
      vertex 3.33731 -3.37531 1.7
      vertex 3.02878 -3.60385 1.7
      vertex 3.08879 -3.70912 1.7
    endloop
  endfacet
  facet normal 0 0 1
    outer loop
      vertex 3.14659 -3.24815 1.7
      vertex 2.93282 -3.53619 1.7
      vertex 3.02878 -3.60385 1.7
    endloop
  endfacet
  facet normal 0 0 1
    outer loop
      vertex 2.90129 -3.20576 1.7
      vertex 2.93282 -3.53619 1.7
      vertex 3.14659 -3.24815 1.7
    endloop
  endfacet
  facet normal 0 0 1
    outer loop
      vertex 2.90129 -3.20576 1.7
      vertex 2.80499 -3.51364 1.7
      vertex 2.93282 -3.53619 1.7
    endloop
  endfacet
  facet normal -0 0 1
    outer loop
      vertex 2.71109 -3.23628 1.7
      vertex 2.80499 -3.51364 1.7
      vertex 2.90129 -3.20576 1.7
    endloop
  endfacet
  facet normal 0 0 1
    outer loop
      vertex 2.71109 -3.23628 1.7
      vertex 2.66089 -3.54449 1.7
      vertex 2.80499 -3.51364 1.7
    endloop
  endfacet
  facet normal -0 0 1
    outer loop
      vertex 2.55545 -3.32784 1.7
      vertex 2.66089 -3.54449 1.7
      vertex 2.71109 -3.23628 1.7
    endloop
  endfacet
  facet normal 0 0 1
    outer loop
      vertex 2.66089 -3.54449 1.7
      vertex 2.55545 -3.32784 1.7
      vertex 2.54596 -3.63705 1.7
    endloop
  endfacet
  facet normal -0 0 1
    outer loop
      vertex 3.08879 -3.70912 1.7
      vertex 3.50075 -3.83643 1.7
      vertex 3.4599 -3.57535 1.7
    endloop
  endfacet
  facet normal 0 0 1
    outer loop
      vertex 3.08879 -3.70912 1.7
      vertex 3.4599 -3.57535 1.7
      vertex 3.33731 -3.37531 1.7
    endloop
  endfacet
  facet normal 0 0 1
    outer loop
      vertex 3.50075 -3.83643 1.7
      vertex 3.1088 -3.84457 1.7
      vertex 3.45346 -4.10921 1.7
    endloop
  endfacet
  facet normal 0 0 1
    outer loop
      vertex 3.02878 -3.60385 1.7
      vertex 3.33731 -3.37531 1.7
      vertex 3.14659 -3.24815 1.7
    endloop
  endfacet
  facet normal -0 0 1
    outer loop
      vertex 3.0876 -3.99545 1.7
      vertex 3.45346 -4.10921 1.7
      vertex 3.1088 -3.84457 1.7
    endloop
  endfacet
  facet normal 0 0 1
    outer loop
      vertex 3.45346 -4.10921 1.7
      vertex 3.0876 -3.99545 1.7
      vertex 3.31155 -4.31993 1.7
    endloop
  endfacet
  facet normal -0 0 1
    outer loop
      vertex 3.02403 -4.10632 1.7
      vertex 3.31155 -4.31993 1.7
      vertex 3.0876 -3.99545 1.7
    endloop
  endfacet
  facet normal 0 0 1
    outer loop
      vertex 3.31155 -4.31993 1.7
      vertex 3.02403 -4.10632 1.7
      vertex 3.08727 -4.4547 1.7
    endloop
  endfacet
  facet normal -0 0 1
    outer loop
      vertex 2.92487 -4.17447 1.7
      vertex 3.08727 -4.4547 1.7
      vertex 3.02403 -4.10632 1.7
    endloop
  endfacet
  facet normal 0 0 1
    outer loop
      vertex 2.79279 -4.49963 1.7
      vertex 2.92487 -4.17447 1.7
      vertex 2.79686 -4.19719 1.7
    endloop
  endfacet
  facet normal 0 0 1
    outer loop
      vertex 2.92487 -4.17447 1.7
      vertex 2.79279 -4.49963 1.7
      vertex 3.08727 -4.4547 1.7
    endloop
  endfacet
  facet normal 0 0 1
    outer loop
      vertex 2.69141 -4.18329 1.7
      vertex 2.79279 -4.49963 1.7
      vertex 2.79686 -4.19719 1.7
    endloop
  endfacet
  facet normal 0 0 1
    outer loop
      vertex 2.53392 -4.46725 1.7
      vertex 2.69141 -4.18329 1.7
      vertex 2.60561 -4.14159 1.7
    endloop
  endfacet
  facet normal 0 0 1
    outer loop
      vertex 2.33235 -4.3701 1.7
      vertex 2.60561 -4.14159 1.7
      vertex 2.5412 -4.06935 1.7
    endloop
  endfacet
  facet normal 0 0 1
    outer loop
      vertex 2.69141 -4.18329 1.7
      vertex 2.53392 -4.46725 1.7
      vertex 2.79279 -4.49963 1.7
    endloop
  endfacet
  facet normal 0 0 1
    outer loop
      vertex 2.19249 -4.21159 1.7
      vertex 2.5412 -4.06935 1.7
      vertex 2.49985 -3.96391 1.7
    endloop
  endfacet
  facet normal 0 0 1
    outer loop
      vertex 2.60561 -4.14159 1.7
      vertex 2.33235 -4.3701 1.7
      vertex 2.53392 -4.46725 1.7
    endloop
  endfacet
  facet normal 0 0 1
    outer loop
      vertex 2.5412 -4.06935 1.7
      vertex 2.19249 -4.21159 1.7
      vertex 2.33235 -4.3701 1.7
    endloop
  endfacet
  facet normal 0 -0 1
    outer loop
      vertex 2.19249 -4.21159 1.7
      vertex 2.49985 -3.96391 1.7
      vertex 2.11873 -3.9951 1.7
    endloop
  endfacet
  facet normal 0 0 1
    outer loop
      vertex -3.07912 -3.65842 1.7
      vertex -2.46745 -3.00505 1.7
      vertex -2.86618 -3.00505 1.7
    endloop
  endfacet
  facet normal 0 0 1
    outer loop
      vertex -2.46745 -3.00505 1.7
      vertex -3.07912 -3.65842 1.7
      vertex -3.00859 -4.4725 1.7
    endloop
  endfacet
  facet normal -0 0 1
    outer loop
      vertex -3.17813 -3.96935 1.7
      vertex -3.00859 -4.4725 1.7
      vertex -3.07912 -3.65842 1.7
    endloop
  endfacet
  facet normal -0 0 1
    outer loop
      vertex -3.21304 -4.08801 1.7
      vertex -3.00859 -4.4725 1.7
      vertex -3.17813 -3.96935 1.7
    endloop
  endfacet
  facet normal -0 0 1
    outer loop
      vertex -3.23373 -4.16464 1.7
      vertex -3.00859 -4.4725 1.7
      vertex -3.21304 -4.08801 1.7
    endloop
  endfacet
  facet normal 0 0 1
    outer loop
      vertex -3.46429 -4.4725 1.7
      vertex -3.29578 -3.94424 1.7
      vertex -3.33003 -3.82556 1.7
    endloop
  endfacet
  facet normal 0 0 1
    outer loop
      vertex -3.23373 -4.16464 1.7
      vertex -3.46429 -4.4725 1.7
      vertex -3.00859 -4.4725 1.7
    endloop
  endfacet
  facet normal 0 0 1
    outer loop
      vertex -3.29578 -3.94424 1.7
      vertex -3.46429 -4.4725 1.7
      vertex -3.23373 -4.16464 1.7
    endloop
  endfacet
  facet normal -0 0 1
    outer loop
      vertex -3.98915 -3.00505 1.7
      vertex -3.33003 -3.82556 1.7
      vertex -3.58635 -3.00505 1.7
    endloop
  endfacet
  facet normal 0 0 1
    outer loop
      vertex -3.33003 -3.82556 1.7
      vertex -3.98915 -3.00505 1.7
      vertex -3.46429 -4.4725 1.7
    endloop
  endfacet
  facet normal -0 0 1
    outer loop
      vertex -0.794189 -4.05885 1.7
      vertex -0.402222 -4.4725 1.7
      vertex -0.402222 -4.05885 1.7
    endloop
  endfacet
  facet normal 0 0 1
    outer loop
      vertex -0.402222 -4.4725 1.7
      vertex -0.794189 -4.05885 1.7
      vertex -0.794189 -4.4725 1.7
    endloop
  endfacet
  facet normal -0 0 1
    outer loop
      vertex 1.46814 -4.05885 1.7
      vertex 1.86011 -4.4725 1.7
      vertex 1.86011 -4.05885 1.7
    endloop
  endfacet
  facet normal 0 0 1
    outer loop
      vertex 1.86011 -4.4725 1.7
      vertex 1.46814 -4.05885 1.7
      vertex 1.46814 -4.4725 1.7
    endloop
  endfacet
  facet normal 0 -1 0
    outer loop
      vertex 0.317535 -4.15921 1.7
      vertex 1.20453 -4.15921 2
      vertex 0.317535 -4.15921 2
    endloop
  endfacet
  facet normal 0 -1 -0
    outer loop
      vertex 1.20453 -4.15921 2
      vertex 0.317535 -4.15921 1.7
      vertex 1.20453 -4.15921 1.7
    endloop
  endfacet
  facet normal -0.871975 0.489551 0
    outer loop
      vertex 0.317535 -4.15921 1.7
      vertex 0.365509 -4.07376 2
      vertex 0.365509 -4.07376 1.7
    endloop
  endfacet
  facet normal -0.871975 0.489551 0
    outer loop
      vertex 0.365509 -4.07376 2
      vertex 0.317535 -4.15921 1.7
      vertex 0.317535 -4.15921 2
    endloop
  endfacet
  facet normal -0.762123 0.647433 0
    outer loop
      vertex 0.365509 -4.07376 1.7
      vertex 0.433487 -3.99374 2
      vertex 0.433487 -3.99374 1.7
    endloop
  endfacet
  facet normal -0.762123 0.647433 0
    outer loop
      vertex 0.433487 -3.99374 2
      vertex 0.365509 -4.07376 1.7
      vertex 0.365509 -4.07376 2
    endloop
  endfacet
  facet normal -0.683276 0.73016 0
    outer loop
      vertex 0.515717 -3.91679 1.7
      vertex 0.433487 -3.99374 2
      vertex 0.515717 -3.91679 2
    endloop
  endfacet
  facet normal -0.683276 0.73016 0
    outer loop
      vertex 0.433487 -3.99374 2
      vertex 0.515717 -3.91679 1.7
      vertex 0.433487 -3.99374 1.7
    endloop
  endfacet
  facet normal -0.643606 0.765357 0
    outer loop
      vertex 0.606415 -3.84052 1.7
      vertex 0.515717 -3.91679 2
      vertex 0.606415 -3.84052 2
    endloop
  endfacet
  facet normal -0.643606 0.765357 0
    outer loop
      vertex 0.515717 -3.91679 2
      vertex 0.606415 -3.84052 1.7
      vertex 0.515717 -3.91679 1.7
    endloop
  endfacet
  facet normal -0.623792 0.781591 0
    outer loop
      vertex 0.702881 -3.76353 1.7
      vertex 0.606415 -3.84052 2
      vertex 0.702881 -3.76353 2
    endloop
  endfacet
  facet normal -0.623792 0.781591 0
    outer loop
      vertex 0.606415 -3.84052 2
      vertex 0.702881 -3.76353 1.7
      vertex 0.606415 -3.84052 1.7
    endloop
  endfacet
  facet normal -0.621852 0.783135 0
    outer loop
      vertex 0.802383 -3.68452 1.7
      vertex 0.702881 -3.76353 2
      vertex 0.802383 -3.68452 2
    endloop
  endfacet
  facet normal -0.621852 0.783135 0
    outer loop
      vertex 0.702881 -3.76353 2
      vertex 0.802383 -3.68452 1.7
      vertex 0.702881 -3.76353 1.7
    endloop
  endfacet
  facet normal -0.651765 0.758421 0
    outer loop
      vertex 0.898849 -3.60162 1.7
      vertex 0.802383 -3.68452 2
      vertex 0.898849 -3.60162 2
    endloop
  endfacet
  facet normal -0.651765 0.758421 0
    outer loop
      vertex 0.802383 -3.68452 2
      vertex 0.898849 -3.60162 1.7
      vertex 0.802383 -3.68452 1.7
    endloop
  endfacet
  facet normal -0.712403 0.701771 0
    outer loop
      vertex 0.898849 -3.60162 1.7
      vertex 0.986176 -3.51297 2
      vertex 0.986176 -3.51297 1.7
    endloop
  endfacet
  facet normal -0.712403 0.701771 0
    outer loop
      vertex 0.986176 -3.51297 2
      vertex 0.898849 -3.60162 1.7
      vertex 0.898849 -3.60162 2
    endloop
  endfacet
  facet normal -0.786277 0.617874 0
    outer loop
      vertex 0.986176 -3.51297 1.7
      vertex 1.06145 -3.41718 2
      vertex 1.06145 -3.41718 1.7
    endloop
  endfacet
  facet normal -0.786277 0.617874 0
    outer loop
      vertex 1.06145 -3.41718 2
      vertex 0.986176 -3.51297 1.7
      vertex 0.986176 -3.51297 2
    endloop
  endfacet
  facet normal -0.865487 0.500932 0
    outer loop
      vertex 1.06145 -3.41718 1.7
      vertex 1.1218 -3.31291 2
      vertex 1.1218 -3.31291 1.7
    endloop
  endfacet
  facet normal -0.865487 0.500932 0
    outer loop
      vertex 1.1218 -3.31291 2
      vertex 1.06145 -3.41718 1.7
      vertex 1.06145 -3.41718 2
    endloop
  endfacet
  facet normal -0.945283 0.326252 0
    outer loop
      vertex 1.1218 -3.31291 1.7
      vertex 1.16147 -3.19797 2
      vertex 1.16147 -3.19797 1.7
    endloop
  endfacet
  facet normal -0.945283 0.326252 0
    outer loop
      vertex 1.16147 -3.19797 2
      vertex 1.1218 -3.31291 1.7
      vertex 1.1218 -3.31291 2
    endloop
  endfacet
  facet normal -0.994703 0.102793 0
    outer loop
      vertex 1.16147 -3.19797 1.7
      vertex 1.17468 -3.07014 2
      vertex 1.17468 -3.07014 1.7
    endloop
  endfacet
  facet normal -0.994703 0.102793 0
    outer loop
      vertex 1.17468 -3.07014 2
      vertex 1.16147 -3.19797 1.7
      vertex 1.16147 -3.19797 2
    endloop
  endfacet
  facet normal -0.983738 -0.179608 0
    outer loop
      vertex 1.17468 -3.07014 1.7
      vertex 1.13333 -2.84366 2
      vertex 1.13333 -2.84366 1.7
    endloop
  endfacet
  facet normal -0.983738 -0.179608 0
    outer loop
      vertex 1.13333 -2.84366 2
      vertex 1.17468 -3.07014 1.7
      vertex 1.17468 -3.07014 2
    endloop
  endfacet
  facet normal -0.806909 -0.590676 0
    outer loop
      vertex 1.13333 -2.84366 1.7
      vertex 1.00923 -2.67413 2
      vertex 1.00923 -2.67413 1.7
    endloop
  endfacet
  facet normal -0.806909 -0.590676 0
    outer loop
      vertex 1.00923 -2.67413 2
      vertex 1.13333 -2.84366 1.7
      vertex 1.13333 -2.84366 2
    endloop
  endfacet
  facet normal -0.46506 -0.885279 0
    outer loop
      vertex 0.807831 -2.56833 1.7
      vertex 1.00923 -2.67413 2
      vertex 0.807831 -2.56833 2
    endloop
  endfacet
  facet normal -0.46506 -0.885279 -0
    outer loop
      vertex 1.00923 -2.67413 2
      vertex 0.807831 -2.56833 1.7
      vertex 1.00923 -2.67413 1.7
    endloop
  endfacet
  facet normal -0.127955 -0.99178 0
    outer loop
      vertex 0.534531 -2.53307 1.7
      vertex 0.807831 -2.56833 2
      vertex 0.534531 -2.53307 2
    endloop
  endfacet
  facet normal -0.127955 -0.99178 -0
    outer loop
      vertex 0.807831 -2.56833 2
      vertex 0.534531 -2.53307 1.7
      vertex 0.807831 -2.56833 1.7
    endloop
  endfacet
  facet normal 0.135077 -0.990835 0
    outer loop
      vertex 0.278381 -2.56799 1.7
      vertex 0.534531 -2.53307 2
      vertex 0.278381 -2.56799 2
    endloop
  endfacet
  facet normal 0.135077 -0.990835 0
    outer loop
      vertex 0.534531 -2.53307 2
      vertex 0.278381 -2.56799 1.7
      vertex 0.534531 -2.53307 1.7
    endloop
  endfacet
  facet normal 0.471134 -0.882062 0
    outer loop
      vertex 0.0822296 -2.67276 1.7
      vertex 0.278381 -2.56799 2
      vertex 0.0822296 -2.67276 2
    endloop
  endfacet
  facet normal 0.471134 -0.882062 0
    outer loop
      vertex 0.278381 -2.56799 2
      vertex 0.0822296 -2.67276 1.7
      vertex 0.278381 -2.56799 1.7
    endloop
  endfacet
  facet normal 0.790307 -0.612711 0
    outer loop
      vertex -0.0505219 -2.84399 2
      vertex 0.0822296 -2.67276 1.7
      vertex 0.0822296 -2.67276 2
    endloop
  endfacet
  facet normal 0.790307 -0.612711 0
    outer loop
      vertex 0.0822296 -2.67276 1.7
      vertex -0.0505219 -2.84399 2
      vertex -0.0505219 -2.84399 1.7
    endloop
  endfacet
  facet normal 0.962596 -0.270941 0
    outer loop
      vertex -0.11647 -3.07829 2
      vertex -0.0505219 -2.84399 1.7
      vertex -0.0505219 -2.84399 2
    endloop
  endfacet
  facet normal 0.962596 -0.270941 0
    outer loop
      vertex -0.0505219 -2.84399 1.7
      vertex -0.11647 -3.07829 2
      vertex -0.11647 -3.07829 1.7
    endloop
  endfacet
  facet normal 0.0564469 0.998406 -0
    outer loop
      vertex 0.267349 -3.09999 1.7
      vertex -0.11647 -3.07829 2
      vertex 0.267349 -3.09999 2
    endloop
  endfacet
  facet normal 0.0564469 0.998406 0
    outer loop
      vertex -0.11647 -3.07829 2
      vertex 0.267349 -3.09999 1.7
      vertex -0.11647 -3.07829 1.7
    endloop
  endfacet
  facet normal -0.966955 0.254948 0
    outer loop
      vertex 0.267349 -3.09999 1.7
      vertex 0.297699 -2.98488 2
      vertex 0.297699 -2.98488 1.7
    endloop
  endfacet
  facet normal -0.966955 0.254948 0
    outer loop
      vertex 0.297699 -2.98488 2
      vertex 0.267349 -3.09999 1.7
      vertex 0.267349 -3.09999 2
    endloop
  endfacet
  facet normal -0.840211 0.54226 0
    outer loop
      vertex 0.297699 -2.98488 1.7
      vertex 0.350769 -2.90265 2
      vertex 0.350769 -2.90265 1.7
    endloop
  endfacet
  facet normal -0.840211 0.54226 0
    outer loop
      vertex 0.350769 -2.90265 2
      vertex 0.297699 -2.98488 1.7
      vertex 0.297699 -2.98488 2
    endloop
  endfacet
  facet normal -0.530487 0.847693 0
    outer loop
      vertex 0.429596 -2.85332 1.7
      vertex 0.350769 -2.90265 2
      vertex 0.429596 -2.85332 2
    endloop
  endfacet
  facet normal -0.530487 0.847693 0
    outer loop
      vertex 0.350769 -2.90265 2
      vertex 0.429596 -2.85332 1.7
      vertex 0.350769 -2.90265 1.7
    endloop
  endfacet
  facet normal -0.151055 0.988525 0
    outer loop
      vertex 0.537247 -2.83687 1.7
      vertex 0.429596 -2.85332 2
      vertex 0.537247 -2.83687 2
    endloop
  endfacet
  facet normal -0.151055 0.988525 0
    outer loop
      vertex 0.429596 -2.85332 2
      vertex 0.537247 -2.83687 1.7
      vertex 0.429596 -2.85332 1.7
    endloop
  endfacet
  facet normal 0.314713 0.949187 -0
    outer loop
      vertex 0.725418 -2.89926 1.7
      vertex 0.537247 -2.83687 2
      vertex 0.725418 -2.89926 2
    endloop
  endfacet
  facet normal 0.314713 0.949187 0
    outer loop
      vertex 0.537247 -2.83687 2
      vertex 0.725418 -2.89926 1.7
      vertex 0.537247 -2.83687 1.7
    endloop
  endfacet
  facet normal 0.948167 0.317773 0
    outer loop
      vertex 0.788147 -3.08643 2
      vertex 0.725418 -2.89926 1.7
      vertex 0.725418 -2.89926 2
    endloop
  endfacet
  facet normal 0.948167 0.317773 0
    outer loop
      vertex 0.725418 -2.89926 1.7
      vertex 0.788147 -3.08643 2
      vertex 0.788147 -3.08643 1.7
    endloop
  endfacet
  facet normal 0.981262 -0.19268 0
    outer loop
      vertex 0.767975 -3.18916 2
      vertex 0.788147 -3.08643 1.7
      vertex 0.788147 -3.08643 2
    endloop
  endfacet
  facet normal 0.981262 -0.19268 0
    outer loop
      vertex 0.788147 -3.08643 1.7
      vertex 0.767975 -3.18916 2
      vertex 0.767975 -3.18916 1.7
    endloop
  endfacet
  facet normal 0.865871 -0.500267 0
    outer loop
      vertex 0.707443 -3.29393 2
      vertex 0.767975 -3.18916 1.7
      vertex 0.767975 -3.18916 2
    endloop
  endfacet
  facet normal 0.865871 -0.500267 0
    outer loop
      vertex 0.767975 -3.18916 1.7
      vertex 0.707443 -3.29393 2
      vertex 0.707443 -3.29393 1.7
    endloop
  endfacet
  facet normal 0.735139 -0.677917 0
    outer loop
      vertex 0.596756 -3.41396 2
      vertex 0.707443 -3.29393 1.7
      vertex 0.707443 -3.29393 2
    endloop
  endfacet
  facet normal 0.735139 -0.677917 0
    outer loop
      vertex 0.707443 -3.29393 1.7
      vertex 0.596756 -3.41396 2
      vertex 0.596756 -3.41396 1.7
    endloop
  endfacet
  facet normal 0.656242 -0.75455 0
    outer loop
      vertex 0.23497 -3.72861 1.7
      vertex 0.596756 -3.41396 2
      vertex 0.23497 -3.72861 2
    endloop
  endfacet
  facet normal 0.656242 -0.75455 0
    outer loop
      vertex 0.596756 -3.41396 2
      vertex 0.23497 -3.72861 1.7
      vertex 0.596756 -3.41396 1.7
    endloop
  endfacet
  facet normal 0.715819 -0.698285 0
    outer loop
      vertex 0.0795135 -3.88797 2
      vertex 0.23497 -3.72861 1.7
      vertex 0.23497 -3.72861 2
    endloop
  endfacet
  facet normal 0.715819 -0.698285 0
    outer loop
      vertex 0.23497 -3.72861 1.7
      vertex 0.0795135 -3.88797 2
      vertex 0.0795135 -3.88797 1.7
    endloop
  endfacet
  facet normal 0.791779 -0.610808 0
    outer loop
      vertex -0.0423737 -4.04597 2
      vertex 0.0795135 -3.88797 1.7
      vertex 0.0795135 -3.88797 2
    endloop
  endfacet
  facet normal 0.791779 -0.610808 0
    outer loop
      vertex 0.0795135 -3.88797 1.7
      vertex -0.0423737 -4.04597 2
      vertex -0.0423737 -4.04597 1.7
    endloop
  endfacet
  facet normal 0.873429 -0.486951 0
    outer loop
      vertex -0.132736 -4.20805 2
      vertex -0.0423737 -4.04597 1.7
      vertex -0.0423737 -4.04597 2
    endloop
  endfacet
  facet normal 0.873429 -0.486951 0
    outer loop
      vertex -0.0423737 -4.04597 1.7
      vertex -0.132736 -4.20805 2
      vertex -0.132736 -4.20805 1.7
    endloop
  endfacet
  facet normal 1 -0 0
    outer loop
      vertex -0.132736 -4.4725 2
      vertex -0.132736 -4.20805 1.7
      vertex -0.132736 -4.20805 2
    endloop
  endfacet
  facet normal 1 0 0
    outer loop
      vertex -0.132736 -4.20805 1.7
      vertex -0.132736 -4.4725 2
      vertex -0.132736 -4.4725 1.7
    endloop
  endfacet
  facet normal 0 1 -0
    outer loop
      vertex 1.20453 -4.4725 1.7
      vertex -0.132736 -4.4725 2
      vertex 1.20453 -4.4725 2
    endloop
  endfacet
  facet normal 0 1 0
    outer loop
      vertex -0.132736 -4.4725 2
      vertex 1.20453 -4.4725 1.7
      vertex -0.132736 -4.4725 1.7
    endloop
  endfacet
  facet normal -1 0 0
    outer loop
      vertex 1.20453 -4.4725 1.7
      vertex 1.20453 -4.15921 2
      vertex 1.20453 -4.15921 1.7
    endloop
  endfacet
  facet normal -1 -0 0
    outer loop
      vertex 1.20453 -4.15921 2
      vertex 1.20453 -4.4725 1.7
      vertex 1.20453 -4.4725 2
    endloop
  endfacet
  facet normal 0 -1 0
    outer loop
      vertex -1.46196 -4.18904 1.7
      vertex -1.0239 -4.18904 2
      vertex -1.46196 -4.18904 2
    endloop
  endfacet
  facet normal 0 -1 -0
    outer loop
      vertex -1.0239 -4.18904 2
      vertex -1.46196 -4.18904 1.7
      vertex -1.0239 -4.18904 1.7
    endloop
  endfacet
  facet normal -1 0 0
    outer loop
      vertex -1.46196 -4.18904 1.7
      vertex -1.46196 -2.56155 2
      vertex -1.46196 -2.56155 1.7
    endloop
  endfacet
  facet normal -1 -0 0
    outer loop
      vertex -1.46196 -2.56155 2
      vertex -1.46196 -4.18904 1.7
      vertex -1.46196 -4.18904 2
    endloop
  endfacet
  facet normal 0 -1 0
    outer loop
      vertex -1.82271 -2.56155 1.7
      vertex -1.46196 -2.56155 2
      vertex -1.82271 -2.56155 2
    endloop
  endfacet
  facet normal 0 -1 -0
    outer loop
      vertex -1.46196 -2.56155 2
      vertex -1.82271 -2.56155 1.7
      vertex -1.46196 -2.56155 1.7
    endloop
  endfacet
  facet normal 0.544232 -0.838935 0
    outer loop
      vertex -2.30147 -2.87213 1.7
      vertex -1.82271 -2.56155 2
      vertex -2.30147 -2.87213 2
    endloop
  endfacet
  facet normal 0.544232 -0.838935 0
    outer loop
      vertex -1.82271 -2.56155 2
      vertex -2.30147 -2.87213 1.7
      vertex -1.82271 -2.56155 1.7
    endloop
  endfacet
  facet normal 1 -0 0
    outer loop
      vertex -2.30147 -3.17188 2
      vertex -2.30147 -2.87213 1.7
      vertex -2.30147 -2.87213 2
    endloop
  endfacet
  facet normal 1 0 0
    outer loop
      vertex -2.30147 -2.87213 1.7
      vertex -2.30147 -3.17188 2
      vertex -2.30147 -3.17188 1.7
    endloop
  endfacet
  facet normal -0.529608 0.848243 0
    outer loop
      vertex -1.84308 -2.88568 1.7
      vertex -2.30147 -3.17188 2
      vertex -1.84308 -2.88568 2
    endloop
  endfacet
  facet normal -0.529608 0.848243 0
    outer loop
      vertex -2.30147 -3.17188 2
      vertex -1.84308 -2.88568 1.7
      vertex -2.30147 -3.17188 1.7
    endloop
  endfacet
  facet normal 1 -0 0
    outer loop
      vertex -1.84308 -4.18904 2
      vertex -1.84308 -2.88568 1.7
      vertex -1.84308 -2.88568 2
    endloop
  endfacet
  facet normal 1 0 0
    outer loop
      vertex -1.84308 -2.88568 1.7
      vertex -1.84308 -4.18904 2
      vertex -1.84308 -4.18904 1.7
    endloop
  endfacet
  facet normal 0 -1 0
    outer loop
      vertex -2.31639 -4.18904 1.7
      vertex -1.84308 -4.18904 2
      vertex -2.31639 -4.18904 2
    endloop
  endfacet
  facet normal 0 -1 -0
    outer loop
      vertex -1.84308 -4.18904 2
      vertex -2.31639 -4.18904 1.7
      vertex -1.84308 -4.18904 1.7
    endloop
  endfacet
  facet normal 1 -0 0
    outer loop
      vertex -2.31639 -4.4725 2
      vertex -2.31639 -4.18904 1.7
      vertex -2.31639 -4.18904 2
    endloop
  endfacet
  facet normal 1 0 0
    outer loop
      vertex -2.31639 -4.18904 1.7
      vertex -2.31639 -4.4725 2
      vertex -2.31639 -4.4725 1.7
    endloop
  endfacet
  facet normal 0 1 -0
    outer loop
      vertex -1.0239 -4.4725 1.7
      vertex -2.31639 -4.4725 2
      vertex -1.0239 -4.4725 2
    endloop
  endfacet
  facet normal 0 1 0
    outer loop
      vertex -2.31639 -4.4725 2
      vertex -1.0239 -4.4725 1.7
      vertex -2.31639 -4.4725 1.7
    endloop
  endfacet
  facet normal -1 0 0
    outer loop
      vertex -1.0239 -4.4725 1.7
      vertex -1.0239 -4.18904 2
      vertex -1.0239 -4.18904 1.7
    endloop
  endfacet
  facet normal -1 -0 0
    outer loop
      vertex -1.0239 -4.18904 2
      vertex -1.0239 -4.4725 1.7
      vertex -1.0239 -4.4725 2
    endloop
  endfacet
  facet normal -0.515063 0.857152 0
    outer loop
      vertex 3.31155 -4.31993 1.7
      vertex 3.08727 -4.4547 2
      vertex 3.31155 -4.31993 2
    endloop
  endfacet
  facet normal -0.515063 0.857152 0
    outer loop
      vertex 3.08727 -4.4547 2
      vertex 3.31155 -4.31993 1.7
      vertex 3.08727 -4.4547 1.7
    endloop
  endfacet
  facet normal -0.829443 0.558591 0
    outer loop
      vertex 3.31155 -4.31993 1.7
      vertex 3.45346 -4.10921 2
      vertex 3.45346 -4.10921 1.7
    endloop
  endfacet
  facet normal -0.829443 0.558591 0
    outer loop
      vertex 3.45346 -4.10921 2
      vertex 3.31155 -4.31993 1.7
      vertex 3.31155 -4.31993 2
    endloop
  endfacet
  facet normal -0.985303 0.170815 0
    outer loop
      vertex 3.45346 -4.10921 1.7
      vertex 3.50075 -3.83643 2
      vertex 3.50075 -3.83643 1.7
    endloop
  endfacet
  facet normal -0.985303 0.170815 0
    outer loop
      vertex 3.50075 -3.83643 2
      vertex 3.45346 -4.10921 1.7
      vertex 3.45346 -4.10921 2
    endloop
  endfacet
  facet normal -0.98798 -0.154585 0
    outer loop
      vertex 3.50075 -3.83643 1.7
      vertex 3.4599 -3.57535 2
      vertex 3.4599 -3.57535 1.7
    endloop
  endfacet
  facet normal -0.98798 -0.154585 0
    outer loop
      vertex 3.4599 -3.57535 2
      vertex 3.50075 -3.83643 1.7
      vertex 3.50075 -3.83643 2
    endloop
  endfacet
  facet normal -0.85263 -0.522515 0
    outer loop
      vertex 3.4599 -3.57535 1.7
      vertex 3.33731 -3.37531 2
      vertex 3.33731 -3.37531 1.7
    endloop
  endfacet
  facet normal -0.85263 -0.522515 0
    outer loop
      vertex 3.33731 -3.37531 2
      vertex 3.4599 -3.57535 1.7
      vertex 3.4599 -3.57535 2
    endloop
  endfacet
  facet normal -0.55474 -0.832023 0
    outer loop
      vertex 3.14659 -3.24815 1.7
      vertex 3.33731 -3.37531 2
      vertex 3.14659 -3.24815 2
    endloop
  endfacet
  facet normal -0.55474 -0.832023 -0
    outer loop
      vertex 3.33731 -3.37531 2
      vertex 3.14659 -3.24815 1.7
      vertex 3.33731 -3.37531 1.7
    endloop
  endfacet
  facet normal -0.170285 -0.985395 0
    outer loop
      vertex 2.90129 -3.20576 1.7
      vertex 3.14659 -3.24815 2
      vertex 2.90129 -3.20576 2
    endloop
  endfacet
  facet normal -0.170285 -0.985395 -0
    outer loop
      vertex 3.14659 -3.24815 2
      vertex 2.90129 -3.20576 1.7
      vertex 3.14659 -3.24815 1.7
    endloop
  endfacet
  facet normal 0.158436 -0.987369 0
    outer loop
      vertex 2.71109 -3.23628 1.7
      vertex 2.90129 -3.20576 2
      vertex 2.71109 -3.23628 2
    endloop
  endfacet
  facet normal 0.158436 -0.987369 0
    outer loop
      vertex 2.90129 -3.20576 2
      vertex 2.71109 -3.23628 1.7
      vertex 2.90129 -3.20576 1.7
    endloop
  endfacet
  facet normal 0.507049 -0.861917 0
    outer loop
      vertex 2.55545 -3.32784 1.7
      vertex 2.71109 -3.23628 2
      vertex 2.55545 -3.32784 2
    endloop
  endfacet
  facet normal 0.507049 -0.861917 0
    outer loop
      vertex 2.71109 -3.23628 2
      vertex 2.55545 -3.32784 1.7
      vertex 2.71109 -3.23628 1.7
    endloop
  endfacet
  facet normal -0.997919 0.0644832 0
    outer loop
      vertex 2.55545 -3.32784 1.7
      vertex 2.58665 -2.845 2
      vertex 2.58665 -2.845 1.7
    endloop
  endfacet
  facet normal -0.997919 0.0644832 0
    outer loop
      vertex 2.58665 -2.845 2
      vertex 2.55545 -3.32784 1.7
      vertex 2.55545 -3.32784 2
    endloop
  endfacet
  facet normal 0 1 -0
    outer loop
      vertex 3.38956 -2.845 1.7
      vertex 2.58665 -2.845 2
      vertex 3.38956 -2.845 2
    endloop
  endfacet
  facet normal 0 1 0
    outer loop
      vertex 2.58665 -2.845 2
      vertex 3.38956 -2.845 1.7
      vertex 2.58665 -2.845 1.7
    endloop
  endfacet
  facet normal -1 0 0
    outer loop
      vertex 3.38956 -2.845 1.7
      vertex 3.38956 -2.56155 2
      vertex 3.38956 -2.56155 1.7
    endloop
  endfacet
  facet normal -1 -0 0
    outer loop
      vertex 3.38956 -2.56155 2
      vertex 3.38956 -2.845 1.7
      vertex 3.38956 -2.845 2
    endloop
  endfacet
  facet normal 0 -1 0
    outer loop
      vertex 2.2408 -2.56155 1.7
      vertex 3.38956 -2.56155 2
      vertex 2.2408 -2.56155 2
    endloop
  endfacet
  facet normal 0 -1 -0
    outer loop
      vertex 3.38956 -2.56155 2
      vertex 2.2408 -2.56155 1.7
      vertex 3.38956 -2.56155 1.7
    endloop
  endfacet
  facet normal 0.998097 -0.0616676 0
    outer loop
      vertex 2.17435 -3.63705 2
      vertex 2.2408 -2.56155 1.7
      vertex 2.2408 -2.56155 2
    endloop
  endfacet
  facet normal 0.998097 -0.0616676 0
    outer loop
      vertex 2.2408 -2.56155 1.7
      vertex 2.17435 -3.63705 2
      vertex 2.17435 -3.63705 1.7
    endloop
  endfacet
  facet normal 0 1 -0
    outer loop
      vertex 2.54596 -3.63705 1.7
      vertex 2.17435 -3.63705 2
      vertex 2.54596 -3.63705 2
    endloop
  endfacet
  facet normal 0 1 0
    outer loop
      vertex 2.17435 -3.63705 2
      vertex 2.54596 -3.63705 1.7
      vertex 2.17435 -3.63705 1.7
    endloop
  endfacet
  facet normal -0.627237 0.778828 0
    outer loop
      vertex 2.66089 -3.54449 1.7
      vertex 2.54596 -3.63705 2
      vertex 2.66089 -3.54449 2
    endloop
  endfacet
  facet normal -0.627237 0.778828 0
    outer loop
      vertex 2.54596 -3.63705 2
      vertex 2.66089 -3.54449 1.7
      vertex 2.54596 -3.63705 1.7
    endloop
  endfacet
  facet normal -0.209344 0.977842 0
    outer loop
      vertex 2.80499 -3.51364 1.7
      vertex 2.66089 -3.54449 2
      vertex 2.80499 -3.51364 2
    endloop
  endfacet
  facet normal -0.209344 0.977842 0
    outer loop
      vertex 2.66089 -3.54449 2
      vertex 2.80499 -3.51364 1.7
      vertex 2.66089 -3.54449 1.7
    endloop
  endfacet
  facet normal 0.173724 0.984794 -0
    outer loop
      vertex 2.93282 -3.53619 1.7
      vertex 2.80499 -3.51364 2
      vertex 2.93282 -3.53619 2
    endloop
  endfacet
  facet normal 0.173724 0.984794 0
    outer loop
      vertex 2.80499 -3.51364 2
      vertex 2.93282 -3.53619 1.7
      vertex 2.80499 -3.51364 1.7
    endloop
  endfacet
  facet normal 0.576248 0.817275 -0
    outer loop
      vertex 3.02878 -3.60385 1.7
      vertex 2.93282 -3.53619 2
      vertex 3.02878 -3.60385 2
    endloop
  endfacet
  facet normal 0.576248 0.817275 0
    outer loop
      vertex 2.93282 -3.53619 2
      vertex 3.02878 -3.60385 1.7
      vertex 2.93282 -3.53619 1.7
    endloop
  endfacet
  facet normal 0.868756 0.495241 0
    outer loop
      vertex 3.08879 -3.70912 2
      vertex 3.02878 -3.60385 1.7
      vertex 3.02878 -3.60385 2
    endloop
  endfacet
  facet normal 0.868756 0.495241 0
    outer loop
      vertex 3.02878 -3.60385 1.7
      vertex 3.08879 -3.70912 2
      vertex 3.08879 -3.70912 1.7
    endloop
  endfacet
  facet normal 0.989263 0.146144 0
    outer loop
      vertex 3.1088 -3.84457 2
      vertex 3.08879 -3.70912 1.7
      vertex 3.08879 -3.70912 2
    endloop
  endfacet
  facet normal 0.989263 0.146144 0
    outer loop
      vertex 3.08879 -3.70912 1.7
      vertex 3.1088 -3.84457 2
      vertex 3.1088 -3.84457 1.7
    endloop
  endfacet
  facet normal 0.990272 -0.139142 0
    outer loop
      vertex 3.0876 -3.99545 2
      vertex 3.1088 -3.84457 1.7
      vertex 3.1088 -3.84457 2
    endloop
  endfacet
  facet normal 0.990272 -0.139142 0
    outer loop
      vertex 3.1088 -3.84457 1.7
      vertex 3.0876 -3.99545 2
      vertex 3.0876 -3.99545 1.7
    endloop
  endfacet
  facet normal 0.867515 -0.497411 0
    outer loop
      vertex 3.02403 -4.10632 2
      vertex 3.0876 -3.99545 1.7
      vertex 3.0876 -3.99545 2
    endloop
  endfacet
  facet normal 0.867515 -0.497411 0
    outer loop
      vertex 3.0876 -3.99545 1.7
      vertex 3.02403 -4.10632 2
      vertex 3.02403 -4.10632 1.7
    endloop
  endfacet
  facet normal 0.566402 -0.824129 0
    outer loop
      vertex 2.92487 -4.17447 1.7
      vertex 3.02403 -4.10632 2
      vertex 2.92487 -4.17447 2
    endloop
  endfacet
  facet normal 0.566402 -0.824129 0
    outer loop
      vertex 3.02403 -4.10632 2
      vertex 2.92487 -4.17447 1.7
      vertex 3.02403 -4.10632 1.7
    endloop
  endfacet
  facet normal 0.174755 -0.984612 0
    outer loop
      vertex 2.79686 -4.19719 1.7
      vertex 2.92487 -4.17447 2
      vertex 2.79686 -4.19719 2
    endloop
  endfacet
  facet normal 0.174755 -0.984612 0
    outer loop
      vertex 2.92487 -4.17447 2
      vertex 2.79686 -4.19719 1.7
      vertex 2.92487 -4.17447 1.7
    endloop
  endfacet
  facet normal -0.130686 -0.991424 0
    outer loop
      vertex 2.69141 -4.18329 1.7
      vertex 2.79686 -4.19719 2
      vertex 2.69141 -4.18329 2
    endloop
  endfacet
  facet normal -0.130686 -0.991424 -0
    outer loop
      vertex 2.79686 -4.19719 2
      vertex 2.69141 -4.18329 1.7
      vertex 2.79686 -4.19719 1.7
    endloop
  endfacet
  facet normal -0.437122 -0.899402 0
    outer loop
      vertex 2.60561 -4.14159 1.7
      vertex 2.69141 -4.18329 2
      vertex 2.60561 -4.14159 2
    endloop
  endfacet
  facet normal -0.437122 -0.899402 -0
    outer loop
      vertex 2.69141 -4.18329 2
      vertex 2.60561 -4.14159 1.7
      vertex 2.69141 -4.18329 1.7
    endloop
  endfacet
  facet normal -0.746399 -0.665498 0
    outer loop
      vertex 2.60561 -4.14159 1.7
      vertex 2.5412 -4.06935 2
      vertex 2.5412 -4.06935 1.7
    endloop
  endfacet
  facet normal -0.746399 -0.665498 0
    outer loop
      vertex 2.5412 -4.06935 2
      vertex 2.60561 -4.14159 1.7
      vertex 2.60561 -4.14159 2
    endloop
  endfacet
  facet normal -0.93097 -0.365095 0
    outer loop
      vertex 2.5412 -4.06935 1.7
      vertex 2.49985 -3.96391 2
      vertex 2.49985 -3.96391 1.7
    endloop
  endfacet
  facet normal -0.93097 -0.365095 0
    outer loop
      vertex 2.49985 -3.96391 2
      vertex 2.5412 -4.06935 1.7
      vertex 2.5412 -4.06935 2
    endloop
  endfacet
  facet normal 0.0815651 -0.996668 0
    outer loop
      vertex 2.11873 -3.9951 1.7
      vertex 2.49985 -3.96391 2
      vertex 2.11873 -3.9951 2
    endloop
  endfacet
  facet normal 0.0815651 -0.996668 0
    outer loop
      vertex 2.49985 -3.96391 2
      vertex 2.11873 -3.9951 1.7
      vertex 2.49985 -3.96391 1.7
    endloop
  endfacet
  facet normal 0.946568 0.322504 0
    outer loop
      vertex 2.19249 -4.21159 2
      vertex 2.11873 -3.9951 1.7
      vertex 2.11873 -3.9951 2
    endloop
  endfacet
  facet normal 0.946568 0.322504 0
    outer loop
      vertex 2.11873 -3.9951 1.7
      vertex 2.19249 -4.21159 2
      vertex 2.19249 -4.21159 1.7
    endloop
  endfacet
  facet normal 0.749842 0.661617 0
    outer loop
      vertex 2.33235 -4.3701 2
      vertex 2.19249 -4.21159 1.7
      vertex 2.19249 -4.21159 2
    endloop
  endfacet
  facet normal 0.749842 0.661617 0
    outer loop
      vertex 2.19249 -4.21159 1.7
      vertex 2.33235 -4.3701 2
      vertex 2.33235 -4.3701 1.7
    endloop
  endfacet
  facet normal 0.43417 0.900831 -0
    outer loop
      vertex 2.53392 -4.46725 1.7
      vertex 2.33235 -4.3701 2
      vertex 2.53392 -4.46725 2
    endloop
  endfacet
  facet normal 0.43417 0.900831 0
    outer loop
      vertex 2.33235 -4.3701 2
      vertex 2.53392 -4.46725 1.7
      vertex 2.33235 -4.3701 1.7
    endloop
  endfacet
  facet normal 0.124115 0.992268 -0
    outer loop
      vertex 2.79279 -4.49963 1.7
      vertex 2.53392 -4.46725 2
      vertex 2.79279 -4.49963 2
    endloop
  endfacet
  facet normal 0.124115 0.992268 0
    outer loop
      vertex 2.53392 -4.46725 2
      vertex 2.79279 -4.49963 1.7
      vertex 2.53392 -4.46725 1.7
    endloop
  endfacet
  facet normal -0.150829 0.98856 0
    outer loop
      vertex 3.08727 -4.4547 1.7
      vertex 2.79279 -4.49963 2
      vertex 3.08727 -4.4547 2
    endloop
  endfacet
  facet normal -0.150829 0.98856 0
    outer loop
      vertex 2.79279 -4.49963 2
      vertex 3.08727 -4.4547 1.7
      vertex 2.79279 -4.49963 1.7
    endloop
  endfacet
  facet normal 0 -1 0
    outer loop
      vertex -2.86618 -3.00505 1.7
      vertex -2.46745 -3.00505 2
      vertex -2.86618 -3.00505 2
    endloop
  endfacet
  facet normal 0 -1 -0
    outer loop
      vertex -2.46745 -3.00505 2
      vertex -2.86618 -3.00505 1.7
      vertex -2.46745 -3.00505 1.7
    endloop
  endfacet
  facet normal 0.950779 -0.309869 0
    outer loop
      vertex -3.07912 -3.65842 2
      vertex -2.86618 -3.00505 1.7
      vertex -2.86618 -3.00505 2
    endloop
  endfacet
  facet normal 0.950779 -0.309869 0
    outer loop
      vertex -2.86618 -3.00505 1.7
      vertex -3.07912 -3.65842 2
      vertex -3.07912 -3.65842 1.7
    endloop
  endfacet
  facet normal 0.952857 -0.30342 0
    outer loop
      vertex -3.17813 -3.96935 2
      vertex -3.07912 -3.65842 1.7
      vertex -3.07912 -3.65842 2
    endloop
  endfacet
  facet normal 0.952857 -0.30342 0
    outer loop
      vertex -3.07912 -3.65842 1.7
      vertex -3.17813 -3.96935 2
      vertex -3.17813 -3.96935 1.7
    endloop
  endfacet
  facet normal 0.959344 -0.282241 0
    outer loop
      vertex -3.21304 -4.08801 2
      vertex -3.17813 -3.96935 1.7
      vertex -3.17813 -3.96935 2
    endloop
  endfacet
  facet normal 0.959344 -0.282241 0
    outer loop
      vertex -3.17813 -3.96935 1.7
      vertex -3.21304 -4.08801 2
      vertex -3.21304 -4.08801 1.7
    endloop
  endfacet
  facet normal 0.965429 -0.260665 0
    outer loop
      vertex -3.23373 -4.16464 2
      vertex -3.21304 -4.08801 1.7
      vertex -3.21304 -4.08801 2
    endloop
  endfacet
  facet normal 0.965429 -0.260665 0
    outer loop
      vertex -3.21304 -4.08801 1.7
      vertex -3.23373 -4.16464 2
      vertex -3.23373 -4.16464 1.7
    endloop
  endfacet
  facet normal -0.96258 -0.270999 0
    outer loop
      vertex -3.23373 -4.16464 1.7
      vertex -3.29578 -3.94424 2
      vertex -3.29578 -3.94424 1.7
    endloop
  endfacet
  facet normal -0.96258 -0.270999 0
    outer loop
      vertex -3.29578 -3.94424 2
      vertex -3.23373 -4.16464 1.7
      vertex -3.23373 -4.16464 2
    endloop
  endfacet
  facet normal -0.96079 -0.277276 0
    outer loop
      vertex -3.29578 -3.94424 1.7
      vertex -3.33003 -3.82556 2
      vertex -3.33003 -3.82556 1.7
    endloop
  endfacet
  facet normal -0.96079 -0.277276 0
    outer loop
      vertex -3.33003 -3.82556 2
      vertex -3.29578 -3.94424 1.7
      vertex -3.29578 -3.94424 2
    endloop
  endfacet
  facet normal -0.95451 -0.29818 0
    outer loop
      vertex -3.33003 -3.82556 1.7
      vertex -3.58635 -3.00505 2
      vertex -3.58635 -3.00505 1.7
    endloop
  endfacet
  facet normal -0.95451 -0.29818 0
    outer loop
      vertex -3.58635 -3.00505 2
      vertex -3.33003 -3.82556 1.7
      vertex -3.33003 -3.82556 2
    endloop
  endfacet
  facet normal 0 -1 0
    outer loop
      vertex -3.98915 -3.00505 1.7
      vertex -3.58635 -3.00505 2
      vertex -3.98915 -3.00505 2
    endloop
  endfacet
  facet normal 0 -1 -0
    outer loop
      vertex -3.58635 -3.00505 2
      vertex -3.98915 -3.00505 1.7
      vertex -3.58635 -3.00505 1.7
    endloop
  endfacet
  facet normal 0.941585 0.336775 0
    outer loop
      vertex -3.46429 -4.4725 2
      vertex -3.98915 -3.00505 1.7
      vertex -3.98915 -3.00505 2
    endloop
  endfacet
  facet normal 0.941585 0.336775 0
    outer loop
      vertex -3.98915 -3.00505 1.7
      vertex -3.46429 -4.4725 2
      vertex -3.46429 -4.4725 1.7
    endloop
  endfacet
  facet normal 0 1 -0
    outer loop
      vertex -3.00859 -4.4725 1.7
      vertex -3.46429 -4.4725 2
      vertex -3.00859 -4.4725 2
    endloop
  endfacet
  facet normal 0 1 0
    outer loop
      vertex -3.46429 -4.4725 2
      vertex -3.00859 -4.4725 1.7
      vertex -3.46429 -4.4725 1.7
    endloop
  endfacet
  facet normal -0.938239 0.345987 0
    outer loop
      vertex -3.00859 -4.4725 1.7
      vertex -2.46745 -3.00505 2
      vertex -2.46745 -3.00505 1.7
    endloop
  endfacet
  facet normal -0.938239 0.345987 0
    outer loop
      vertex -2.46745 -3.00505 2
      vertex -3.00859 -4.4725 1.7
      vertex -3.00859 -4.4725 2
    endloop
  endfacet
  facet normal 0 -1 0
    outer loop
      vertex -0.794189 -4.05885 1.7
      vertex -0.402222 -4.05885 2
      vertex -0.794189 -4.05885 2
    endloop
  endfacet
  facet normal 0 -1 -0
    outer loop
      vertex -0.402222 -4.05885 2
      vertex -0.794189 -4.05885 1.7
      vertex -0.402222 -4.05885 1.7
    endloop
  endfacet
  facet normal 1 -0 0
    outer loop
      vertex -0.794189 -4.4725 2
      vertex -0.794189 -4.05885 1.7
      vertex -0.794189 -4.05885 2
    endloop
  endfacet
  facet normal 1 0 0
    outer loop
      vertex -0.794189 -4.05885 1.7
      vertex -0.794189 -4.4725 2
      vertex -0.794189 -4.4725 1.7
    endloop
  endfacet
  facet normal 0 1 -0
    outer loop
      vertex -0.402222 -4.4725 1.7
      vertex -0.794189 -4.4725 2
      vertex -0.402222 -4.4725 2
    endloop
  endfacet
  facet normal 0 1 0
    outer loop
      vertex -0.794189 -4.4725 2
      vertex -0.402222 -4.4725 1.7
      vertex -0.794189 -4.4725 1.7
    endloop
  endfacet
  facet normal -1 0 0
    outer loop
      vertex -0.402222 -4.4725 1.7
      vertex -0.402222 -4.05885 2
      vertex -0.402222 -4.05885 1.7
    endloop
  endfacet
  facet normal -1 -0 0
    outer loop
      vertex -0.402222 -4.05885 2
      vertex -0.402222 -4.4725 1.7
      vertex -0.402222 -4.4725 2
    endloop
  endfacet
  facet normal 0 -1 0
    outer loop
      vertex 1.46814 -4.05885 1.7
      vertex 1.86011 -4.05885 2
      vertex 1.46814 -4.05885 2
    endloop
  endfacet
  facet normal 0 -1 -0
    outer loop
      vertex 1.86011 -4.05885 2
      vertex 1.46814 -4.05885 1.7
      vertex 1.86011 -4.05885 1.7
    endloop
  endfacet
  facet normal 1 -0 0
    outer loop
      vertex 1.46814 -4.4725 2
      vertex 1.46814 -4.05885 1.7
      vertex 1.46814 -4.05885 2
    endloop
  endfacet
  facet normal 1 0 0
    outer loop
      vertex 1.46814 -4.05885 1.7
      vertex 1.46814 -4.4725 2
      vertex 1.46814 -4.4725 1.7
    endloop
  endfacet
  facet normal 0 1 -0
    outer loop
      vertex 1.86011 -4.4725 1.7
      vertex 1.46814 -4.4725 2
      vertex 1.86011 -4.4725 2
    endloop
  endfacet
  facet normal 0 1 0
    outer loop
      vertex 1.46814 -4.4725 2
      vertex 1.86011 -4.4725 1.7
      vertex 1.46814 -4.4725 1.7
    endloop
  endfacet
  facet normal -1 0 0
    outer loop
      vertex 1.86011 -4.4725 1.7
      vertex 1.86011 -4.05885 2
      vertex 1.86011 -4.05885 1.7
    endloop
  endfacet
  facet normal -1 -0 0
    outer loop
      vertex 1.86011 -4.05885 2
      vertex 1.86011 -4.4725 1.7
      vertex 1.86011 -4.4725 2
    endloop
  endfacet
endsolid OpenSCAD_Model
