solid OpenSCAD_Model
  facet normal -0 0 1
    outer loop
      vertex -37 7 10
      vertex 37 5 10
      vertex 37 7 10
    endloop
  endfacet
  facet normal 0 0 1
    outer loop
      vertex 37 5 10
      vertex -37 7 10
      vertex -37 5 10
    endloop
  endfacet
  facet normal -0 0 1
    outer loop
      vertex -37 -5 10
      vertex 37 -7 10
      vertex 37 -5 10
    endloop
  endfacet
  facet normal 0 0 1
    outer loop
      vertex 37 -7 10
      vertex -37 -5 10
      vertex -37 -7 10
    endloop
  endfacet
  facet normal 0 0 -1
    outer loop
      vertex -37 -7 0
      vertex 37 7 0
      vertex 37 -7 0
    endloop
  endfacet
  facet normal -0 0 -1
    outer loop
      vertex 37 7 0
      vertex -37 -7 0
      vertex -37 7 0
    endloop
  endfacet
  facet normal 0 1 -0
    outer loop
      vertex 37 7 0
      vertex -37 7 10
      vertex 37 7 10
    endloop
  endfacet
  facet normal 0 1 0
    outer loop
      vertex -37 7 10
      vertex 37 7 0
      vertex -37 7 0
    endloop
  endfacet
  facet normal 0 -1 0
    outer loop
      vertex -37 -7 0
      vertex 37 -7 10
      vertex -37 -7 10
    endloop
  endfacet
  facet normal 0 -1 -0
    outer loop
      vertex 37 -7 10
      vertex -37 -7 0
      vertex 37 -7 0
    endloop
  endfacet
  facet normal -0 0 1
    outer loop
      vertex -37 5 2
      vertex 37 -5 2
      vertex 37 5 2
    endloop
  endfacet
  facet normal 0 0 1
    outer loop
      vertex 37 -5 2
      vertex -37 5 2
      vertex -37 -5 2
    endloop
  endfacet
  facet normal 0 -1 0
    outer loop
      vertex -37 5 2
      vertex 37 5 10
      vertex -37 5 10
    endloop
  endfacet
  facet normal 0 -1 -0
    outer loop
      vertex 37 5 10
      vertex -37 5 2
      vertex 37 5 2
    endloop
  endfacet
  facet normal 0 1 -0
    outer loop
      vertex 37 -5 2
      vertex -37 -5 10
      vertex 37 -5 10
    endloop
  endfacet
  facet normal 0 1 0
    outer loop
      vertex -37 -5 10
      vertex 37 -5 2
      vertex -37 -5 2
    endloop
  endfacet
  facet normal 1 0 0
    outer loop
      vertex 37 -5 10
      vertex 37 -7 10
      vertex 37 -5 2
    endloop
  endfacet
  facet normal 1 0 0
    outer loop
      vertex 37 5 2
      vertex 37 7 10
      vertex 37 5 10
    endloop
  endfacet
  facet normal 1 0 0
    outer loop
      vertex 37 7 10
      vertex 37 5 2
      vertex 37 7 0
    endloop
  endfacet
  facet normal 1 -0 0
    outer loop
      vertex 37 -5 2
      vertex 37 7 0
      vertex 37 5 2
    endloop
  endfacet
  facet normal 1 0 0
    outer loop
      vertex 37 -5 2
      vertex 37 -7 0
      vertex 37 7 0
    endloop
  endfacet
  facet normal 1 0 0
    outer loop
      vertex 37 -7 0
      vertex 37 -5 2
      vertex 37 -7 10
    endloop
  endfacet
  facet normal -1 0 0
    outer loop
      vertex -37 7 0
      vertex -37 5 2
      vertex -37 7 10
    endloop
  endfacet
  facet normal -1 0 0
    outer loop
      vertex -37 7 0
      vertex -37 -5 2
      vertex -37 5 2
    endloop
  endfacet
  facet normal -1 0 0
    outer loop
      vertex -37 -7 0
      vertex -37 -5 2
      vertex -37 7 0
    endloop
  endfacet
  facet normal -1 0 0
    outer loop
      vertex -37 -7 10
      vertex -37 -5 2
      vertex -37 -7 0
    endloop
  endfacet
  facet normal -1 0 0
    outer loop
      vertex -37 -5 2
      vertex -37 -7 10
      vertex -37 -5 10
    endloop
  endfacet
  facet normal -1 -0 0
    outer loop
      vertex -37 7 10
      vertex -37 5 2
      vertex -37 5 10
    endloop
  endfacet
endsolid OpenSCAD_Model
