solid OpenSCAD_Model
  facet normal -0 0 1
    outer loop
      vertex -60 -4.5 10
      vertex 60 -6.5 10
      vertex 60 -4.5 10
    endloop
  endfacet
  facet normal 0 0 1
    outer loop
      vertex 60 -6.5 10
      vertex -60 -4.5 10
      vertex -60 -6.5 10
    endloop
  endfacet
  facet normal 0 0 1
    outer loop
      vertex -6.5 6.5 10
      vertex -4.5 6.5 10
      vertex -4.5 60 10
    endloop
  endfacet
  facet normal 0 0 1
    outer loop
      vertex -6.5 6.5 10
      vertex -4.5 60 10
      vertex -6.5 60 10
    endloop
  endfacet
  facet normal 0 0 1
    outer loop
      vertex -4.5 6.5 10
      vertex -6.5 6.5 10
      vertex -4.5 4.5 10
    endloop
  endfacet
  facet normal 0 0 1
    outer loop
      vertex -6.5 6.5 10
      vertex -6.5 4.5 10
      vertex -4.5 4.5 10
    endloop
  endfacet
  facet normal -0 0 1
    outer loop
      vertex -60 6.5 10
      vertex -6.5 4.5 10
      vertex -6.5 6.5 10
    endloop
  endfacet
  facet normal 0 0 1
    outer loop
      vertex -6.5 4.5 10
      vertex -60 6.5 10
      vertex -60 4.5 10
    endloop
  endfacet
  facet normal 0 0 1
    outer loop
      vertex 4.5 6.5 10
      vertex 6.5 6.5 10
      vertex 6.5 60 10
    endloop
  endfacet
  facet normal 0 0 1
    outer loop
      vertex 4.5 6.5 10
      vertex 6.5 60 10
      vertex 4.5 60 10
    endloop
  endfacet
  facet normal 0 0 1
    outer loop
      vertex 6.5 6.5 10
      vertex 4.5 6.5 10
      vertex 6.5 4.5 10
    endloop
  endfacet
  facet normal 0 0 1
    outer loop
      vertex 6.5 4.5 10
      vertex 4.5 6.5 10
      vertex 4.5 4.5 10
    endloop
  endfacet
  facet normal -0 0 1
    outer loop
      vertex 6.5 6.5 10
      vertex 60 4.5 10
      vertex 60 6.5 10
    endloop
  endfacet
  facet normal 0 0 1
    outer loop
      vertex 60 4.5 10
      vertex 6.5 6.5 10
      vertex 6.5 4.5 10
    endloop
  endfacet
  facet normal 0 0 -1
    outer loop
      vertex 60 -6.5 0
      vertex 6.5 6.5 0
      vertex 60 6.5 0
    endloop
  endfacet
  facet normal 0 0 -1
    outer loop
      vertex 6.5 6.5 0
      vertex -6.5 6.5 0
      vertex 6.5 60 0
    endloop
  endfacet
  facet normal 0 0 -1
    outer loop
      vertex 60 -6.5 0
      vertex -6.5 6.5 0
      vertex 6.5 6.5 0
    endloop
  endfacet
  facet normal 0 0 -1
    outer loop
      vertex -60 -6.5 0
      vertex -6.5 6.5 0
      vertex 60 -6.5 0
    endloop
  endfacet
  facet normal -0 0 -1
    outer loop
      vertex -6.5 6.5 0
      vertex -60 -6.5 0
      vertex -60 6.5 0
    endloop
  endfacet
  facet normal -0 0 -1
    outer loop
      vertex 6.5 60 0
      vertex -6.5 6.5 0
      vertex -6.5 60 0
    endloop
  endfacet
  facet normal 0 1 -0
    outer loop
      vertex -6.5 6.5 0
      vertex -60 6.5 10
      vertex -6.5 6.5 10
    endloop
  endfacet
  facet normal 0 1 0
    outer loop
      vertex -60 6.5 10
      vertex -6.5 6.5 0
      vertex -60 6.5 0
    endloop
  endfacet
  facet normal 0 -1 0
    outer loop
      vertex -60 -6.5 0
      vertex 60 -6.5 10
      vertex -60 -6.5 10
    endloop
  endfacet
  facet normal 0 -1 -0
    outer loop
      vertex 60 -6.5 10
      vertex -60 -6.5 0
      vertex 60 -6.5 0
    endloop
  endfacet
  facet normal 0 0 1
    outer loop
      vertex -4.5 6.5 2
      vertex 4.5 6.5 2
      vertex 4.5 60 2
    endloop
  endfacet
  facet normal 0 0 1
    outer loop
      vertex -4.5 6.5 2
      vertex 4.5 60 2
      vertex -4.5 60 2
    endloop
  endfacet
  facet normal -0 0 1
    outer loop
      vertex 6.5 4.5 2
      vertex 60 -4.5 2
      vertex 60 4.5 2
    endloop
  endfacet
  facet normal -0 0 1
    outer loop
      vertex 4.5 4.5 2
      vertex 60 -4.5 2
      vertex 6.5 4.5 2
    endloop
  endfacet
  facet normal 0 0 1
    outer loop
      vertex 4.5 6.5 2
      vertex -4.5 6.5 2
      vertex 4.5 4.5 2
    endloop
  endfacet
  facet normal 0 0 1
    outer loop
      vertex -4.5 4.5 2
      vertex 4.5 4.5 2
      vertex -4.5 6.5 2
    endloop
  endfacet
  facet normal -0 0 1
    outer loop
      vertex -4.5 4.5 2
      vertex 60 -4.5 2
      vertex 4.5 4.5 2
    endloop
  endfacet
  facet normal 0 0 1
    outer loop
      vertex -60 -4.5 2
      vertex -4.5 4.5 2
      vertex -6.5 4.5 2
    endloop
  endfacet
  facet normal 0 0 1
    outer loop
      vertex -60 -4.5 2
      vertex -6.5 4.5 2
      vertex -60 4.5 2
    endloop
  endfacet
  facet normal 0 0 1
    outer loop
      vertex -4.5 4.5 2
      vertex -60 -4.5 2
      vertex 60 -4.5 2
    endloop
  endfacet
  facet normal 1 -0 0
    outer loop
      vertex -4.5 4.5 10
      vertex -4.5 6.5 2
      vertex -4.5 6.5 10
    endloop
  endfacet
  facet normal 1 0 0
    outer loop
      vertex -4.5 6.5 2
      vertex -4.5 4.5 10
      vertex -4.5 4.5 2
    endloop
  endfacet
  facet normal 1 -0 0
    outer loop
      vertex -4.5 6.5 10
      vertex -4.5 60 2
      vertex -4.5 60 10
    endloop
  endfacet
  facet normal 1 0 0
    outer loop
      vertex -4.5 60 2
      vertex -4.5 6.5 10
      vertex -4.5 6.5 2
    endloop
  endfacet
  facet normal 0 -1 0
    outer loop
      vertex 4.5 4.5 2
      vertex 6.5 4.5 10
      vertex 4.5 4.5 10
    endloop
  endfacet
  facet normal 0 -1 -0
    outer loop
      vertex 6.5 4.5 10
      vertex 4.5 4.5 2
      vertex 6.5 4.5 2
    endloop
  endfacet
  facet normal 0 -1 0
    outer loop
      vertex -60 4.5 2
      vertex -6.5 4.5 10
      vertex -60 4.5 10
    endloop
  endfacet
  facet normal 0 -1 -0
    outer loop
      vertex -6.5 4.5 10
      vertex -60 4.5 2
      vertex -6.5 4.5 2
    endloop
  endfacet
  facet normal 0 -1 0
    outer loop
      vertex -6.5 4.5 2
      vertex -4.5 4.5 10
      vertex -6.5 4.5 10
    endloop
  endfacet
  facet normal 0 -1 -0
    outer loop
      vertex -4.5 4.5 10
      vertex -6.5 4.5 2
      vertex -4.5 4.5 2
    endloop
  endfacet
  facet normal 0 -1 0
    outer loop
      vertex 6.5 4.5 2
      vertex 60 4.5 10
      vertex 6.5 4.5 10
    endloop
  endfacet
  facet normal 0 -1 -0
    outer loop
      vertex 60 4.5 10
      vertex 6.5 4.5 2
      vertex 60 4.5 2
    endloop
  endfacet
  facet normal 0 1 -0
    outer loop
      vertex 60 -4.5 2
      vertex -60 -4.5 10
      vertex 60 -4.5 10
    endloop
  endfacet
  facet normal 0 1 0
    outer loop
      vertex -60 -4.5 10
      vertex 60 -4.5 2
      vertex -60 -4.5 2
    endloop
  endfacet
  facet normal -1 0 0
    outer loop
      vertex 4.5 4.5 2
      vertex 4.5 6.5 10
      vertex 4.5 6.5 2
    endloop
  endfacet
  facet normal -1 -0 0
    outer loop
      vertex 4.5 6.5 10
      vertex 4.5 4.5 2
      vertex 4.5 4.5 10
    endloop
  endfacet
  facet normal -1 0 0
    outer loop
      vertex 4.5 6.5 2
      vertex 4.5 60 10
      vertex 4.5 60 2
    endloop
  endfacet
  facet normal -1 -0 0
    outer loop
      vertex 4.5 60 10
      vertex 4.5 6.5 2
      vertex 4.5 6.5 10
    endloop
  endfacet
  facet normal 1 0 0
    outer loop
      vertex 60 -4.5 10
      vertex 60 -6.5 10
      vertex 60 -4.5 2
    endloop
  endfacet
  facet normal 1 0 0
    outer loop
      vertex 60 4.5 2
      vertex 60 6.5 10
      vertex 60 4.5 10
    endloop
  endfacet
  facet normal 1 0 0
    outer loop
      vertex 60 6.5 10
      vertex 60 4.5 2
      vertex 60 6.5 0
    endloop
  endfacet
  facet normal 1 -0 0
    outer loop
      vertex 60 -4.5 2
      vertex 60 6.5 0
      vertex 60 4.5 2
    endloop
  endfacet
  facet normal 1 0 0
    outer loop
      vertex 60 -4.5 2
      vertex 60 -6.5 0
      vertex 60 6.5 0
    endloop
  endfacet
  facet normal 1 0 0
    outer loop
      vertex 60 -6.5 0
      vertex 60 -4.5 2
      vertex 60 -6.5 10
    endloop
  endfacet
  facet normal 0 1 -0
    outer loop
      vertex 60 6.5 0
      vertex 6.5 6.5 10
      vertex 60 6.5 10
    endloop
  endfacet
  facet normal 0 1 0
    outer loop
      vertex 6.5 6.5 10
      vertex 60 6.5 0
      vertex 6.5 6.5 0
    endloop
  endfacet
  facet normal 0 1 0
    outer loop
      vertex 6.5 60 10
      vertex 4.5 60 2
      vertex 4.5 60 10
    endloop
  endfacet
  facet normal 0 1 0
    outer loop
      vertex 4.5 60 2
      vertex 6.5 60 0
      vertex -4.5 60 2
    endloop
  endfacet
  facet normal 0 1 -0
    outer loop
      vertex 6.5 60 0
      vertex 4.5 60 2
      vertex 6.5 60 10
    endloop
  endfacet
  facet normal 0 1 -0
    outer loop
      vertex -4.5 60 2
      vertex -6.5 60 10
      vertex -4.5 60 10
    endloop
  endfacet
  facet normal 0 1 0
    outer loop
      vertex -4.5 60 2
      vertex -6.5 60 0
      vertex -6.5 60 10
    endloop
  endfacet
  facet normal 0 1 0
    outer loop
      vertex -6.5 60 0
      vertex -4.5 60 2
      vertex 6.5 60 0
    endloop
  endfacet
  facet normal -1 0 0
    outer loop
      vertex -6.5 6.5 0
      vertex -6.5 60 10
      vertex -6.5 60 0
    endloop
  endfacet
  facet normal -1 -0 0
    outer loop
      vertex -6.5 60 10
      vertex -6.5 6.5 0
      vertex -6.5 6.5 10
    endloop
  endfacet
  facet normal 1 -0 0
    outer loop
      vertex 6.5 6.5 10
      vertex 6.5 60 0
      vertex 6.5 60 10
    endloop
  endfacet
  facet normal 1 0 0
    outer loop
      vertex 6.5 60 0
      vertex 6.5 6.5 10
      vertex 6.5 6.5 0
    endloop
  endfacet
  facet normal -1 0 0
    outer loop
      vertex -60 6.5 0
      vertex -60 4.5 2
      vertex -60 6.5 10
    endloop
  endfacet
  facet normal -1 0 0
    outer loop
      vertex -60 6.5 0
      vertex -60 -4.5 2
      vertex -60 4.5 2
    endloop
  endfacet
  facet normal -1 0 0
    outer loop
      vertex -60 -6.5 0
      vertex -60 -4.5 2
      vertex -60 6.5 0
    endloop
  endfacet
  facet normal -1 0 0
    outer loop
      vertex -60 -6.5 10
      vertex -60 -4.5 2
      vertex -60 -6.5 0
    endloop
  endfacet
  facet normal -1 0 0
    outer loop
      vertex -60 -4.5 2
      vertex -60 -6.5 10
      vertex -60 -4.5 10
    endloop
  endfacet
  facet normal -1 -0 0
    outer loop
      vertex -60 6.5 10
      vertex -60 4.5 2
      vertex -60 4.5 10
    endloop
  endfacet
endsolid OpenSCAD_Model
