solid OpenSCAD_Model
  facet normal 0 0 1
    outer loop
      vertex -7 7 10
      vertex -5 57 10
      vertex -7 57 10
    endloop
  endfacet
  facet normal 0 0 1
    outer loop
      vertex -5 57 10
      vertex -7 7 10
      vertex -5 5 10
    endloop
  endfacet
  facet normal 0 0 1
    outer loop
      vertex -57 5 10
      vertex -7 7 10
      vertex -57 7 10
    endloop
  endfacet
  facet normal 0 0 1
    outer loop
      vertex -7 7 10
      vertex -57 5 10
      vertex -5 5 10
    endloop
  endfacet
  facet normal -0 0 1
    outer loop
      vertex -57 -5 10
      vertex 57 -7 10
      vertex 57 -5 10
    endloop
  endfacet
  facet normal 0 0 1
    outer loop
      vertex 57 -7 10
      vertex -57 -5 10
      vertex -57 -7 10
    endloop
  endfacet
  facet normal 0 0 1
    outer loop
      vertex 7 57 10
      vertex 5 57 10
      vertex 7 7 10
    endloop
  endfacet
  facet normal -0 0 1
    outer loop
      vertex 7 7 10
      vertex 57 5 10
      vertex 57 7 10
    endloop
  endfacet
  facet normal 0 0 1
    outer loop
      vertex 7 7 10
      vertex 5 5 10
      vertex 57 5 10
    endloop
  endfacet
  facet normal 0 0 1
    outer loop
      vertex 5 5 10
      vertex 7 7 10
      vertex 5 57 10
    endloop
  endfacet
  facet normal 0 0 -1
    outer loop
      vertex 2.28386 1.01684 0
      vertex 7 7 0
      vertex 2.44537 0.519779 0
    endloop
  endfacet
  facet normal 0 0 -1
    outer loop
      vertex 7 7 0
      vertex 2.44537 39.4802 0
      vertex 2.5 40 0
    endloop
  endfacet
  facet normal 0 0 -1
    outer loop
      vertex 2.02254 1.46946 0
      vertex 7 7 0
      vertex 2.28386 1.01684 0
    endloop
  endfacet
  facet normal 0 0 -1
    outer loop
      vertex 7 7 0
      vertex 2.28386 38.9832 0
      vertex 2.44537 39.4802 0
    endloop
  endfacet
  facet normal 0 0 -1
    outer loop
      vertex 1.67283 1.85786 0
      vertex 7 7 0
      vertex 2.02254 1.46946 0
    endloop
  endfacet
  facet normal 0 0 -1
    outer loop
      vertex 7 7 0
      vertex 2.02254 38.5305 0
      vertex 2.28386 38.9832 0
    endloop
  endfacet
  facet normal 0 0 -1
    outer loop
      vertex 1.25 2.16506 0
      vertex 7 7 0
      vertex 1.67283 1.85786 0
    endloop
  endfacet
  facet normal 0 0 -1
    outer loop
      vertex 7 7 0
      vertex 1.67283 38.1421 0
      vertex 2.02254 38.5305 0
    endloop
  endfacet
  facet normal 0 0 -1
    outer loop
      vertex 0.772542 2.37764 0
      vertex 7 7 0
      vertex 1.25 2.16506 0
    endloop
  endfacet
  facet normal 0 0 -1
    outer loop
      vertex 7 7 0
      vertex 1.25 37.8349 0
      vertex 1.67283 38.1421 0
    endloop
  endfacet
  facet normal 0 0 -1
    outer loop
      vertex 0.261321 2.4863 0
      vertex 7 7 0
      vertex 0.772542 2.37764 0
    endloop
  endfacet
  facet normal 0 0 -1
    outer loop
      vertex 7 7 0
      vertex 0.772542 37.6224 0
      vertex 1.25 37.8349 0
    endloop
  endfacet
  facet normal -0 0 -1
    outer loop
      vertex 7 7 0
      vertex 0.261321 2.4863 0
      vertex -7 7 0
    endloop
  endfacet
  facet normal 0 -0 -1
    outer loop
      vertex 0.261321 37.5137 0
      vertex 7 7 0
      vertex -7 7 0
    endloop
  endfacet
  facet normal 0 0 -1
    outer loop
      vertex -7 7 0
      vertex 0.261321 2.4863 0
      vertex -0.261322 2.4863 0
    endloop
  endfacet
  facet normal 0 0 -1
    outer loop
      vertex 7 7 0
      vertex 0.261321 37.5137 0
      vertex 0.772542 37.6224 0
    endloop
  endfacet
  facet normal 0 0 -1
    outer loop
      vertex -7 7 0
      vertex -0.261322 2.4863 0
      vertex -0.772543 2.37764 0
    endloop
  endfacet
  facet normal -0 0 -1
    outer loop
      vertex 0.261321 37.5137 0
      vertex -7 7 0
      vertex -0.261322 37.5137 0
    endloop
  endfacet
  facet normal 0 0 -1
    outer loop
      vertex -7 7 0
      vertex -0.772543 2.37764 0
      vertex -1.25 2.16506 0
    endloop
  endfacet
  facet normal -0 0 -1
    outer loop
      vertex -0.261322 37.5137 0
      vertex -7 7 0
      vertex -0.772543 37.6224 0
    endloop
  endfacet
  facet normal 0 0 -1
    outer loop
      vertex -7 7 0
      vertex -1.25 2.16506 0
      vertex -1.67283 1.85786 0
    endloop
  endfacet
  facet normal -0 0 -1
    outer loop
      vertex -0.772543 37.6224 0
      vertex -7 7 0
      vertex -1.25 37.8349 0
    endloop
  endfacet
  facet normal 0 0 -1
    outer loop
      vertex -7 7 0
      vertex -1.67283 1.85786 0
      vertex -2.02254 1.46946 0
    endloop
  endfacet
  facet normal -0 0 -1
    outer loop
      vertex -1.25 37.8349 0
      vertex -7 7 0
      vertex -1.67283 38.1421 0
    endloop
  endfacet
  facet normal 0 0 -1
    outer loop
      vertex -7 7 0
      vertex -2.02254 1.46946 0
      vertex -2.28386 1.01684 0
    endloop
  endfacet
  facet normal -0 0 -1
    outer loop
      vertex -1.67283 38.1421 0
      vertex -7 7 0
      vertex -2.02254 38.5305 0
    endloop
  endfacet
  facet normal 0 0 -1
    outer loop
      vertex -7 7 0
      vertex -2.28386 1.01684 0
      vertex -2.44537 0.519779 0
    endloop
  endfacet
  facet normal -0 0 -1
    outer loop
      vertex -2.02254 38.5305 0
      vertex -7 7 0
      vertex -2.28386 38.9832 0
    endloop
  endfacet
  facet normal 0 0 -1
    outer loop
      vertex -7 7 0
      vertex -2.44537 0.519779 0
      vertex -2.5 0 0
    endloop
  endfacet
  facet normal -0 0 -1
    outer loop
      vertex -2.28386 38.9832 0
      vertex -7 7 0
      vertex -2.44537 39.4802 0
    endloop
  endfacet
  facet normal 0 0 -1
    outer loop
      vertex 57 -7 0
      vertex 42.5 0 0
      vertex 57 7 0
    endloop
  endfacet
  facet normal 0 0 -1
    outer loop
      vertex 57 -7 0
      vertex 42.4454 -0.51978 0
      vertex 42.5 0 0
    endloop
  endfacet
  facet normal 0 0 -1
    outer loop
      vertex 57 -7 0
      vertex 42.2839 -1.01684 0
      vertex 42.4454 -0.51978 0
    endloop
  endfacet
  facet normal 0 0 -1
    outer loop
      vertex 57 -7 0
      vertex 42.0225 -1.46946 0
      vertex 42.2839 -1.01684 0
    endloop
  endfacet
  facet normal 0 0 -1
    outer loop
      vertex 57 -7 0
      vertex 41.6728 -1.85786 0
      vertex 42.0225 -1.46946 0
    endloop
  endfacet
  facet normal 0 0 -1
    outer loop
      vertex 57 -7 0
      vertex 41.25 -2.16506 0
      vertex 41.6728 -1.85786 0
    endloop
  endfacet
  facet normal 0 0 -1
    outer loop
      vertex 57 -7 0
      vertex 40.7725 -2.37764 0
      vertex 41.25 -2.16506 0
    endloop
  endfacet
  facet normal 0 0 -1
    outer loop
      vertex 57 -7 0
      vertex 40.2613 -2.48631 0
      vertex 40.7725 -2.37764 0
    endloop
  endfacet
  facet normal 0 0 -1
    outer loop
      vertex 57 -7 0
      vertex 39.7387 -2.48631 0
      vertex 40.2613 -2.48631 0
    endloop
  endfacet
  facet normal 0 0 -1
    outer loop
      vertex 0.261321 -2.48631 0
      vertex 39.7387 -2.48631 0
      vertex 57 -7 0
    endloop
  endfacet
  facet normal 0 0 -1
    outer loop
      vertex 37.5546 -0.51978 0
      vertex 7 7 0
      vertex 37.5 0 0
    endloop
  endfacet
  facet normal 0 0 -1
    outer loop
      vertex 2.44537 -0.51978 0
      vertex 37.5546 -0.51978 0
      vertex 37.7161 -1.01684 0
    endloop
  endfacet
  facet normal 0 0 -1
    outer loop
      vertex 2.28386 -1.01684 0
      vertex 37.7161 -1.01684 0
      vertex 37.9775 -1.46946 0
    endloop
  endfacet
  facet normal 0 0 -1
    outer loop
      vertex 2.02254 -1.46946 0
      vertex 37.9775 -1.46946 0
      vertex 38.3272 -1.85786 0
    endloop
  endfacet
  facet normal 0 0 -1
    outer loop
      vertex 1.67283 -1.85786 0
      vertex 38.3272 -1.85786 0
      vertex 38.75 -2.16506 0
    endloop
  endfacet
  facet normal 0 0 -1
    outer loop
      vertex 1.25 -2.16506 0
      vertex 38.75 -2.16506 0
      vertex 39.2275 -2.37764 0
    endloop
  endfacet
  facet normal 0 0 -1
    outer loop
      vertex 2.44537 0.519779 0
      vertex 7 7 0
      vertex 2.5 0 0
    endloop
  endfacet
  facet normal 0 0 -1
    outer loop
      vertex 37.5546 -0.51978 0
      vertex 2.44537 -0.51978 0
      vertex 7 7 0
    endloop
  endfacet
  facet normal 0 0 -1
    outer loop
      vertex 39.7387 -2.48631 0
      vertex 0.261321 -2.48631 0
      vertex 39.2275 -2.37764 0
    endloop
  endfacet
  facet normal 0 0 -1
    outer loop
      vertex 7 7 0
      vertex 2.44537 -0.51978 0
      vertex 2.5 0 0
    endloop
  endfacet
  facet normal 0 0 -1
    outer loop
      vertex 37.7161 -1.01684 0
      vertex 2.28386 -1.01684 0
      vertex 2.44537 -0.51978 0
    endloop
  endfacet
  facet normal 0 0 -1
    outer loop
      vertex 37.9775 -1.46946 0
      vertex 2.02254 -1.46946 0
      vertex 2.28386 -1.01684 0
    endloop
  endfacet
  facet normal 0 0 -1
    outer loop
      vertex 38.3272 -1.85786 0
      vertex 1.67283 -1.85786 0
      vertex 2.02254 -1.46946 0
    endloop
  endfacet
  facet normal 0 0 -1
    outer loop
      vertex 38.75 -2.16506 0
      vertex 1.25 -2.16506 0
      vertex 1.67283 -1.85786 0
    endloop
  endfacet
  facet normal 0 0 -1
    outer loop
      vertex 39.2275 -2.37764 0
      vertex 0.772542 -2.37764 0
      vertex 1.25 -2.16506 0
    endloop
  endfacet
  facet normal -0 0 -1
    outer loop
      vertex 39.2275 -2.37764 0
      vertex 0.261321 -2.48631 0
      vertex 0.772542 -2.37764 0
    endloop
  endfacet
  facet normal 0 0 -1
    outer loop
      vertex 57 -7 0
      vertex -0.261322 -2.48631 0
      vertex 0.261321 -2.48631 0
    endloop
  endfacet
  facet normal 0 0 -1
    outer loop
      vertex -7 57 0
      vertex -2.44537 39.4802 0
      vertex -7 7 0
    endloop
  endfacet
  facet normal 0 0 -1
    outer loop
      vertex -2.44537 -0.51978 0
      vertex -7 7 0
      vertex -2.5 0 0
    endloop
  endfacet
  facet normal 0 0 -1
    outer loop
      vertex -37.5546 -0.51978 0
      vertex -2.44537 -0.51978 0
      vertex -2.28386 -1.01684 0
    endloop
  endfacet
  facet normal 0 0 -1
    outer loop
      vertex -37.7161 -1.01684 0
      vertex -2.28386 -1.01684 0
      vertex -2.02254 -1.46946 0
    endloop
  endfacet
  facet normal 0 0 -1
    outer loop
      vertex -2.44537 -0.51978 0
      vertex -37.5546 -0.51978 0
      vertex -7 7 0
    endloop
  endfacet
  facet normal 0 0 -1
    outer loop
      vertex -37.9775 -1.46946 0
      vertex -2.02254 -1.46946 0
      vertex -1.67283 -1.85786 0
    endloop
  endfacet
  facet normal 0 0 -1
    outer loop
      vertex -38.3272 -1.85786 0
      vertex -1.67283 -1.85786 0
      vertex -1.25 -2.16506 0
    endloop
  endfacet
  facet normal 0 0 -1
    outer loop
      vertex -38.75 -2.16506 0
      vertex -1.25 -2.16506 0
      vertex -0.772543 -2.37764 0
    endloop
  endfacet
  facet normal 0 0 -1
    outer loop
      vertex -39.2275 -2.37764 0
      vertex -0.772543 -2.37764 0
      vertex -0.261322 -2.48631 0
    endloop
  endfacet
  facet normal 0 0 -1
    outer loop
      vertex -57 -7 0
      vertex -0.261322 -2.48631 0
      vertex 57 -7 0
    endloop
  endfacet
  facet normal 0 0 -1
    outer loop
      vertex -7 7 0
      vertex -37.5546 -0.51978 0
      vertex -37.5 0 0
    endloop
  endfacet
  facet normal 0 0 -1
    outer loop
      vertex -2.28386 -1.01684 0
      vertex -37.7161 -1.01684 0
      vertex -37.5546 -0.51978 0
    endloop
  endfacet
  facet normal 0 0 -1
    outer loop
      vertex -2.02254 -1.46946 0
      vertex -37.9775 -1.46946 0
      vertex -37.7161 -1.01684 0
    endloop
  endfacet
  facet normal 0 0 -1
    outer loop
      vertex -1.67283 -1.85786 0
      vertex -38.3272 -1.85786 0
      vertex -37.9775 -1.46946 0
    endloop
  endfacet
  facet normal 0 0 -1
    outer loop
      vertex -1.25 -2.16506 0
      vertex -38.75 -2.16506 0
      vertex -38.3272 -1.85786 0
    endloop
  endfacet
  facet normal 0 0 -1
    outer loop
      vertex -0.772543 -2.37764 0
      vertex -39.2275 -2.37764 0
      vertex -38.75 -2.16506 0
    endloop
  endfacet
  facet normal 0 0 -1
    outer loop
      vertex -0.261322 -2.48631 0
      vertex -39.7387 -2.48631 0
      vertex -39.2275 -2.37764 0
    endloop
  endfacet
  facet normal -0 0 -1
    outer loop
      vertex -0.261322 -2.48631 0
      vertex -57 -7 0
      vertex -39.7387 -2.48631 0
    endloop
  endfacet
  facet normal -0 0 -1
    outer loop
      vertex -42.4454 -0.51978 0
      vertex -57 -7 0
      vertex -42.5 0 0
    endloop
  endfacet
  facet normal -0 0 -1
    outer loop
      vertex -42.2839 -1.01684 0
      vertex -57 -7 0
      vertex -42.4454 -0.51978 0
    endloop
  endfacet
  facet normal -0 0 -1
    outer loop
      vertex -42.0225 -1.46946 0
      vertex -57 -7 0
      vertex -42.2839 -1.01684 0
    endloop
  endfacet
  facet normal -0 0 -1
    outer loop
      vertex -41.6728 -1.85786 0
      vertex -57 -7 0
      vertex -42.0225 -1.46946 0
    endloop
  endfacet
  facet normal -0 0 -1
    outer loop
      vertex -41.25 -2.16506 0
      vertex -57 -7 0
      vertex -41.6728 -1.85786 0
    endloop
  endfacet
  facet normal -0 0 -1
    outer loop
      vertex -40.7725 -2.37764 0
      vertex -57 -7 0
      vertex -41.25 -2.16506 0
    endloop
  endfacet
  facet normal -0 0 -1
    outer loop
      vertex -40.2613 -2.48631 0
      vertex -57 -7 0
      vertex -40.7725 -2.37764 0
    endloop
  endfacet
  facet normal -0 0 -1
    outer loop
      vertex -39.7387 -2.48631 0
      vertex -57 -7 0
      vertex -40.2613 -2.48631 0
    endloop
  endfacet
  facet normal 0 0 -1
    outer loop
      vertex 42.4454 0.519779 0
      vertex 57 7 0
      vertex 42.5 0 0
    endloop
  endfacet
  facet normal 0 0 -1
    outer loop
      vertex 42.2839 1.01684 0
      vertex 57 7 0
      vertex 42.4454 0.519779 0
    endloop
  endfacet
  facet normal 0 0 -1
    outer loop
      vertex 42.0225 1.46946 0
      vertex 57 7 0
      vertex 42.2839 1.01684 0
    endloop
  endfacet
  facet normal 0 0 -1
    outer loop
      vertex 41.6728 1.85786 0
      vertex 57 7 0
      vertex 42.0225 1.46946 0
    endloop
  endfacet
  facet normal 0 0 -1
    outer loop
      vertex 41.25 2.16506 0
      vertex 57 7 0
      vertex 41.6728 1.85786 0
    endloop
  endfacet
  facet normal 0 0 -1
    outer loop
      vertex 40.7725 2.37764 0
      vertex 57 7 0
      vertex 41.25 2.16506 0
    endloop
  endfacet
  facet normal 0 0 -1
    outer loop
      vertex 40.2613 2.4863 0
      vertex 57 7 0
      vertex 40.7725 2.37764 0
    endloop
  endfacet
  facet normal 0 0 -1
    outer loop
      vertex 39.7387 2.4863 0
      vertex 57 7 0
      vertex 40.2613 2.4863 0
    endloop
  endfacet
  facet normal 0 0 -1
    outer loop
      vertex 7 7 0
      vertex 39.7387 2.4863 0
      vertex 39.2275 2.37764 0
    endloop
  endfacet
  facet normal 0 0 -1
    outer loop
      vertex 39.7387 2.4863 0
      vertex 7 7 0
      vertex 57 7 0
    endloop
  endfacet
  facet normal 0 0 -1
    outer loop
      vertex 38.75 2.16506 0
      vertex 7 7 0
      vertex 39.2275 2.37764 0
    endloop
  endfacet
  facet normal 0 0 -1
    outer loop
      vertex 38.3272 1.85786 0
      vertex 7 7 0
      vertex 38.75 2.16506 0
    endloop
  endfacet
  facet normal 0 0 -1
    outer loop
      vertex 37.9775 1.46946 0
      vertex 7 7 0
      vertex 38.3272 1.85786 0
    endloop
  endfacet
  facet normal 0 0 -1
    outer loop
      vertex 37.7161 1.01684 0
      vertex 7 7 0
      vertex 37.9775 1.46946 0
    endloop
  endfacet
  facet normal 0 0 -1
    outer loop
      vertex 37.5546 0.519779 0
      vertex 7 7 0
      vertex 37.7161 1.01684 0
    endloop
  endfacet
  facet normal 0 0 -1
    outer loop
      vertex 7 7 0
      vertex 37.5546 0.519779 0
      vertex 37.5 0 0
    endloop
  endfacet
  facet normal 0 0 -1
    outer loop
      vertex 7 7 0
      vertex 2.5 40 0
      vertex 7 57 0
    endloop
  endfacet
  facet normal 0 0 -1
    outer loop
      vertex 2.44537 40.5198 0
      vertex 7 57 0
      vertex 2.5 40 0
    endloop
  endfacet
  facet normal 0 0 -1
    outer loop
      vertex 2.28386 41.0168 0
      vertex 7 57 0
      vertex 2.44537 40.5198 0
    endloop
  endfacet
  facet normal 0 0 -1
    outer loop
      vertex 2.02254 41.4695 0
      vertex 7 57 0
      vertex 2.28386 41.0168 0
    endloop
  endfacet
  facet normal 0 0 -1
    outer loop
      vertex 1.67283 41.8579 0
      vertex 7 57 0
      vertex 2.02254 41.4695 0
    endloop
  endfacet
  facet normal 0 0 -1
    outer loop
      vertex 1.25 42.1651 0
      vertex 7 57 0
      vertex 1.67283 41.8579 0
    endloop
  endfacet
  facet normal 0 0 -1
    outer loop
      vertex 0.772542 42.3776 0
      vertex 7 57 0
      vertex 1.25 42.1651 0
    endloop
  endfacet
  facet normal 0 0 -1
    outer loop
      vertex 0.261321 42.4863 0
      vertex 7 57 0
      vertex 0.772542 42.3776 0
    endloop
  endfacet
  facet normal 0 0 -1
    outer loop
      vertex -0.261322 42.4863 0
      vertex 7 57 0
      vertex 0.261321 42.4863 0
    endloop
  endfacet
  facet normal 0 0 -1
    outer loop
      vertex -7 57 0
      vertex -0.261322 42.4863 0
      vertex -0.772543 42.3776 0
    endloop
  endfacet
  facet normal 0 0 -1
    outer loop
      vertex -7 57 0
      vertex -0.772543 42.3776 0
      vertex -1.25 42.1651 0
    endloop
  endfacet
  facet normal 0 0 -1
    outer loop
      vertex -7 57 0
      vertex -1.25 42.1651 0
      vertex -1.67283 41.8579 0
    endloop
  endfacet
  facet normal 0 0 -1
    outer loop
      vertex -7 57 0
      vertex -1.67283 41.8579 0
      vertex -2.02254 41.4695 0
    endloop
  endfacet
  facet normal 0 0 -1
    outer loop
      vertex -2.44537 39.4802 0
      vertex -7 57 0
      vertex -2.5 40 0
    endloop
  endfacet
  facet normal 0 0 -1
    outer loop
      vertex -0.261322 42.4863 0
      vertex -7 57 0
      vertex 7 57 0
    endloop
  endfacet
  facet normal 0 0 -1
    outer loop
      vertex -2.28386 41.0168 0
      vertex -7 57 0
      vertex -2.02254 41.4695 0
    endloop
  endfacet
  facet normal 0 0 -1
    outer loop
      vertex -2.44537 40.5198 0
      vertex -7 57 0
      vertex -2.28386 41.0168 0
    endloop
  endfacet
  facet normal 0 0 -1
    outer loop
      vertex -2.5 40 0
      vertex -7 57 0
      vertex -2.44537 40.5198 0
    endloop
  endfacet
  facet normal 0 0 -1
    outer loop
      vertex -37.5546 0.519779 0
      vertex -7 7 0
      vertex -37.5 0 0
    endloop
  endfacet
  facet normal 0 0 -1
    outer loop
      vertex -37.7161 1.01684 0
      vertex -7 7 0
      vertex -37.5546 0.519779 0
    endloop
  endfacet
  facet normal 0 0 -1
    outer loop
      vertex -37.9775 1.46946 0
      vertex -7 7 0
      vertex -37.7161 1.01684 0
    endloop
  endfacet
  facet normal 0 0 -1
    outer loop
      vertex -38.3272 1.85786 0
      vertex -7 7 0
      vertex -37.9775 1.46946 0
    endloop
  endfacet
  facet normal 0 0 -1
    outer loop
      vertex -38.75 2.16506 0
      vertex -7 7 0
      vertex -38.3272 1.85786 0
    endloop
  endfacet
  facet normal 0 0 -1
    outer loop
      vertex -39.2275 2.37764 0
      vertex -7 7 0
      vertex -38.75 2.16506 0
    endloop
  endfacet
  facet normal 0 0 -1
    outer loop
      vertex -39.7387 2.4863 0
      vertex -7 7 0
      vertex -39.2275 2.37764 0
    endloop
  endfacet
  facet normal 0 0 -1
    outer loop
      vertex -57 7 0
      vertex -39.7387 2.4863 0
      vertex -40.2613 2.4863 0
    endloop
  endfacet
  facet normal 0 0 -1
    outer loop
      vertex -57 7 0
      vertex -42.5 0 0
      vertex -57 -7 0
    endloop
  endfacet
  facet normal 0 0 -1
    outer loop
      vertex -42.5 0 0
      vertex -57 7 0
      vertex -42.4454 0.519779 0
    endloop
  endfacet
  facet normal 0 0 -1
    outer loop
      vertex -42.4454 0.519779 0
      vertex -57 7 0
      vertex -42.2839 1.01684 0
    endloop
  endfacet
  facet normal 0 0 -1
    outer loop
      vertex -42.2839 1.01684 0
      vertex -57 7 0
      vertex -42.0225 1.46946 0
    endloop
  endfacet
  facet normal 0 0 -1
    outer loop
      vertex -42.0225 1.46946 0
      vertex -57 7 0
      vertex -41.6728 1.85786 0
    endloop
  endfacet
  facet normal 0 0 -1
    outer loop
      vertex -39.7387 2.4863 0
      vertex -57 7 0
      vertex -7 7 0
    endloop
  endfacet
  facet normal 0 0 -1
    outer loop
      vertex -40.7725 2.37764 0
      vertex -57 7 0
      vertex -40.2613 2.4863 0
    endloop
  endfacet
  facet normal 0 0 -1
    outer loop
      vertex -41.25 2.16506 0
      vertex -57 7 0
      vertex -40.7725 2.37764 0
    endloop
  endfacet
  facet normal 0 0 -1
    outer loop
      vertex -41.6728 1.85786 0
      vertex -57 7 0
      vertex -41.25 2.16506 0
    endloop
  endfacet
  facet normal 0 1 -0
    outer loop
      vertex -7 7 0
      vertex -57 7 10
      vertex -7 7 10
    endloop
  endfacet
  facet normal 0 1 0
    outer loop
      vertex -57 7 10
      vertex -7 7 0
      vertex -57 7 0
    endloop
  endfacet
  facet normal 0 -1 0
    outer loop
      vertex -57 -7 0
      vertex 57 -7 10
      vertex -57 -7 10
    endloop
  endfacet
  facet normal 0 -1 -0
    outer loop
      vertex 57 -7 10
      vertex -57 -7 0
      vertex 57 -7 0
    endloop
  endfacet
  facet normal 0 0 1
    outer loop
      vertex 5 57 2
      vertex -5 57 2
      vertex 5 5 2
    endloop
  endfacet
  facet normal -0 0 1
    outer loop
      vertex 5 5 2
      vertex 57 -5 2
      vertex 57 5 2
    endloop
  endfacet
  facet normal 0 0 1
    outer loop
      vertex -5 5 2
      vertex 5 5 2
      vertex -5 57 2
    endloop
  endfacet
  facet normal -0 0 1
    outer loop
      vertex -5 5 2
      vertex 57 -5 2
      vertex 5 5 2
    endloop
  endfacet
  facet normal 0 0 1
    outer loop
      vertex -57 -5 2
      vertex -5 5 2
      vertex -57 5 2
    endloop
  endfacet
  facet normal 0 0 1
    outer loop
      vertex -5 5 2
      vertex -57 -5 2
      vertex 57 -5 2
    endloop
  endfacet
  facet normal 1 -0 0
    outer loop
      vertex -5 5 10
      vertex -5 57 2
      vertex -5 57 10
    endloop
  endfacet
  facet normal 1 0 0
    outer loop
      vertex -5 57 2
      vertex -5 5 10
      vertex -5 5 2
    endloop
  endfacet
  facet normal 0 -1 0
    outer loop
      vertex 5 5 2
      vertex 57 5 10
      vertex 5 5 10
    endloop
  endfacet
  facet normal 0 -1 -0
    outer loop
      vertex 57 5 10
      vertex 5 5 2
      vertex 57 5 2
    endloop
  endfacet
  facet normal 0 1 -0
    outer loop
      vertex 57 -5 2
      vertex -57 -5 10
      vertex 57 -5 10
    endloop
  endfacet
  facet normal 0 1 0
    outer loop
      vertex -57 -5 10
      vertex 57 -5 2
      vertex -57 -5 2
    endloop
  endfacet
  facet normal -1 0 0
    outer loop
      vertex 5 5 2
      vertex 5 57 10
      vertex 5 57 2
    endloop
  endfacet
  facet normal -1 -0 0
    outer loop
      vertex 5 57 10
      vertex 5 5 2
      vertex 5 5 10
    endloop
  endfacet
  facet normal 0 -1 0
    outer loop
      vertex -57 5 2
      vertex -5 5 10
      vertex -57 5 10
    endloop
  endfacet
  facet normal 0 -1 -0
    outer loop
      vertex -5 5 10
      vertex -57 5 2
      vertex -5 5 2
    endloop
  endfacet
  facet normal 1 0 0
    outer loop
      vertex 57 -5 10
      vertex 57 -7 10
      vertex 57 -5 2
    endloop
  endfacet
  facet normal 1 0 0
    outer loop
      vertex 57 5 2
      vertex 57 7 10
      vertex 57 5 10
    endloop
  endfacet
  facet normal 1 0 0
    outer loop
      vertex 57 7 10
      vertex 57 5 2
      vertex 57 7 0
    endloop
  endfacet
  facet normal 1 -0 0
    outer loop
      vertex 57 -5 2
      vertex 57 7 0
      vertex 57 5 2
    endloop
  endfacet
  facet normal 1 0 0
    outer loop
      vertex 57 -5 2
      vertex 57 -7 0
      vertex 57 7 0
    endloop
  endfacet
  facet normal 1 0 0
    outer loop
      vertex 57 -7 0
      vertex 57 -5 2
      vertex 57 -7 10
    endloop
  endfacet
  facet normal 0 1 -0
    outer loop
      vertex 57 7 0
      vertex 7 7 10
      vertex 57 7 10
    endloop
  endfacet
  facet normal 0 1 0
    outer loop
      vertex 7 7 10
      vertex 57 7 0
      vertex 7 7 0
    endloop
  endfacet
  facet normal 0 1 0
    outer loop
      vertex 7 57 10
      vertex 5 57 2
      vertex 5 57 10
    endloop
  endfacet
  facet normal 0 1 0
    outer loop
      vertex 5 57 2
      vertex 7 57 0
      vertex -5 57 2
    endloop
  endfacet
  facet normal 0 1 -0
    outer loop
      vertex 7 57 0
      vertex 5 57 2
      vertex 7 57 10
    endloop
  endfacet
  facet normal 0 1 -0
    outer loop
      vertex -5 57 2
      vertex -7 57 10
      vertex -5 57 10
    endloop
  endfacet
  facet normal 0 1 0
    outer loop
      vertex -5 57 2
      vertex -7 57 0
      vertex -7 57 10
    endloop
  endfacet
  facet normal 0 1 0
    outer loop
      vertex -7 57 0
      vertex -5 57 2
      vertex 7 57 0
    endloop
  endfacet
  facet normal -1 0 0
    outer loop
      vertex -7 7 0
      vertex -7 57 10
      vertex -7 57 0
    endloop
  endfacet
  facet normal -1 -0 0
    outer loop
      vertex -7 57 10
      vertex -7 7 0
      vertex -7 7 10
    endloop
  endfacet
  facet normal 1 -0 0
    outer loop
      vertex 7 7 10
      vertex 7 57 0
      vertex 7 57 10
    endloop
  endfacet
  facet normal 1 0 0
    outer loop
      vertex 7 57 0
      vertex 7 7 10
      vertex 7 7 0
    endloop
  endfacet
  facet normal -1 0 0
    outer loop
      vertex -57 7 0
      vertex -57 5 2
      vertex -57 7 10
    endloop
  endfacet
  facet normal -1 0 0
    outer loop
      vertex -57 7 0
      vertex -57 -5 2
      vertex -57 5 2
    endloop
  endfacet
  facet normal -1 0 0
    outer loop
      vertex -57 -7 0
      vertex -57 -5 2
      vertex -57 7 0
    endloop
  endfacet
  facet normal -1 0 0
    outer loop
      vertex -57 -7 10
      vertex -57 -5 2
      vertex -57 -7 0
    endloop
  endfacet
  facet normal -1 0 0
    outer loop
      vertex -57 -5 2
      vertex -57 -7 10
      vertex -57 -5 10
    endloop
  endfacet
  facet normal -1 -0 0
    outer loop
      vertex -57 7 10
      vertex -57 5 2
      vertex -57 5 10
    endloop
  endfacet
  facet normal 0 0 -1
    outer loop
      vertex 2.44537 -0.51978 -9
      vertex 2.44537 0.519779 -9
      vertex 2.5 0 -9
    endloop
  endfacet
  facet normal 0 0 -1
    outer loop
      vertex 2.28386 -1.01684 -9
      vertex 2.44537 0.519779 -9
      vertex 2.44537 -0.51978 -9
    endloop
  endfacet
  facet normal 0 0 -1
    outer loop
      vertex 2.28386 -1.01684 -9
      vertex 2.28386 1.01684 -9
      vertex 2.44537 0.519779 -9
    endloop
  endfacet
  facet normal 0 0 -1
    outer loop
      vertex 2.02254 -1.46946 -9
      vertex 2.28386 1.01684 -9
      vertex 2.28386 -1.01684 -9
    endloop
  endfacet
  facet normal 0 0 -1
    outer loop
      vertex 2.02254 -1.46946 -9
      vertex 2.02254 1.46946 -9
      vertex 2.28386 1.01684 -9
    endloop
  endfacet
  facet normal 0 0 -1
    outer loop
      vertex 1.67283 -1.85786 -9
      vertex 2.02254 1.46946 -9
      vertex 2.02254 -1.46946 -9
    endloop
  endfacet
  facet normal 0 0 -1
    outer loop
      vertex 1.67283 -1.85786 -9
      vertex 1.67283 1.85786 -9
      vertex 2.02254 1.46946 -9
    endloop
  endfacet
  facet normal 0 0 -1
    outer loop
      vertex 1.25 -2.16506 -9
      vertex 1.67283 1.85786 -9
      vertex 1.67283 -1.85786 -9
    endloop
  endfacet
  facet normal 0 0 -1
    outer loop
      vertex 1.25 -2.16506 -9
      vertex 1.25 2.16506 -9
      vertex 1.67283 1.85786 -9
    endloop
  endfacet
  facet normal 0 0 -1
    outer loop
      vertex 0.772542 -2.37764 -9
      vertex 1.25 2.16506 -9
      vertex 1.25 -2.16506 -9
    endloop
  endfacet
  facet normal 0 0 -1
    outer loop
      vertex 0.772542 -2.37764 -9
      vertex 0.772542 2.37764 -9
      vertex 1.25 2.16506 -9
    endloop
  endfacet
  facet normal 0 0 -1
    outer loop
      vertex 0.261321 -2.48631 -9
      vertex 0.772542 2.37764 -9
      vertex 0.772542 -2.37764 -9
    endloop
  endfacet
  facet normal 0 0 -1
    outer loop
      vertex 0.261321 -2.48631 -9
      vertex 0.261321 2.4863 -9
      vertex 0.772542 2.37764 -9
    endloop
  endfacet
  facet normal 0 0 -1
    outer loop
      vertex -0.261322 -2.48631 -9
      vertex 0.261321 2.4863 -9
      vertex 0.261321 -2.48631 -9
    endloop
  endfacet
  facet normal 0 0 -1
    outer loop
      vertex -0.261322 -2.48631 -9
      vertex -0.261322 2.4863 -9
      vertex 0.261321 2.4863 -9
    endloop
  endfacet
  facet normal 0 0 -1
    outer loop
      vertex -0.772543 -2.37764 -9
      vertex -0.261322 2.4863 -9
      vertex -0.261322 -2.48631 -9
    endloop
  endfacet
  facet normal 0 0 -1
    outer loop
      vertex -0.772543 -2.37764 -9
      vertex -0.772543 2.37764 -9
      vertex -0.261322 2.4863 -9
    endloop
  endfacet
  facet normal 0 0 -1
    outer loop
      vertex -1.25 -2.16506 -9
      vertex -0.772543 2.37764 -9
      vertex -0.772543 -2.37764 -9
    endloop
  endfacet
  facet normal 0 0 -1
    outer loop
      vertex -1.25 -2.16506 -9
      vertex -1.25 2.16506 -9
      vertex -0.772543 2.37764 -9
    endloop
  endfacet
  facet normal 0 0 -1
    outer loop
      vertex -1.67283 -1.85786 -9
      vertex -1.25 2.16506 -9
      vertex -1.25 -2.16506 -9
    endloop
  endfacet
  facet normal 0 0 -1
    outer loop
      vertex -1.67283 -1.85786 -9
      vertex -1.67283 1.85786 -9
      vertex -1.25 2.16506 -9
    endloop
  endfacet
  facet normal 0 0 -1
    outer loop
      vertex -2.02254 -1.46946 -9
      vertex -1.67283 1.85786 -9
      vertex -1.67283 -1.85786 -9
    endloop
  endfacet
  facet normal 0 0 -1
    outer loop
      vertex -2.02254 -1.46946 -9
      vertex -2.02254 1.46946 -9
      vertex -1.67283 1.85786 -9
    endloop
  endfacet
  facet normal 0 0 -1
    outer loop
      vertex -2.28386 -1.01684 -9
      vertex -2.02254 1.46946 -9
      vertex -2.02254 -1.46946 -9
    endloop
  endfacet
  facet normal 0 0 -1
    outer loop
      vertex -2.28386 -1.01684 -9
      vertex -2.28386 1.01684 -9
      vertex -2.02254 1.46946 -9
    endloop
  endfacet
  facet normal 0 0 -1
    outer loop
      vertex -2.44537 -0.51978 -9
      vertex -2.28386 1.01684 -9
      vertex -2.28386 -1.01684 -9
    endloop
  endfacet
  facet normal 0 0 -1
    outer loop
      vertex -2.44537 -0.51978 -9
      vertex -2.44537 0.519779 -9
      vertex -2.28386 1.01684 -9
    endloop
  endfacet
  facet normal 0 -0 -1
    outer loop
      vertex -2.44537 0.519779 -9
      vertex -2.44537 -0.51978 -9
      vertex -2.5 0 -9
    endloop
  endfacet
  facet normal 0.951054 0.309026 0
    outer loop
      vertex 2.44537 0.519779 0
      vertex 2.28386 1.01684 -9
      vertex 2.28386 1.01684 0
    endloop
  endfacet
  facet normal 0.951054 0.309026 0
    outer loop
      vertex 2.28386 1.01684 -9
      vertex 2.44537 0.519779 0
      vertex 2.44537 0.519779 -9
    endloop
  endfacet
  facet normal 0.994522 0.104527 0
    outer loop
      vertex 2.5 0 0
      vertex 2.44537 0.519779 -9
      vertex 2.44537 0.519779 0
    endloop
  endfacet
  facet normal 0.994522 0.104527 0
    outer loop
      vertex 2.44537 0.519779 -9
      vertex 2.5 0 0
      vertex 2.5 0 -9
    endloop
  endfacet
  facet normal 0.866026 0.5 0
    outer loop
      vertex 2.28386 1.01684 0
      vertex 2.02254 1.46946 -9
      vertex 2.02254 1.46946 0
    endloop
  endfacet
  facet normal 0.866026 0.5 0
    outer loop
      vertex 2.02254 1.46946 -9
      vertex 2.28386 1.01684 0
      vertex 2.28386 1.01684 -9
    endloop
  endfacet
  facet normal -0.743151 0.669123 0
    outer loop
      vertex -2.02254 1.46946 -9
      vertex -1.67283 1.85786 0
      vertex -1.67283 1.85786 -9
    endloop
  endfacet
  facet normal -0.743151 0.669123 0
    outer loop
      vertex -1.67283 1.85786 0
      vertex -2.02254 1.46946 -9
      vertex -2.02254 1.46946 0
    endloop
  endfacet
  facet normal 0 1 -0
    outer loop
      vertex 0.261321 2.4863 -9
      vertex -0.261322 2.4863 0
      vertex 0.261321 2.4863 0
    endloop
  endfacet
  facet normal 0 1 0
    outer loop
      vertex -0.261322 2.4863 0
      vertex 0.261321 2.4863 -9
      vertex -0.261322 2.4863 -9
    endloop
  endfacet
  facet normal -0.58778 0.809021 0
    outer loop
      vertex -1.25 2.16506 -9
      vertex -1.67283 1.85786 0
      vertex -1.25 2.16506 0
    endloop
  endfacet
  facet normal -0.58778 0.809021 0
    outer loop
      vertex -1.67283 1.85786 0
      vertex -1.25 2.16506 -9
      vertex -1.67283 1.85786 -9
    endloop
  endfacet
  facet normal -0.406741 0.913544 0
    outer loop
      vertex -0.772543 2.37764 -9
      vertex -1.25 2.16506 0
      vertex -0.772543 2.37764 0
    endloop
  endfacet
  facet normal -0.406741 0.913544 0
    outer loop
      vertex -1.25 2.16506 0
      vertex -0.772543 2.37764 -9
      vertex -1.25 2.16506 -9
    endloop
  endfacet
  facet normal 0.207924 -0.978145 0
    outer loop
      vertex 0.261321 -2.48631 -9
      vertex 0.772542 -2.37764 0
      vertex 0.261321 -2.48631 0
    endloop
  endfacet
  facet normal 0.207924 -0.978145 0
    outer loop
      vertex 0.772542 -2.37764 0
      vertex 0.261321 -2.48631 -9
      vertex 0.772542 -2.37764 -9
    endloop
  endfacet
  facet normal 0.40674 0.913544 -0
    outer loop
      vertex 1.25 2.16506 -9
      vertex 0.772542 2.37764 0
      vertex 1.25 2.16506 0
    endloop
  endfacet
  facet normal 0.40674 0.913544 0
    outer loop
      vertex 0.772542 2.37764 0
      vertex 1.25 2.16506 -9
      vertex 0.772542 2.37764 -9
    endloop
  endfacet
  facet normal 0.743151 0.669123 0
    outer loop
      vertex 2.02254 1.46946 0
      vertex 1.67283 1.85786 -9
      vertex 1.67283 1.85786 0
    endloop
  endfacet
  facet normal 0.743151 0.669123 0
    outer loop
      vertex 1.67283 1.85786 -9
      vertex 2.02254 1.46946 0
      vertex 2.02254 1.46946 -9
    endloop
  endfacet
  facet normal 0.743151 -0.669123 0
    outer loop
      vertex 1.67283 -1.85786 0
      vertex 2.02254 -1.46946 -9
      vertex 2.02254 -1.46946 0
    endloop
  endfacet
  facet normal 0.743151 -0.669123 0
    outer loop
      vertex 2.02254 -1.46946 -9
      vertex 1.67283 -1.85786 0
      vertex 1.67283 -1.85786 -9
    endloop
  endfacet
  facet normal -0.207924 -0.978145 0
    outer loop
      vertex -0.772543 -2.37764 -9
      vertex -0.261322 -2.48631 0
      vertex -0.772543 -2.37764 0
    endloop
  endfacet
  facet normal -0.207924 -0.978145 -0
    outer loop
      vertex -0.261322 -2.48631 0
      vertex -0.772543 -2.37764 -9
      vertex -0.261322 -2.48631 -9
    endloop
  endfacet
  facet normal 0 -1 0
    outer loop
      vertex -0.261322 -2.48631 -9
      vertex 0.261321 -2.48631 0
      vertex -0.261322 -2.48631 0
    endloop
  endfacet
  facet normal 0 -1 -0
    outer loop
      vertex 0.261321 -2.48631 0
      vertex -0.261322 -2.48631 -9
      vertex 0.261321 -2.48631 -9
    endloop
  endfacet
  facet normal -0.743151 -0.669123 0
    outer loop
      vertex -1.67283 -1.85786 -9
      vertex -2.02254 -1.46946 0
      vertex -2.02254 -1.46946 -9
    endloop
  endfacet
  facet normal -0.743151 -0.669123 0
    outer loop
      vertex -2.02254 -1.46946 0
      vertex -1.67283 -1.85786 -9
      vertex -1.67283 -1.85786 0
    endloop
  endfacet
  facet normal 0.994522 -0.104526 0
    outer loop
      vertex 2.44537 -0.51978 0
      vertex 2.5 0 -9
      vertex 2.5 0 0
    endloop
  endfacet
  facet normal 0.994522 -0.104526 0
    outer loop
      vertex 2.5 0 -9
      vertex 2.44537 -0.51978 0
      vertex 2.44537 -0.51978 -9
    endloop
  endfacet
  facet normal 0.58778 -0.809021 0
    outer loop
      vertex 1.25 -2.16506 -9
      vertex 1.67283 -1.85786 0
      vertex 1.25 -2.16506 0
    endloop
  endfacet
  facet normal 0.58778 -0.809021 0
    outer loop
      vertex 1.67283 -1.85786 0
      vertex 1.25 -2.16506 -9
      vertex 1.67283 -1.85786 -9
    endloop
  endfacet
  facet normal 0.866026 -0.5 0
    outer loop
      vertex 2.02254 -1.46946 0
      vertex 2.28386 -1.01684 -9
      vertex 2.28386 -1.01684 0
    endloop
  endfacet
  facet normal 0.866026 -0.5 0
    outer loop
      vertex 2.28386 -1.01684 -9
      vertex 2.02254 -1.46946 0
      vertex 2.02254 -1.46946 -9
    endloop
  endfacet
  facet normal -0.866026 0.5 0
    outer loop
      vertex -2.28386 1.01684 -9
      vertex -2.02254 1.46946 0
      vertex -2.02254 1.46946 -9
    endloop
  endfacet
  facet normal -0.866026 0.5 0
    outer loop
      vertex -2.02254 1.46946 0
      vertex -2.28386 1.01684 -9
      vertex -2.28386 1.01684 0
    endloop
  endfacet
  facet normal -0.58778 -0.809021 0
    outer loop
      vertex -1.67283 -1.85786 -9
      vertex -1.25 -2.16506 0
      vertex -1.67283 -1.85786 0
    endloop
  endfacet
  facet normal -0.58778 -0.809021 -0
    outer loop
      vertex -1.25 -2.16506 0
      vertex -1.67283 -1.85786 -9
      vertex -1.25 -2.16506 -9
    endloop
  endfacet
  facet normal -0.406741 -0.913544 0
    outer loop
      vertex -1.25 -2.16506 -9
      vertex -0.772543 -2.37764 0
      vertex -1.25 -2.16506 0
    endloop
  endfacet
  facet normal -0.406741 -0.913544 -0
    outer loop
      vertex -0.772543 -2.37764 0
      vertex -1.25 -2.16506 -9
      vertex -0.772543 -2.37764 -9
    endloop
  endfacet
  facet normal 0.40674 -0.913544 0
    outer loop
      vertex 0.772542 -2.37764 -9
      vertex 1.25 -2.16506 0
      vertex 0.772542 -2.37764 0
    endloop
  endfacet
  facet normal 0.40674 -0.913544 0
    outer loop
      vertex 1.25 -2.16506 0
      vertex 0.772542 -2.37764 -9
      vertex 1.25 -2.16506 -9
    endloop
  endfacet
  facet normal 0.951053 -0.309026 0
    outer loop
      vertex 2.28386 -1.01684 0
      vertex 2.44537 -0.51978 -9
      vertex 2.44537 -0.51978 0
    endloop
  endfacet
  facet normal 0.951053 -0.309026 0
    outer loop
      vertex 2.44537 -0.51978 -9
      vertex 2.28386 -1.01684 0
      vertex 2.28386 -1.01684 -9
    endloop
  endfacet
  facet normal 0.207906 0.978149 -0
    outer loop
      vertex 0.772542 2.37764 -9
      vertex 0.261321 2.4863 0
      vertex 0.772542 2.37764 0
    endloop
  endfacet
  facet normal 0.207906 0.978149 0
    outer loop
      vertex 0.261321 2.4863 0
      vertex 0.772542 2.37764 -9
      vertex 0.261321 2.4863 -9
    endloop
  endfacet
  facet normal 0.58778 0.809021 -0
    outer loop
      vertex 1.67283 1.85786 -9
      vertex 1.25 2.16506 0
      vertex 1.67283 1.85786 0
    endloop
  endfacet
  facet normal 0.58778 0.809021 0
    outer loop
      vertex 1.25 2.16506 0
      vertex 1.67283 1.85786 -9
      vertex 1.25 2.16506 -9
    endloop
  endfacet
  facet normal -0.994522 0.104527 0
    outer loop
      vertex -2.5 0 -9
      vertex -2.44537 0.519779 0
      vertex -2.44537 0.519779 -9
    endloop
  endfacet
  facet normal -0.994522 0.104527 0
    outer loop
      vertex -2.44537 0.519779 0
      vertex -2.5 0 -9
      vertex -2.5 0 0
    endloop
  endfacet
  facet normal -0.951054 0.309026 0
    outer loop
      vertex -2.44537 0.519779 -9
      vertex -2.28386 1.01684 0
      vertex -2.28386 1.01684 -9
    endloop
  endfacet
  facet normal -0.951054 0.309026 0
    outer loop
      vertex -2.28386 1.01684 0
      vertex -2.44537 0.519779 -9
      vertex -2.44537 0.519779 0
    endloop
  endfacet
  facet normal -0.207906 0.978149 0
    outer loop
      vertex -0.261322 2.4863 -9
      vertex -0.772543 2.37764 0
      vertex -0.261322 2.4863 0
    endloop
  endfacet
  facet normal -0.207906 0.978149 0
    outer loop
      vertex -0.772543 2.37764 0
      vertex -0.261322 2.4863 -9
      vertex -0.772543 2.37764 -9
    endloop
  endfacet
  facet normal -0.951053 -0.309026 0
    outer loop
      vertex -2.28386 -1.01684 -9
      vertex -2.44537 -0.51978 0
      vertex -2.44537 -0.51978 -9
    endloop
  endfacet
  facet normal -0.951053 -0.309026 0
    outer loop
      vertex -2.44537 -0.51978 0
      vertex -2.28386 -1.01684 -9
      vertex -2.28386 -1.01684 0
    endloop
  endfacet
  facet normal -0.866026 -0.5 0
    outer loop
      vertex -2.02254 -1.46946 -9
      vertex -2.28386 -1.01684 0
      vertex -2.28386 -1.01684 -9
    endloop
  endfacet
  facet normal -0.866026 -0.5 0
    outer loop
      vertex -2.28386 -1.01684 0
      vertex -2.02254 -1.46946 -9
      vertex -2.02254 -1.46946 0
    endloop
  endfacet
  facet normal -0.994522 -0.104526 0
    outer loop
      vertex -2.44537 -0.51978 -9
      vertex -2.5 0 0
      vertex -2.5 0 -9
    endloop
  endfacet
  facet normal -0.994522 -0.104526 0
    outer loop
      vertex -2.5 0 0
      vertex -2.44537 -0.51978 -9
      vertex -2.44537 -0.51978 0
    endloop
  endfacet
  facet normal 0.951059 0.309008 0
    outer loop
      vertex -37.5546 0.519779 0
      vertex -37.7161 1.01684 -9
      vertex -37.7161 1.01684 0
    endloop
  endfacet
  facet normal 0.951059 0.309008 0
    outer loop
      vertex -37.7161 1.01684 -9
      vertex -37.5546 0.519779 0
      vertex -37.5546 0.519779 -9
    endloop
  endfacet
  facet normal 0.994528 0.10447 0
    outer loop
      vertex -37.5 0 0
      vertex -37.5546 0.519779 -9
      vertex -37.5546 0.519779 0
    endloop
  endfacet
  facet normal 0.994528 0.10447 0
    outer loop
      vertex -37.5546 0.519779 -9
      vertex -37.5 0 0
      vertex -37.5 0 -9
    endloop
  endfacet
  facet normal 0.865959 0.500114 0
    outer loop
      vertex -37.7161 1.01684 0
      vertex -37.9775 1.46946 -9
      vertex -37.9775 1.46946 0
    endloop
  endfacet
  facet normal 0.865959 0.500114 0
    outer loop
      vertex -37.9775 1.46946 -9
      vertex -37.7161 1.01684 0
      vertex -37.7161 1.01684 -9
    endloop
  endfacet
  facet normal 0.994528 -0.10447 0
    outer loop
      vertex -37.5546 -0.51978 0
      vertex -37.5 0 -9
      vertex -37.5 0 0
    endloop
  endfacet
  facet normal 0.994528 -0.10447 0
    outer loop
      vertex -37.5 0 -9
      vertex -37.5546 -0.51978 0
      vertex -37.5546 -0.51978 -9
    endloop
  endfacet
  facet normal -0.951059 0.309008 0
    outer loop
      vertex -42.4454 0.519779 -9
      vertex -42.2839 1.01684 0
      vertex -42.2839 1.01684 -9
    endloop
  endfacet
  facet normal -0.951059 0.309008 0
    outer loop
      vertex -42.2839 1.01684 0
      vertex -42.4454 0.519779 -9
      vertex -42.4454 0.519779 0
    endloop
  endfacet
  facet normal -0.994528 -0.10447 0
    outer loop
      vertex -42.4454 -0.51978 -9
      vertex -42.5 0 0
      vertex -42.5 0 -9
    endloop
  endfacet
  facet normal -0.994528 -0.10447 0
    outer loop
      vertex -42.5 0 0
      vertex -42.4454 -0.51978 -9
      vertex -42.4454 -0.51978 0
    endloop
  endfacet
  facet normal 0.743161 0.669113 0
    outer loop
      vertex -37.9775 1.46946 0
      vertex -38.3272 1.85786 -9
      vertex -38.3272 1.85786 0
    endloop
  endfacet
  facet normal 0.743161 0.669113 0
    outer loop
      vertex -38.3272 1.85786 -9
      vertex -37.9775 1.46946 0
      vertex -37.9775 1.46946 -9
    endloop
  endfacet
  facet normal -0.587808 0.809001 0
    outer loop
      vertex -41.25 2.16506 -9
      vertex -41.6728 1.85786 0
      vertex -41.25 2.16506 0
    endloop
  endfacet
  facet normal -0.587808 0.809001 0
    outer loop
      vertex -41.6728 1.85786 0
      vertex -41.25 2.16506 -9
      vertex -41.6728 1.85786 -9
    endloop
  endfacet
  facet normal -0.865959 0.500114 0
    outer loop
      vertex -42.2839 1.01684 -9
      vertex -42.0225 1.46946 0
      vertex -42.0225 1.46946 -9
    endloop
  endfacet
  facet normal -0.865959 0.500114 0
    outer loop
      vertex -42.0225 1.46946 0
      vertex -42.2839 1.01684 -9
      vertex -42.2839 1.01684 0
    endloop
  endfacet
  facet normal -0.40671 -0.913557 0
    outer loop
      vertex -41.25 -2.16506 -9
      vertex -40.7725 -2.37764 0
      vertex -41.25 -2.16506 0
    endloop
  endfacet
  facet normal -0.40671 -0.913557 -0
    outer loop
      vertex -40.7725 -2.37764 0
      vertex -41.25 -2.16506 -9
      vertex -40.7725 -2.37764 -9
    endloop
  endfacet
  facet normal -0.743161 0.669113 0
    outer loop
      vertex -42.0225 1.46946 -9
      vertex -41.6728 1.85786 0
      vertex -41.6728 1.85786 -9
    endloop
  endfacet
  facet normal -0.743161 0.669113 0
    outer loop
      vertex -41.6728 1.85786 0
      vertex -42.0225 1.46946 -9
      vertex -42.0225 1.46946 0
    endloop
  endfacet
  facet normal -0.587808 -0.809001 0
    outer loop
      vertex -41.6728 -1.85786 -9
      vertex -41.25 -2.16506 0
      vertex -41.6728 -1.85786 0
    endloop
  endfacet
  facet normal -0.587808 -0.809001 -0
    outer loop
      vertex -41.25 -2.16506 0
      vertex -41.6728 -1.85786 -9
      vertex -41.25 -2.16506 -9
    endloop
  endfacet
  facet normal 0.865959 -0.500114 0
    outer loop
      vertex -37.9775 -1.46946 0
      vertex -37.7161 -1.01684 -9
      vertex -37.7161 -1.01684 0
    endloop
  endfacet
  facet normal 0.865959 -0.500114 0
    outer loop
      vertex -37.7161 -1.01684 -9
      vertex -37.9775 -1.46946 0
      vertex -37.9775 -1.46946 -9
    endloop
  endfacet
  facet normal -0.743161 -0.669113 0
    outer loop
      vertex -41.6728 -1.85786 -9
      vertex -42.0225 -1.46946 0
      vertex -42.0225 -1.46946 -9
    endloop
  endfacet
  facet normal -0.743161 -0.669113 0
    outer loop
      vertex -42.0225 -1.46946 0
      vertex -41.6728 -1.85786 -9
      vertex -41.6728 -1.85786 0
    endloop
  endfacet
  facet normal 0.587808 -0.809001 0
    outer loop
      vertex -38.75 -2.16506 -9
      vertex -38.3272 -1.85786 0
      vertex -38.75 -2.16506 0
    endloop
  endfacet
  facet normal 0.587808 -0.809001 0
    outer loop
      vertex -38.3272 -1.85786 0
      vertex -38.75 -2.16506 -9
      vertex -38.3272 -1.85786 -9
    endloop
  endfacet
  facet normal 0 1 -0
    outer loop
      vertex -39.7387 2.4863 -9
      vertex -40.2613 2.4863 0
      vertex -39.7387 2.4863 0
    endloop
  endfacet
  facet normal 0 1 0
    outer loop
      vertex -40.2613 2.4863 0
      vertex -39.7387 2.4863 -9
      vertex -40.2613 2.4863 -9
    endloop
  endfacet
  facet normal 0.951059 -0.309009 0
    outer loop
      vertex -37.7161 -1.01684 0
      vertex -37.5546 -0.51978 -9
      vertex -37.5546 -0.51978 0
    endloop
  endfacet
  facet normal 0.951059 -0.309009 0
    outer loop
      vertex -37.5546 -0.51978 -9
      vertex -37.7161 -1.01684 0
      vertex -37.7161 -1.01684 -9
    endloop
  endfacet
  facet normal -0.207914 0.978147 0
    outer loop
      vertex -40.2613 2.4863 -9
      vertex -40.7725 2.37764 0
      vertex -40.2613 2.4863 0
    endloop
  endfacet
  facet normal -0.207914 0.978147 0
    outer loop
      vertex -40.7725 2.37764 0
      vertex -40.2613 2.4863 -9
      vertex -40.7725 2.37764 -9
    endloop
  endfacet
  facet normal 0.40671 0.913557 -0
    outer loop
      vertex -38.75 2.16506 -9
      vertex -39.2275 2.37764 0
      vertex -38.75 2.16506 0
    endloop
  endfacet
  facet normal 0.40671 0.913557 0
    outer loop
      vertex -39.2275 2.37764 0
      vertex -38.75 2.16506 -9
      vertex -39.2275 2.37764 -9
    endloop
  endfacet
  facet normal 0.743161 -0.669113 0
    outer loop
      vertex -38.3272 -1.85786 0
      vertex -37.9775 -1.46946 -9
      vertex -37.9775 -1.46946 0
    endloop
  endfacet
  facet normal 0.743161 -0.669113 0
    outer loop
      vertex -37.9775 -1.46946 -9
      vertex -38.3272 -1.85786 0
      vertex -38.3272 -1.85786 -9
    endloop
  endfacet
  facet normal -0.994528 0.10447 0
    outer loop
      vertex -42.5 0 -9
      vertex -42.4454 0.519779 0
      vertex -42.4454 0.519779 -9
    endloop
  endfacet
  facet normal -0.994528 0.10447 0
    outer loop
      vertex -42.4454 0.519779 0
      vertex -42.5 0 -9
      vertex -42.5 0 0
    endloop
  endfacet
  facet normal -0.40671 0.913557 0
    outer loop
      vertex -40.7725 2.37764 -9
      vertex -41.25 2.16506 0
      vertex -40.7725 2.37764 0
    endloop
  endfacet
  facet normal -0.40671 0.913557 0
    outer loop
      vertex -41.25 2.16506 0
      vertex -40.7725 2.37764 -9
      vertex -41.25 2.16506 -9
    endloop
  endfacet
  facet normal -0.207932 -0.978143 0
    outer loop
      vertex -40.7725 -2.37764 -9
      vertex -40.2613 -2.48631 0
      vertex -40.7725 -2.37764 0
    endloop
  endfacet
  facet normal -0.207932 -0.978143 -0
    outer loop
      vertex -40.2613 -2.48631 0
      vertex -40.7725 -2.37764 -9
      vertex -40.2613 -2.48631 -9
    endloop
  endfacet
  facet normal 0.587808 0.809001 -0
    outer loop
      vertex -38.3272 1.85786 -9
      vertex -38.75 2.16506 0
      vertex -38.3272 1.85786 0
    endloop
  endfacet
  facet normal 0.587808 0.809001 0
    outer loop
      vertex -38.75 2.16506 0
      vertex -38.3272 1.85786 -9
      vertex -38.75 2.16506 -9
    endloop
  endfacet
  facet normal 0.207932 -0.978143 0
    outer loop
      vertex -39.7387 -2.48631 -9
      vertex -39.2275 -2.37764 0
      vertex -39.7387 -2.48631 0
    endloop
  endfacet
  facet normal 0.207932 -0.978143 0
    outer loop
      vertex -39.2275 -2.37764 0
      vertex -39.7387 -2.48631 -9
      vertex -39.2275 -2.37764 -9
    endloop
  endfacet
  facet normal -0.865959 -0.500114 0
    outer loop
      vertex -42.0225 -1.46946 -9
      vertex -42.2839 -1.01684 0
      vertex -42.2839 -1.01684 -9
    endloop
  endfacet
  facet normal -0.865959 -0.500114 0
    outer loop
      vertex -42.2839 -1.01684 0
      vertex -42.0225 -1.46946 -9
      vertex -42.0225 -1.46946 0
    endloop
  endfacet
  facet normal 0 -1 0
    outer loop
      vertex -40.2613 -2.48631 -9
      vertex -39.7387 -2.48631 0
      vertex -40.2613 -2.48631 0
    endloop
  endfacet
  facet normal 0 -1 -0
    outer loop
      vertex -39.7387 -2.48631 0
      vertex -40.2613 -2.48631 -9
      vertex -39.7387 -2.48631 -9
    endloop
  endfacet
  facet normal 0.40671 -0.913557 0
    outer loop
      vertex -39.2275 -2.37764 -9
      vertex -38.75 -2.16506 0
      vertex -39.2275 -2.37764 0
    endloop
  endfacet
  facet normal 0.40671 -0.913557 0
    outer loop
      vertex -38.75 -2.16506 0
      vertex -39.2275 -2.37764 -9
      vertex -38.75 -2.16506 -9
    endloop
  endfacet
  facet normal 0.207914 0.978147 -0
    outer loop
      vertex -39.2275 2.37764 -9
      vertex -39.7387 2.4863 0
      vertex -39.2275 2.37764 0
    endloop
  endfacet
  facet normal 0.207914 0.978147 0
    outer loop
      vertex -39.7387 2.4863 0
      vertex -39.2275 2.37764 -9
      vertex -39.7387 2.4863 -9
    endloop
  endfacet
  facet normal -0.951059 -0.309009 0
    outer loop
      vertex -42.2839 -1.01684 -9
      vertex -42.4454 -0.51978 0
      vertex -42.4454 -0.51978 -9
    endloop
  endfacet
  facet normal -0.951059 -0.309009 0
    outer loop
      vertex -42.4454 -0.51978 0
      vertex -42.2839 -1.01684 -9
      vertex -42.2839 -1.01684 0
    endloop
  endfacet
  facet normal 0 0 -1
    outer loop
      vertex -37.5546 -0.51978 -9
      vertex -37.5546 0.519779 -9
      vertex -37.5 0 -9
    endloop
  endfacet
  facet normal 0 0 -1
    outer loop
      vertex -37.7161 -1.01684 -9
      vertex -37.5546 0.519779 -9
      vertex -37.5546 -0.51978 -9
    endloop
  endfacet
  facet normal 0 0 -1
    outer loop
      vertex -37.7161 -1.01684 -9
      vertex -37.7161 1.01684 -9
      vertex -37.5546 0.519779 -9
    endloop
  endfacet
  facet normal 0 0 -1
    outer loop
      vertex -37.9775 -1.46946 -9
      vertex -37.7161 1.01684 -9
      vertex -37.7161 -1.01684 -9
    endloop
  endfacet
  facet normal 0 0 -1
    outer loop
      vertex -37.9775 -1.46946 -9
      vertex -37.9775 1.46946 -9
      vertex -37.7161 1.01684 -9
    endloop
  endfacet
  facet normal 0 0 -1
    outer loop
      vertex -38.3272 -1.85786 -9
      vertex -37.9775 1.46946 -9
      vertex -37.9775 -1.46946 -9
    endloop
  endfacet
  facet normal 0 0 -1
    outer loop
      vertex -38.3272 -1.85786 -9
      vertex -38.3272 1.85786 -9
      vertex -37.9775 1.46946 -9
    endloop
  endfacet
  facet normal 0 0 -1
    outer loop
      vertex -38.75 -2.16506 -9
      vertex -38.3272 1.85786 -9
      vertex -38.3272 -1.85786 -9
    endloop
  endfacet
  facet normal 0 0 -1
    outer loop
      vertex -38.75 -2.16506 -9
      vertex -38.75 2.16506 -9
      vertex -38.3272 1.85786 -9
    endloop
  endfacet
  facet normal 0 0 -1
    outer loop
      vertex -39.2275 -2.37764 -9
      vertex -38.75 2.16506 -9
      vertex -38.75 -2.16506 -9
    endloop
  endfacet
  facet normal 0 0 -1
    outer loop
      vertex -39.2275 -2.37764 -9
      vertex -39.2275 2.37764 -9
      vertex -38.75 2.16506 -9
    endloop
  endfacet
  facet normal 0 0 -1
    outer loop
      vertex -39.7387 -2.48631 -9
      vertex -39.2275 2.37764 -9
      vertex -39.2275 -2.37764 -9
    endloop
  endfacet
  facet normal 0 0 -1
    outer loop
      vertex -39.7387 -2.48631 -9
      vertex -39.7387 2.4863 -9
      vertex -39.2275 2.37764 -9
    endloop
  endfacet
  facet normal 0 0 -1
    outer loop
      vertex -40.2613 -2.48631 -9
      vertex -39.7387 2.4863 -9
      vertex -39.7387 -2.48631 -9
    endloop
  endfacet
  facet normal 0 0 -1
    outer loop
      vertex -40.2613 -2.48631 -9
      vertex -40.2613 2.4863 -9
      vertex -39.7387 2.4863 -9
    endloop
  endfacet
  facet normal 0 0 -1
    outer loop
      vertex -40.7725 -2.37764 -9
      vertex -40.2613 2.4863 -9
      vertex -40.2613 -2.48631 -9
    endloop
  endfacet
  facet normal 0 0 -1
    outer loop
      vertex -40.7725 -2.37764 -9
      vertex -40.7725 2.37764 -9
      vertex -40.2613 2.4863 -9
    endloop
  endfacet
  facet normal 0 0 -1
    outer loop
      vertex -41.25 -2.16506 -9
      vertex -40.7725 2.37764 -9
      vertex -40.7725 -2.37764 -9
    endloop
  endfacet
  facet normal 0 0 -1
    outer loop
      vertex -41.25 -2.16506 -9
      vertex -41.25 2.16506 -9
      vertex -40.7725 2.37764 -9
    endloop
  endfacet
  facet normal 0 0 -1
    outer loop
      vertex -41.6728 -1.85786 -9
      vertex -41.25 2.16506 -9
      vertex -41.25 -2.16506 -9
    endloop
  endfacet
  facet normal 0 0 -1
    outer loop
      vertex -41.6728 -1.85786 -9
      vertex -41.6728 1.85786 -9
      vertex -41.25 2.16506 -9
    endloop
  endfacet
  facet normal 0 0 -1
    outer loop
      vertex -42.0225 -1.46946 -9
      vertex -41.6728 1.85786 -9
      vertex -41.6728 -1.85786 -9
    endloop
  endfacet
  facet normal 0 0 -1
    outer loop
      vertex -42.0225 -1.46946 -9
      vertex -42.0225 1.46946 -9
      vertex -41.6728 1.85786 -9
    endloop
  endfacet
  facet normal 0 0 -1
    outer loop
      vertex -42.2839 -1.01684 -9
      vertex -42.0225 1.46946 -9
      vertex -42.0225 -1.46946 -9
    endloop
  endfacet
  facet normal 0 0 -1
    outer loop
      vertex -42.2839 -1.01684 -9
      vertex -42.2839 1.01684 -9
      vertex -42.0225 1.46946 -9
    endloop
  endfacet
  facet normal 0 0 -1
    outer loop
      vertex -42.4454 -0.51978 -9
      vertex -42.2839 1.01684 -9
      vertex -42.2839 -1.01684 -9
    endloop
  endfacet
  facet normal 0 0 -1
    outer loop
      vertex -42.4454 -0.51978 -9
      vertex -42.4454 0.519779 -9
      vertex -42.2839 1.01684 -9
    endloop
  endfacet
  facet normal 0 -0 -1
    outer loop
      vertex -42.4454 0.519779 -9
      vertex -42.4454 -0.51978 -9
      vertex -42.5 0 -9
    endloop
  endfacet
  facet normal 0 0 -1
    outer loop
      vertex 42.4454 -0.51978 -9
      vertex 42.4454 0.519779 -9
      vertex 42.5 0 -9
    endloop
  endfacet
  facet normal 0 0 -1
    outer loop
      vertex 42.2839 -1.01684 -9
      vertex 42.4454 0.519779 -9
      vertex 42.4454 -0.51978 -9
    endloop
  endfacet
  facet normal 0 0 -1
    outer loop
      vertex 42.2839 -1.01684 -9
      vertex 42.2839 1.01684 -9
      vertex 42.4454 0.519779 -9
    endloop
  endfacet
  facet normal 0 0 -1
    outer loop
      vertex 42.0225 -1.46946 -9
      vertex 42.2839 1.01684 -9
      vertex 42.2839 -1.01684 -9
    endloop
  endfacet
  facet normal 0 0 -1
    outer loop
      vertex 42.0225 -1.46946 -9
      vertex 42.0225 1.46946 -9
      vertex 42.2839 1.01684 -9
    endloop
  endfacet
  facet normal 0 0 -1
    outer loop
      vertex 41.6728 -1.85786 -9
      vertex 42.0225 1.46946 -9
      vertex 42.0225 -1.46946 -9
    endloop
  endfacet
  facet normal 0 0 -1
    outer loop
      vertex 41.6728 -1.85786 -9
      vertex 41.6728 1.85786 -9
      vertex 42.0225 1.46946 -9
    endloop
  endfacet
  facet normal 0 0 -1
    outer loop
      vertex 41.25 -2.16506 -9
      vertex 41.6728 1.85786 -9
      vertex 41.6728 -1.85786 -9
    endloop
  endfacet
  facet normal 0 0 -1
    outer loop
      vertex 41.25 -2.16506 -9
      vertex 41.25 2.16506 -9
      vertex 41.6728 1.85786 -9
    endloop
  endfacet
  facet normal 0 0 -1
    outer loop
      vertex 40.7725 -2.37764 -9
      vertex 41.25 2.16506 -9
      vertex 41.25 -2.16506 -9
    endloop
  endfacet
  facet normal 0 0 -1
    outer loop
      vertex 40.7725 -2.37764 -9
      vertex 40.7725 2.37764 -9
      vertex 41.25 2.16506 -9
    endloop
  endfacet
  facet normal 0 0 -1
    outer loop
      vertex 40.2613 -2.48631 -9
      vertex 40.7725 2.37764 -9
      vertex 40.7725 -2.37764 -9
    endloop
  endfacet
  facet normal 0 0 -1
    outer loop
      vertex 40.2613 -2.48631 -9
      vertex 40.2613 2.4863 -9
      vertex 40.7725 2.37764 -9
    endloop
  endfacet
  facet normal 0 0 -1
    outer loop
      vertex 39.7387 -2.48631 -9
      vertex 40.2613 2.4863 -9
      vertex 40.2613 -2.48631 -9
    endloop
  endfacet
  facet normal 0 0 -1
    outer loop
      vertex 39.7387 -2.48631 -9
      vertex 39.7387 2.4863 -9
      vertex 40.2613 2.4863 -9
    endloop
  endfacet
  facet normal 0 0 -1
    outer loop
      vertex 39.2275 -2.37764 -9
      vertex 39.7387 2.4863 -9
      vertex 39.7387 -2.48631 -9
    endloop
  endfacet
  facet normal 0 0 -1
    outer loop
      vertex 39.2275 -2.37764 -9
      vertex 39.2275 2.37764 -9
      vertex 39.7387 2.4863 -9
    endloop
  endfacet
  facet normal 0 0 -1
    outer loop
      vertex 38.75 -2.16506 -9
      vertex 39.2275 2.37764 -9
      vertex 39.2275 -2.37764 -9
    endloop
  endfacet
  facet normal 0 0 -1
    outer loop
      vertex 38.75 -2.16506 -9
      vertex 38.75 2.16506 -9
      vertex 39.2275 2.37764 -9
    endloop
  endfacet
  facet normal 0 0 -1
    outer loop
      vertex 38.3272 -1.85786 -9
      vertex 38.75 2.16506 -9
      vertex 38.75 -2.16506 -9
    endloop
  endfacet
  facet normal 0 0 -1
    outer loop
      vertex 38.3272 -1.85786 -9
      vertex 38.3272 1.85786 -9
      vertex 38.75 2.16506 -9
    endloop
  endfacet
  facet normal 0 0 -1
    outer loop
      vertex 37.9775 -1.46946 -9
      vertex 38.3272 1.85786 -9
      vertex 38.3272 -1.85786 -9
    endloop
  endfacet
  facet normal 0 0 -1
    outer loop
      vertex 37.9775 -1.46946 -9
      vertex 37.9775 1.46946 -9
      vertex 38.3272 1.85786 -9
    endloop
  endfacet
  facet normal 0 0 -1
    outer loop
      vertex 37.7161 -1.01684 -9
      vertex 37.9775 1.46946 -9
      vertex 37.9775 -1.46946 -9
    endloop
  endfacet
  facet normal 0 0 -1
    outer loop
      vertex 37.7161 -1.01684 -9
      vertex 37.7161 1.01684 -9
      vertex 37.9775 1.46946 -9
    endloop
  endfacet
  facet normal 0 0 -1
    outer loop
      vertex 37.5546 -0.51978 -9
      vertex 37.7161 1.01684 -9
      vertex 37.7161 -1.01684 -9
    endloop
  endfacet
  facet normal 0 0 -1
    outer loop
      vertex 37.5546 -0.51978 -9
      vertex 37.5546 0.519779 -9
      vertex 37.7161 1.01684 -9
    endloop
  endfacet
  facet normal 0 -0 -1
    outer loop
      vertex 37.5546 0.519779 -9
      vertex 37.5546 -0.51978 -9
      vertex 37.5 0 -9
    endloop
  endfacet
  facet normal 0.951059 0.309008 0
    outer loop
      vertex 42.4454 0.519779 0
      vertex 42.2839 1.01684 -9
      vertex 42.2839 1.01684 0
    endloop
  endfacet
  facet normal 0.951059 0.309008 0
    outer loop
      vertex 42.2839 1.01684 -9
      vertex 42.4454 0.519779 0
      vertex 42.4454 0.519779 -9
    endloop
  endfacet
  facet normal 0.994528 0.10447 0
    outer loop
      vertex 42.5 0 0
      vertex 42.4454 0.519779 -9
      vertex 42.4454 0.519779 0
    endloop
  endfacet
  facet normal 0.994528 0.10447 0
    outer loop
      vertex 42.4454 0.519779 -9
      vertex 42.5 0 0
      vertex 42.5 0 -9
    endloop
  endfacet
  facet normal 0.865959 0.500114 0
    outer loop
      vertex 42.2839 1.01684 0
      vertex 42.0225 1.46946 -9
      vertex 42.0225 1.46946 0
    endloop
  endfacet
  facet normal 0.865959 0.500114 0
    outer loop
      vertex 42.0225 1.46946 -9
      vertex 42.2839 1.01684 0
      vertex 42.2839 1.01684 -9
    endloop
  endfacet
  facet normal -0.743161 0.669113 0
    outer loop
      vertex 37.9775 1.46946 -9
      vertex 38.3272 1.85786 0
      vertex 38.3272 1.85786 -9
    endloop
  endfacet
  facet normal -0.743161 0.669113 0
    outer loop
      vertex 38.3272 1.85786 0
      vertex 37.9775 1.46946 -9
      vertex 37.9775 1.46946 0
    endloop
  endfacet
  facet normal 0 1 -0
    outer loop
      vertex 40.2613 2.4863 -9
      vertex 39.7387 2.4863 0
      vertex 40.2613 2.4863 0
    endloop
  endfacet
  facet normal 0 1 0
    outer loop
      vertex 39.7387 2.4863 0
      vertex 40.2613 2.4863 -9
      vertex 39.7387 2.4863 -9
    endloop
  endfacet
  facet normal -0.40671 0.913557 0
    outer loop
      vertex 39.2275 2.37764 -9
      vertex 38.75 2.16506 0
      vertex 39.2275 2.37764 0
    endloop
  endfacet
  facet normal -0.40671 0.913557 0
    outer loop
      vertex 38.75 2.16506 0
      vertex 39.2275 2.37764 -9
      vertex 38.75 2.16506 -9
    endloop
  endfacet
  facet normal 0.207932 -0.978143 0
    outer loop
      vertex 40.2613 -2.48631 -9
      vertex 40.7725 -2.37764 0
      vertex 40.2613 -2.48631 0
    endloop
  endfacet
  facet normal 0.207932 -0.978143 0
    outer loop
      vertex 40.7725 -2.37764 0
      vertex 40.2613 -2.48631 -9
      vertex 40.7725 -2.37764 -9
    endloop
  endfacet
  facet normal 0.40671 0.913557 -0
    outer loop
      vertex 41.25 2.16506 -9
      vertex 40.7725 2.37764 0
      vertex 41.25 2.16506 0
    endloop
  endfacet
  facet normal 0.40671 0.913557 0
    outer loop
      vertex 40.7725 2.37764 0
      vertex 41.25 2.16506 -9
      vertex 40.7725 2.37764 -9
    endloop
  endfacet
  facet normal 0.743161 0.669113 0
    outer loop
      vertex 42.0225 1.46946 0
      vertex 41.6728 1.85786 -9
      vertex 41.6728 1.85786 0
    endloop
  endfacet
  facet normal 0.743161 0.669113 0
    outer loop
      vertex 41.6728 1.85786 -9
      vertex 42.0225 1.46946 0
      vertex 42.0225 1.46946 -9
    endloop
  endfacet
  facet normal 0.743161 -0.669113 0
    outer loop
      vertex 41.6728 -1.85786 0
      vertex 42.0225 -1.46946 -9
      vertex 42.0225 -1.46946 0
    endloop
  endfacet
  facet normal 0.743161 -0.669113 0
    outer loop
      vertex 42.0225 -1.46946 -9
      vertex 41.6728 -1.85786 0
      vertex 41.6728 -1.85786 -9
    endloop
  endfacet
  facet normal -0.207932 -0.978143 0
    outer loop
      vertex 39.2275 -2.37764 -9
      vertex 39.7387 -2.48631 0
      vertex 39.2275 -2.37764 0
    endloop
  endfacet
  facet normal -0.207932 -0.978143 -0
    outer loop
      vertex 39.7387 -2.48631 0
      vertex 39.2275 -2.37764 -9
      vertex 39.7387 -2.48631 -9
    endloop
  endfacet
  facet normal 0 -1 0
    outer loop
      vertex 39.7387 -2.48631 -9
      vertex 40.2613 -2.48631 0
      vertex 39.7387 -2.48631 0
    endloop
  endfacet
  facet normal 0 -1 -0
    outer loop
      vertex 40.2613 -2.48631 0
      vertex 39.7387 -2.48631 -9
      vertex 40.2613 -2.48631 -9
    endloop
  endfacet
  facet normal -0.743161 -0.669113 0
    outer loop
      vertex 38.3272 -1.85786 -9
      vertex 37.9775 -1.46946 0
      vertex 37.9775 -1.46946 -9
    endloop
  endfacet
  facet normal -0.743161 -0.669113 0
    outer loop
      vertex 37.9775 -1.46946 0
      vertex 38.3272 -1.85786 -9
      vertex 38.3272 -1.85786 0
    endloop
  endfacet
  facet normal 0.994528 -0.10447 0
    outer loop
      vertex 42.4454 -0.51978 0
      vertex 42.5 0 -9
      vertex 42.5 0 0
    endloop
  endfacet
  facet normal 0.994528 -0.10447 0
    outer loop
      vertex 42.5 0 -9
      vertex 42.4454 -0.51978 0
      vertex 42.4454 -0.51978 -9
    endloop
  endfacet
  facet normal 0.587808 -0.809001 0
    outer loop
      vertex 41.25 -2.16506 -9
      vertex 41.6728 -1.85786 0
      vertex 41.25 -2.16506 0
    endloop
  endfacet
  facet normal 0.587808 -0.809001 0
    outer loop
      vertex 41.6728 -1.85786 0
      vertex 41.25 -2.16506 -9
      vertex 41.6728 -1.85786 -9
    endloop
  endfacet
  facet normal 0.865959 -0.500114 0
    outer loop
      vertex 42.0225 -1.46946 0
      vertex 42.2839 -1.01684 -9
      vertex 42.2839 -1.01684 0
    endloop
  endfacet
  facet normal 0.865959 -0.500114 0
    outer loop
      vertex 42.2839 -1.01684 -9
      vertex 42.0225 -1.46946 0
      vertex 42.0225 -1.46946 -9
    endloop
  endfacet
  facet normal -0.865959 0.500114 0
    outer loop
      vertex 37.7161 1.01684 -9
      vertex 37.9775 1.46946 0
      vertex 37.9775 1.46946 -9
    endloop
  endfacet
  facet normal -0.865959 0.500114 0
    outer loop
      vertex 37.9775 1.46946 0
      vertex 37.7161 1.01684 -9
      vertex 37.7161 1.01684 0
    endloop
  endfacet
  facet normal -0.587808 -0.809001 0
    outer loop
      vertex 38.3272 -1.85786 -9
      vertex 38.75 -2.16506 0
      vertex 38.3272 -1.85786 0
    endloop
  endfacet
  facet normal -0.587808 -0.809001 -0
    outer loop
      vertex 38.75 -2.16506 0
      vertex 38.3272 -1.85786 -9
      vertex 38.75 -2.16506 -9
    endloop
  endfacet
  facet normal -0.40671 -0.913557 0
    outer loop
      vertex 38.75 -2.16506 -9
      vertex 39.2275 -2.37764 0
      vertex 38.75 -2.16506 0
    endloop
  endfacet
  facet normal -0.40671 -0.913557 -0
    outer loop
      vertex 39.2275 -2.37764 0
      vertex 38.75 -2.16506 -9
      vertex 39.2275 -2.37764 -9
    endloop
  endfacet
  facet normal 0.40671 -0.913557 0
    outer loop
      vertex 40.7725 -2.37764 -9
      vertex 41.25 -2.16506 0
      vertex 40.7725 -2.37764 0
    endloop
  endfacet
  facet normal 0.40671 -0.913557 0
    outer loop
      vertex 41.25 -2.16506 0
      vertex 40.7725 -2.37764 -9
      vertex 41.25 -2.16506 -9
    endloop
  endfacet
  facet normal 0.951059 -0.309009 0
    outer loop
      vertex 42.2839 -1.01684 0
      vertex 42.4454 -0.51978 -9
      vertex 42.4454 -0.51978 0
    endloop
  endfacet
  facet normal 0.951059 -0.309009 0
    outer loop
      vertex 42.4454 -0.51978 -9
      vertex 42.2839 -1.01684 0
      vertex 42.2839 -1.01684 -9
    endloop
  endfacet
  facet normal 0.207914 0.978147 -0
    outer loop
      vertex 40.7725 2.37764 -9
      vertex 40.2613 2.4863 0
      vertex 40.7725 2.37764 0
    endloop
  endfacet
  facet normal 0.207914 0.978147 0
    outer loop
      vertex 40.2613 2.4863 0
      vertex 40.7725 2.37764 -9
      vertex 40.2613 2.4863 -9
    endloop
  endfacet
  facet normal 0.587808 0.809001 -0
    outer loop
      vertex 41.6728 1.85786 -9
      vertex 41.25 2.16506 0
      vertex 41.6728 1.85786 0
    endloop
  endfacet
  facet normal 0.587808 0.809001 0
    outer loop
      vertex 41.25 2.16506 0
      vertex 41.6728 1.85786 -9
      vertex 41.25 2.16506 -9
    endloop
  endfacet
  facet normal -0.994528 0.10447 0
    outer loop
      vertex 37.5 0 -9
      vertex 37.5546 0.519779 0
      vertex 37.5546 0.519779 -9
    endloop
  endfacet
  facet normal -0.994528 0.10447 0
    outer loop
      vertex 37.5546 0.519779 0
      vertex 37.5 0 -9
      vertex 37.5 0 0
    endloop
  endfacet
  facet normal -0.587808 0.809001 0
    outer loop
      vertex 38.75 2.16506 -9
      vertex 38.3272 1.85786 0
      vertex 38.75 2.16506 0
    endloop
  endfacet
  facet normal -0.587808 0.809001 0
    outer loop
      vertex 38.3272 1.85786 0
      vertex 38.75 2.16506 -9
      vertex 38.3272 1.85786 -9
    endloop
  endfacet
  facet normal -0.951059 0.309008 0
    outer loop
      vertex 37.5546 0.519779 -9
      vertex 37.7161 1.01684 0
      vertex 37.7161 1.01684 -9
    endloop
  endfacet
  facet normal -0.951059 0.309008 0
    outer loop
      vertex 37.7161 1.01684 0
      vertex 37.5546 0.519779 -9
      vertex 37.5546 0.519779 0
    endloop
  endfacet
  facet normal -0.207914 0.978147 0
    outer loop
      vertex 39.7387 2.4863 -9
      vertex 39.2275 2.37764 0
      vertex 39.7387 2.4863 0
    endloop
  endfacet
  facet normal -0.207914 0.978147 0
    outer loop
      vertex 39.2275 2.37764 0
      vertex 39.7387 2.4863 -9
      vertex 39.2275 2.37764 -9
    endloop
  endfacet
  facet normal -0.951059 -0.309009 0
    outer loop
      vertex 37.7161 -1.01684 -9
      vertex 37.5546 -0.51978 0
      vertex 37.5546 -0.51978 -9
    endloop
  endfacet
  facet normal -0.951059 -0.309009 0
    outer loop
      vertex 37.5546 -0.51978 0
      vertex 37.7161 -1.01684 -9
      vertex 37.7161 -1.01684 0
    endloop
  endfacet
  facet normal -0.865959 -0.500114 0
    outer loop
      vertex 37.9775 -1.46946 -9
      vertex 37.7161 -1.01684 0
      vertex 37.7161 -1.01684 -9
    endloop
  endfacet
  facet normal -0.865959 -0.500114 0
    outer loop
      vertex 37.7161 -1.01684 0
      vertex 37.9775 -1.46946 -9
      vertex 37.9775 -1.46946 0
    endloop
  endfacet
  facet normal -0.994528 -0.10447 0
    outer loop
      vertex 37.5546 -0.51978 -9
      vertex 37.5 0 0
      vertex 37.5 0 -9
    endloop
  endfacet
  facet normal -0.994528 -0.10447 0
    outer loop
      vertex 37.5 0 0
      vertex 37.5546 -0.51978 -9
      vertex 37.5546 -0.51978 0
    endloop
  endfacet
  facet normal 0 0 -1
    outer loop
      vertex 2.44537 39.4802 -9
      vertex 2.44537 40.5198 -9
      vertex 2.5 40 -9
    endloop
  endfacet
  facet normal 0 0 -1
    outer loop
      vertex 2.28386 38.9832 -9
      vertex 2.44537 40.5198 -9
      vertex 2.44537 39.4802 -9
    endloop
  endfacet
  facet normal 0 0 -1
    outer loop
      vertex 2.28386 38.9832 -9
      vertex 2.28386 41.0168 -9
      vertex 2.44537 40.5198 -9
    endloop
  endfacet
  facet normal 0 0 -1
    outer loop
      vertex 2.02254 38.5305 -9
      vertex 2.28386 41.0168 -9
      vertex 2.28386 38.9832 -9
    endloop
  endfacet
  facet normal 0 0 -1
    outer loop
      vertex 2.02254 38.5305 -9
      vertex 2.02254 41.4695 -9
      vertex 2.28386 41.0168 -9
    endloop
  endfacet
  facet normal 0 0 -1
    outer loop
      vertex 1.67283 38.1421 -9
      vertex 2.02254 41.4695 -9
      vertex 2.02254 38.5305 -9
    endloop
  endfacet
  facet normal 0 0 -1
    outer loop
      vertex 1.67283 38.1421 -9
      vertex 1.67283 41.8579 -9
      vertex 2.02254 41.4695 -9
    endloop
  endfacet
  facet normal 0 0 -1
    outer loop
      vertex 1.25 37.8349 -9
      vertex 1.67283 41.8579 -9
      vertex 1.67283 38.1421 -9
    endloop
  endfacet
  facet normal 0 0 -1
    outer loop
      vertex 1.25 37.8349 -9
      vertex 1.25 42.1651 -9
      vertex 1.67283 41.8579 -9
    endloop
  endfacet
  facet normal 0 0 -1
    outer loop
      vertex 0.772542 37.6224 -9
      vertex 1.25 42.1651 -9
      vertex 1.25 37.8349 -9
    endloop
  endfacet
  facet normal 0 0 -1
    outer loop
      vertex 0.772542 37.6224 -9
      vertex 0.772542 42.3776 -9
      vertex 1.25 42.1651 -9
    endloop
  endfacet
  facet normal 0 0 -1
    outer loop
      vertex 0.261321 37.5137 -9
      vertex 0.772542 42.3776 -9
      vertex 0.772542 37.6224 -9
    endloop
  endfacet
  facet normal 0 0 -1
    outer loop
      vertex 0.261321 37.5137 -9
      vertex 0.261321 42.4863 -9
      vertex 0.772542 42.3776 -9
    endloop
  endfacet
  facet normal 0 0 -1
    outer loop
      vertex -0.261322 37.5137 -9
      vertex 0.261321 42.4863 -9
      vertex 0.261321 37.5137 -9
    endloop
  endfacet
  facet normal 0 0 -1
    outer loop
      vertex -0.261322 37.5137 -9
      vertex -0.261322 42.4863 -9
      vertex 0.261321 42.4863 -9
    endloop
  endfacet
  facet normal 0 0 -1
    outer loop
      vertex -0.772543 37.6224 -9
      vertex -0.261322 42.4863 -9
      vertex -0.261322 37.5137 -9
    endloop
  endfacet
  facet normal 0 0 -1
    outer loop
      vertex -0.772543 37.6224 -9
      vertex -0.772543 42.3776 -9
      vertex -0.261322 42.4863 -9
    endloop
  endfacet
  facet normal 0 0 -1
    outer loop
      vertex -1.25 37.8349 -9
      vertex -0.772543 42.3776 -9
      vertex -0.772543 37.6224 -9
    endloop
  endfacet
  facet normal 0 0 -1
    outer loop
      vertex -1.25 37.8349 -9
      vertex -1.25 42.1651 -9
      vertex -0.772543 42.3776 -9
    endloop
  endfacet
  facet normal 0 0 -1
    outer loop
      vertex -1.67283 38.1421 -9
      vertex -1.25 42.1651 -9
      vertex -1.25 37.8349 -9
    endloop
  endfacet
  facet normal 0 0 -1
    outer loop
      vertex -1.67283 38.1421 -9
      vertex -1.67283 41.8579 -9
      vertex -1.25 42.1651 -9
    endloop
  endfacet
  facet normal 0 0 -1
    outer loop
      vertex -2.02254 38.5305 -9
      vertex -1.67283 41.8579 -9
      vertex -1.67283 38.1421 -9
    endloop
  endfacet
  facet normal 0 0 -1
    outer loop
      vertex -2.02254 38.5305 -9
      vertex -2.02254 41.4695 -9
      vertex -1.67283 41.8579 -9
    endloop
  endfacet
  facet normal 0 0 -1
    outer loop
      vertex -2.28386 38.9832 -9
      vertex -2.02254 41.4695 -9
      vertex -2.02254 38.5305 -9
    endloop
  endfacet
  facet normal 0 0 -1
    outer loop
      vertex -2.28386 38.9832 -9
      vertex -2.28386 41.0168 -9
      vertex -2.02254 41.4695 -9
    endloop
  endfacet
  facet normal 0 0 -1
    outer loop
      vertex -2.44537 39.4802 -9
      vertex -2.28386 41.0168 -9
      vertex -2.28386 38.9832 -9
    endloop
  endfacet
  facet normal 0 0 -1
    outer loop
      vertex -2.44537 39.4802 -9
      vertex -2.44537 40.5198 -9
      vertex -2.28386 41.0168 -9
    endloop
  endfacet
  facet normal 0 -0 -1
    outer loop
      vertex -2.44537 40.5198 -9
      vertex -2.44537 39.4802 -9
      vertex -2.5 40 -9
    endloop
  endfacet
  facet normal 0.951043 0.30906 0
    outer loop
      vertex 2.44537 40.5198 0
      vertex 2.28386 41.0168 -9
      vertex 2.28386 41.0168 0
    endloop
  endfacet
  facet normal 0.951043 0.30906 0
    outer loop
      vertex 2.28386 41.0168 -9
      vertex 2.44537 40.5198 0
      vertex 2.44537 40.5198 -9
    endloop
  endfacet
  facet normal 0.994523 0.104522 0
    outer loop
      vertex 2.5 40 0
      vertex 2.44537 40.5198 -9
      vertex 2.44537 40.5198 0
    endloop
  endfacet
  facet normal 0.994523 0.104522 0
    outer loop
      vertex 2.44537 40.5198 -9
      vertex 2.5 40 0
      vertex 2.5 40 -9
    endloop
  endfacet
  facet normal 0.866064 0.499933 0
    outer loop
      vertex 2.28386 41.0168 0
      vertex 2.02254 41.4695 -9
      vertex 2.02254 41.4695 0
    endloop
  endfacet
  facet normal 0.866064 0.499933 0
    outer loop
      vertex 2.02254 41.4695 -9
      vertex 2.28386 41.0168 0
      vertex 2.28386 41.0168 -9
    endloop
  endfacet
  facet normal -0.743151 0.669123 0
    outer loop
      vertex -2.02254 41.4695 -9
      vertex -1.67283 41.8579 0
      vertex -1.67283 41.8579 -9
    endloop
  endfacet
  facet normal -0.743151 0.669123 0
    outer loop
      vertex -1.67283 41.8579 0
      vertex -2.02254 41.4695 -9
      vertex -2.02254 41.4695 0
    endloop
  endfacet
  facet normal 0 1 -0
    outer loop
      vertex 0.261321 42.4863 -9
      vertex -0.261322 42.4863 0
      vertex 0.261321 42.4863 0
    endloop
  endfacet
  facet normal 0 1 0
    outer loop
      vertex -0.261322 42.4863 0
      vertex 0.261321 42.4863 -9
      vertex -0.261322 42.4863 -9
    endloop
  endfacet
  facet normal -0.406613 0.913601 0
    outer loop
      vertex -0.772543 42.3776 -9
      vertex -1.25 42.1651 0
      vertex -0.772543 42.3776 0
    endloop
  endfacet
  facet normal -0.406613 0.913601 0
    outer loop
      vertex -1.25 42.1651 0
      vertex -0.772543 42.3776 -9
      vertex -1.25 42.1651 -9
    endloop
  endfacet
  facet normal 0.207979 -0.978133 0
    outer loop
      vertex 0.261321 37.5137 -9
      vertex 0.772542 37.6224 0
      vertex 0.261321 37.5137 0
    endloop
  endfacet
  facet normal 0.207979 -0.978133 0
    outer loop
      vertex 0.772542 37.6224 0
      vertex 0.261321 37.5137 -9
      vertex 0.772542 37.6224 -9
    endloop
  endfacet
  facet normal 0.406612 0.913601 -0
    outer loop
      vertex 1.25 42.1651 -9
      vertex 0.772542 42.3776 0
      vertex 1.25 42.1651 0
    endloop
  endfacet
  facet normal 0.406612 0.913601 0
    outer loop
      vertex 0.772542 42.3776 0
      vertex 1.25 42.1651 -9
      vertex 0.772542 42.3776 -9
    endloop
  endfacet
  facet normal 0.743151 0.669123 0
    outer loop
      vertex 2.02254 41.4695 0
      vertex 1.67283 41.8579 -9
      vertex 1.67283 41.8579 0
    endloop
  endfacet
  facet normal 0.743151 0.669123 0
    outer loop
      vertex 1.67283 41.8579 -9
      vertex 2.02254 41.4695 0
      vertex 2.02254 41.4695 -9
    endloop
  endfacet
  facet normal 0.743151 -0.669123 0
    outer loop
      vertex 1.67283 38.1421 0
      vertex 2.02254 38.5305 -9
      vertex 2.02254 38.5305 0
    endloop
  endfacet
  facet normal 0.743151 -0.669123 0
    outer loop
      vertex 2.02254 38.5305 -9
      vertex 1.67283 38.1421 0
      vertex 1.67283 38.1421 -9
    endloop
  endfacet
  facet normal -0.207979 -0.978133 0
    outer loop
      vertex -0.772543 37.6224 -9
      vertex -0.261322 37.5137 0
      vertex -0.772543 37.6224 0
    endloop
  endfacet
  facet normal -0.207979 -0.978133 -0
    outer loop
      vertex -0.261322 37.5137 0
      vertex -0.772543 37.6224 -9
      vertex -0.261322 37.5137 -9
    endloop
  endfacet
  facet normal 0 -1 0
    outer loop
      vertex -0.261322 37.5137 -9
      vertex 0.261321 37.5137 0
      vertex -0.261322 37.5137 0
    endloop
  endfacet
  facet normal 0 -1 -0
    outer loop
      vertex 0.261321 37.5137 0
      vertex -0.261322 37.5137 -9
      vertex 0.261321 37.5137 -9
    endloop
  endfacet
  facet normal -0.743151 -0.669123 0
    outer loop
      vertex -1.67283 38.1421 -9
      vertex -2.02254 38.5305 0
      vertex -2.02254 38.5305 -9
    endloop
  endfacet
  facet normal -0.743151 -0.669123 0
    outer loop
      vertex -2.02254 38.5305 0
      vertex -1.67283 38.1421 -9
      vertex -1.67283 38.1421 0
    endloop
  endfacet
  facet normal 0.994523 -0.104522 0
    outer loop
      vertex 2.44537 39.4802 0
      vertex 2.5 40 -9
      vertex 2.5 40 0
    endloop
  endfacet
  facet normal 0.994523 -0.104522 0
    outer loop
      vertex 2.5 40 -9
      vertex 2.44537 39.4802 0
      vertex 2.44537 39.4802 -9
    endloop
  endfacet
  facet normal 0.58778 -0.809021 0
    outer loop
      vertex 1.25 37.8349 -9
      vertex 1.67283 38.1421 0
      vertex 1.25 37.8349 0
    endloop
  endfacet
  facet normal 0.58778 -0.809021 0
    outer loop
      vertex 1.67283 38.1421 0
      vertex 1.25 37.8349 -9
      vertex 1.67283 38.1421 -9
    endloop
  endfacet
  facet normal 0.866064 -0.499933 0
    outer loop
      vertex 2.02254 38.5305 0
      vertex 2.28386 38.9832 -9
      vertex 2.28386 38.9832 0
    endloop
  endfacet
  facet normal 0.866064 -0.499933 0
    outer loop
      vertex 2.28386 38.9832 -9
      vertex 2.02254 38.5305 0
      vertex 2.02254 38.5305 -9
    endloop
  endfacet
  facet normal -0.866064 0.499933 0
    outer loop
      vertex -2.28386 41.0168 -9
      vertex -2.02254 41.4695 0
      vertex -2.02254 41.4695 -9
    endloop
  endfacet
  facet normal -0.866064 0.499933 0
    outer loop
      vertex -2.02254 41.4695 0
      vertex -2.28386 41.0168 -9
      vertex -2.28386 41.0168 0
    endloop
  endfacet
  facet normal -0.58778 -0.809021 0
    outer loop
      vertex -1.67283 38.1421 -9
      vertex -1.25 37.8349 0
      vertex -1.67283 38.1421 0
    endloop
  endfacet
  facet normal -0.58778 -0.809021 -0
    outer loop
      vertex -1.25 37.8349 0
      vertex -1.67283 38.1421 -9
      vertex -1.25 37.8349 -9
    endloop
  endfacet
  facet normal -0.406613 -0.913601 0
    outer loop
      vertex -1.25 37.8349 -9
      vertex -0.772543 37.6224 0
      vertex -1.25 37.8349 0
    endloop
  endfacet
  facet normal -0.406613 -0.913601 -0
    outer loop
      vertex -0.772543 37.6224 0
      vertex -1.25 37.8349 -9
      vertex -0.772543 37.6224 -9
    endloop
  endfacet
  facet normal 0.406612 -0.913601 0
    outer loop
      vertex 0.772542 37.6224 -9
      vertex 1.25 37.8349 0
      vertex 0.772542 37.6224 0
    endloop
  endfacet
  facet normal 0.406612 -0.913601 0
    outer loop
      vertex 1.25 37.8349 0
      vertex 0.772542 37.6224 -9
      vertex 1.25 37.8349 -9
    endloop
  endfacet
  facet normal 0.951043 -0.30906 0
    outer loop
      vertex 2.28386 38.9832 0
      vertex 2.44537 39.4802 -9
      vertex 2.44537 39.4802 0
    endloop
  endfacet
  facet normal 0.951043 -0.30906 0
    outer loop
      vertex 2.44537 39.4802 -9
      vertex 2.28386 38.9832 0
      vertex 2.28386 38.9832 -9
    endloop
  endfacet
  facet normal 0.207979 0.978133 -0
    outer loop
      vertex 0.772542 42.3776 -9
      vertex 0.261321 42.4863 0
      vertex 0.772542 42.3776 0
    endloop
  endfacet
  facet normal 0.207979 0.978133 0
    outer loop
      vertex 0.261321 42.4863 0
      vertex 0.772542 42.3776 -9
      vertex 0.261321 42.4863 -9
    endloop
  endfacet
  facet normal 0.58778 0.809021 -0
    outer loop
      vertex 1.67283 41.8579 -9
      vertex 1.25 42.1651 0
      vertex 1.67283 41.8579 0
    endloop
  endfacet
  facet normal 0.58778 0.809021 0
    outer loop
      vertex 1.25 42.1651 0
      vertex 1.67283 41.8579 -9
      vertex 1.25 42.1651 -9
    endloop
  endfacet
  facet normal -0.994523 0.104522 0
    outer loop
      vertex -2.5 40 -9
      vertex -2.44537 40.5198 0
      vertex -2.44537 40.5198 -9
    endloop
  endfacet
  facet normal -0.994523 0.104522 0
    outer loop
      vertex -2.44537 40.5198 0
      vertex -2.5 40 -9
      vertex -2.5 40 0
    endloop
  endfacet
  facet normal -0.58778 0.809021 0
    outer loop
      vertex -1.25 42.1651 -9
      vertex -1.67283 41.8579 0
      vertex -1.25 42.1651 0
    endloop
  endfacet
  facet normal -0.58778 0.809021 0
    outer loop
      vertex -1.67283 41.8579 0
      vertex -1.25 42.1651 -9
      vertex -1.67283 41.8579 -9
    endloop
  endfacet
  facet normal -0.951043 0.30906 0
    outer loop
      vertex -2.44537 40.5198 -9
      vertex -2.28386 41.0168 0
      vertex -2.28386 41.0168 -9
    endloop
  endfacet
  facet normal -0.951043 0.30906 0
    outer loop
      vertex -2.28386 41.0168 0
      vertex -2.44537 40.5198 -9
      vertex -2.44537 40.5198 0
    endloop
  endfacet
  facet normal -0.207979 0.978133 0
    outer loop
      vertex -0.261322 42.4863 -9
      vertex -0.772543 42.3776 0
      vertex -0.261322 42.4863 0
    endloop
  endfacet
  facet normal -0.207979 0.978133 0
    outer loop
      vertex -0.772543 42.3776 0
      vertex -0.261322 42.4863 -9
      vertex -0.772543 42.3776 -9
    endloop
  endfacet
  facet normal -0.951043 -0.30906 0
    outer loop
      vertex -2.28386 38.9832 -9
      vertex -2.44537 39.4802 0
      vertex -2.44537 39.4802 -9
    endloop
  endfacet
  facet normal -0.951043 -0.30906 0
    outer loop
      vertex -2.44537 39.4802 0
      vertex -2.28386 38.9832 -9
      vertex -2.28386 38.9832 0
    endloop
  endfacet
  facet normal -0.866064 -0.499933 0
    outer loop
      vertex -2.02254 38.5305 -9
      vertex -2.28386 38.9832 0
      vertex -2.28386 38.9832 -9
    endloop
  endfacet
  facet normal -0.866064 -0.499933 0
    outer loop
      vertex -2.28386 38.9832 0
      vertex -2.02254 38.5305 -9
      vertex -2.02254 38.5305 0
    endloop
  endfacet
  facet normal -0.994523 -0.104522 0
    outer loop
      vertex -2.44537 39.4802 -9
      vertex -2.5 40 0
      vertex -2.5 40 -9
    endloop
  endfacet
  facet normal -0.994523 -0.104522 0
    outer loop
      vertex -2.5 40 0
      vertex -2.44537 39.4802 -9
      vertex -2.44537 39.4802 0
    endloop
  endfacet
endsolid OpenSCAD_Model
