solid OpenSCAD_Model
  facet normal 1 0 0
    outer loop
      vertex 59.5 -4.5 10
      vertex 59.5 -6.5 10
      vertex 59.5 -4.5 2
    endloop
  endfacet
  facet normal 1 0 0
    outer loop
      vertex 59.5 4.5 2
      vertex 59.5 6.5 10
      vertex 59.5 4.5 10
    endloop
  endfacet
  facet normal 1 0 0
    outer loop
      vertex 59.5 6.5 10
      vertex 59.5 4.5 2
      vertex 59.5 6.5 0
    endloop
  endfacet
  facet normal 1 -0 0
    outer loop
      vertex 59.5 -4.5 2
      vertex 59.5 6.5 0
      vertex 59.5 4.5 2
    endloop
  endfacet
  facet normal 1 0 0
    outer loop
      vertex 59.5 -4.5 2
      vertex 59.5 -6.5 0
      vertex 59.5 6.5 0
    endloop
  endfacet
  facet normal 1 0 0
    outer loop
      vertex 59.5 -6.5 0
      vertex 59.5 -4.5 2
      vertex 59.5 -6.5 10
    endloop
  endfacet
  facet normal 0 0 1
    outer loop
      vertex 4.5 59.5 2
      vertex -4.5 59.5 2
      vertex 4.5 4.5 2
    endloop
  endfacet
  facet normal -0 0 1
    outer loop
      vertex 4.5 4.5 2
      vertex 59.5 -4.5 2
      vertex 59.5 4.5 2
    endloop
  endfacet
  facet normal 0 0 1
    outer loop
      vertex 4.5 4.5 2
      vertex -4.5 -4.5 2
      vertex 59.5 -4.5 2
    endloop
  endfacet
  facet normal 0 0 1
    outer loop
      vertex -4.5 -4.5 2
      vertex 4.5 4.5 2
      vertex -4.5 59.5 2
    endloop
  endfacet
  facet normal 0 0 -1
    outer loop
      vertex 59.5 -6.5 0
      vertex 6.5 6.5 0
      vertex 59.5 6.5 0
    endloop
  endfacet
  facet normal 0 0 -1
    outer loop
      vertex -6.5 -6.5 0
      vertex 6.5 6.5 0
      vertex 59.5 -6.5 0
    endloop
  endfacet
  facet normal 0 0 -1
    outer loop
      vertex -6.5 59.5 0
      vertex 6.5 6.5 0
      vertex -6.5 -6.5 0
    endloop
  endfacet
  facet normal 0 0 -1
    outer loop
      vertex 6.5 6.5 0
      vertex -6.5 59.5 0
      vertex 6.5 59.5 0
    endloop
  endfacet
  facet normal -1 0 0
    outer loop
      vertex 4.5 4.5 2
      vertex 4.5 59.5 10
      vertex 4.5 59.5 2
    endloop
  endfacet
  facet normal -1 -0 0
    outer loop
      vertex 4.5 59.5 10
      vertex 4.5 4.5 2
      vertex 4.5 4.5 10
    endloop
  endfacet
  facet normal 0 1 -0
    outer loop
      vertex 59.5 6.5 0
      vertex 6.5 6.5 10
      vertex 59.5 6.5 10
    endloop
  endfacet
  facet normal 0 1 0
    outer loop
      vertex 6.5 6.5 10
      vertex 59.5 6.5 0
      vertex 6.5 6.5 0
    endloop
  endfacet
  facet normal 0 -1 0
    outer loop
      vertex -6.5 -6.5 0
      vertex 59.5 -6.5 10
      vertex -6.5 -6.5 10
    endloop
  endfacet
  facet normal 0 -1 -0
    outer loop
      vertex 59.5 -6.5 10
      vertex -6.5 -6.5 0
      vertex 59.5 -6.5 0
    endloop
  endfacet
  facet normal 0 0 1
    outer loop
      vertex -4.5 59.5 10
      vertex -6.5 59.5 10
      vertex -4.5 -4.5 10
    endloop
  endfacet
  facet normal -0 0 1
    outer loop
      vertex -4.5 -4.5 10
      vertex 59.5 -6.5 10
      vertex 59.5 -4.5 10
    endloop
  endfacet
  facet normal 0 0 1
    outer loop
      vertex -4.5 -4.5 10
      vertex -6.5 -6.5 10
      vertex 59.5 -6.5 10
    endloop
  endfacet
  facet normal 0 0 1
    outer loop
      vertex -6.5 -6.5 10
      vertex -4.5 -4.5 10
      vertex -6.5 59.5 10
    endloop
  endfacet
  facet normal 0 1 -0
    outer loop
      vertex 59.5 -4.5 2
      vertex -4.5 -4.5 10
      vertex 59.5 -4.5 10
    endloop
  endfacet
  facet normal 0 1 0
    outer loop
      vertex -4.5 -4.5 10
      vertex 59.5 -4.5 2
      vertex -4.5 -4.5 2
    endloop
  endfacet
  facet normal 0 0 1
    outer loop
      vertex 6.5 59.5 10
      vertex 4.5 59.5 10
      vertex 6.5 6.5 10
    endloop
  endfacet
  facet normal -0 0 1
    outer loop
      vertex 6.5 6.5 10
      vertex 59.5 4.5 10
      vertex 59.5 6.5 10
    endloop
  endfacet
  facet normal 0 0 1
    outer loop
      vertex 6.5 6.5 10
      vertex 4.5 4.5 10
      vertex 59.5 4.5 10
    endloop
  endfacet
  facet normal 0 0 1
    outer loop
      vertex 4.5 4.5 10
      vertex 6.5 6.5 10
      vertex 4.5 59.5 10
    endloop
  endfacet
  facet normal 0 -1 0
    outer loop
      vertex 4.5 4.5 2
      vertex 59.5 4.5 10
      vertex 4.5 4.5 10
    endloop
  endfacet
  facet normal 0 -1 -0
    outer loop
      vertex 59.5 4.5 10
      vertex 4.5 4.5 2
      vertex 59.5 4.5 2
    endloop
  endfacet
  facet normal 0 1 0
    outer loop
      vertex 6.5 59.5 10
      vertex 4.5 59.5 2
      vertex 4.5 59.5 10
    endloop
  endfacet
  facet normal 0 1 0
    outer loop
      vertex 4.5 59.5 2
      vertex 6.5 59.5 0
      vertex -4.5 59.5 2
    endloop
  endfacet
  facet normal 0 1 -0
    outer loop
      vertex 6.5 59.5 0
      vertex 4.5 59.5 2
      vertex 6.5 59.5 10
    endloop
  endfacet
  facet normal 0 1 -0
    outer loop
      vertex -4.5 59.5 2
      vertex -6.5 59.5 10
      vertex -4.5 59.5 10
    endloop
  endfacet
  facet normal 0 1 0
    outer loop
      vertex -4.5 59.5 2
      vertex -6.5 59.5 0
      vertex -6.5 59.5 10
    endloop
  endfacet
  facet normal 0 1 0
    outer loop
      vertex -6.5 59.5 0
      vertex -4.5 59.5 2
      vertex 6.5 59.5 0
    endloop
  endfacet
  facet normal -1 0 0
    outer loop
      vertex -6.5 -6.5 0
      vertex -6.5 59.5 10
      vertex -6.5 59.5 0
    endloop
  endfacet
  facet normal -1 -0 0
    outer loop
      vertex -6.5 59.5 10
      vertex -6.5 -6.5 0
      vertex -6.5 -6.5 10
    endloop
  endfacet
  facet normal 1 -0 0
    outer loop
      vertex 6.5 6.5 10
      vertex 6.5 59.5 0
      vertex 6.5 59.5 10
    endloop
  endfacet
  facet normal 1 0 0
    outer loop
      vertex 6.5 59.5 0
      vertex 6.5 6.5 10
      vertex 6.5 6.5 0
    endloop
  endfacet
  facet normal 1 -0 0
    outer loop
      vertex -4.5 -4.5 10
      vertex -4.5 59.5 2
      vertex -4.5 59.5 10
    endloop
  endfacet
  facet normal 1 0 0
    outer loop
      vertex -4.5 59.5 2
      vertex -4.5 -4.5 10
      vertex -4.5 -4.5 2
    endloop
  endfacet
endsolid OpenSCAD_Model
