solid OpenSCAD_Model
  facet normal 1 -0 0
    outer loop
      vertex 59.5 -2.80339 18.1619
      vertex 59.5 -0.949068 17.4126
      vertex 59.5 -0.928272 18.3749
    endloop
  endfacet
  facet normal 1 0 0
    outer loop
      vertex 59.5 -0.949068 17.4126
      vertex 59.5 -2.84042 17.2062
      vertex 59.5 -0.986099 16.4568
    endloop
  endfacet
  facet normal 1 0 0
    outer loop
      vertex 59.5 -2.89368 16.257
      vertex 59.5 -0.986099 16.4568
      vertex 59.5 -2.84042 17.2062
    endloop
  endfacet
  facet normal 1 0 0
    outer loop
      vertex 59.5 -2.96315 15.3143
      vertex 59.5 -1.03936 15.5076
      vertex 59.5 -2.89368 16.257
    endloop
  endfacet
  facet normal 1 0 0
    outer loop
      vertex 59.5 -1.03936 15.5076
      vertex 59.5 -2.96315 15.3143
      vertex 59.5 -1.10883 14.565
    endloop
  endfacet
  facet normal 1 0 0
    outer loop
      vertex 59.5 -1.10883 14.565
      vertex 59.5 -3.04887 14.3783
      vertex 59.5 -1.19455 13.629
    endloop
  endfacet
  facet normal 1 0 0
    outer loop
      vertex 59.5 -3.1508 13.4488
      vertex 59.5 -1.19455 13.629
      vertex 59.5 -3.04887 14.3783
    endloop
  endfacet
  facet normal 1 0 0
    outer loop
      vertex 59.5 -3.26895 12.5258
      vertex 59.5 -1.29648 12.6994
      vertex 59.5 -3.1508 13.4488
    endloop
  endfacet
  facet normal 1 0 0
    outer loop
      vertex 59.5 -1.29648 12.6994
      vertex 59.5 -3.26895 12.5258
      vertex 59.5 -1.41463 11.7765
    endloop
  endfacet
  facet normal 1 0 0
    outer loop
      vertex 59.5 -1.41463 11.7765
      vertex 59.5 -3.40333 11.6094
      vertex 59.5 -1.54901 10.8601
    endloop
  endfacet
  facet normal 1 0 0
    outer loop
      vertex 59.5 -3.55394 10.6996
      vertex 59.5 -1.54901 10.8601
      vertex 59.5 -3.40333 11.6094
    endloop
  endfacet
  facet normal 1 0 0
    outer loop
      vertex 59.5 -1.54901 10.8601
      vertex 59.5 -3.55394 10.6996
      vertex 59.5 -1.69962 9.95022
    endloop
  endfacet
  facet normal 1 0 0
    outer loop
      vertex 59.5 -1.69962 9.95022
      vertex 59.5 -3.72077 9.79627
      vertex 59.5 -1.86645 9.04694
    endloop
  endfacet
  facet normal 1 0 0
    outer loop
      vertex 59.5 -2.80339 18.1619
      vertex 59.5 -0.928272 18.3749
      vertex 59.5 -2.78259 19.1242
    endloop
  endfacet
  facet normal 1 0 0
    outer loop
      vertex 59.5 -0.949068 17.4126
      vertex 59.5 -2.80339 18.1619
      vertex 59.5 -2.84042 17.2062
    endloop
  endfacet
  facet normal 1 0 0
    outer loop
      vertex 59.5 -0.986099 16.4568
      vertex 59.5 -2.89368 16.257
      vertex 59.5 -1.03936 15.5076
    endloop
  endfacet
  facet normal 1 0 0
    outer loop
      vertex 59.5 -3.04887 14.3783
      vertex 59.5 -1.10883 14.565
      vertex 59.5 -2.96315 15.3143
    endloop
  endfacet
  facet normal 1 0 0
    outer loop
      vertex 59.5 -1.19455 13.629
      vertex 59.5 -3.1508 13.4488
      vertex 59.5 -1.29648 12.6994
    endloop
  endfacet
  facet normal 1 0 0
    outer loop
      vertex 59.5 -3.40333 11.6094
      vertex 59.5 -1.41463 11.7765
      vertex 59.5 -3.26895 12.5258
    endloop
  endfacet
  facet normal 1 0 0
    outer loop
      vertex 59.5 -3.72077 9.79627
      vertex 59.5 -1.69962 9.95022
      vertex 59.5 -3.55394 10.6996
    endloop
  endfacet
  facet normal 1 0 0
    outer loop
      vertex 59.5 -3.90382 8.89952
      vertex 59.5 -1.86645 9.04694
      vertex 59.5 -3.72077 9.79627
    endloop
  endfacet
  facet normal 1 0 0
    outer loop
      vertex 59.5 -1.86645 9.04694
      vertex 59.5 -3.90382 8.89952
      vertex 59.5 -2.0495 8.1502
    endloop
  endfacet
  facet normal 1 0 0
    outer loop
      vertex 59.5 -4.10311 8.00936
      vertex 59.5 -2.0495 8.1502
      vertex 59.5 -3.90382 8.89952
    endloop
  endfacet
  facet normal 1 0 0
    outer loop
      vertex 59.5 -2.0495 8.1502
      vertex 59.5 -4.10311 8.00936
      vertex 59.5 -2.24879 7.26003
    endloop
  endfacet
  facet normal 1 0 0
    outer loop
      vertex 59.5 -4.31862 7.12573
      vertex 59.5 -2.24879 7.26003
      vertex 59.5 -4.10311 8.00936
    endloop
  endfacet
  facet normal 1 0 0
    outer loop
      vertex 59.5 -2.24879 7.26003
      vertex 59.5 -4.31862 7.12573
      vertex 59.5 -2.46429 6.3764
    endloop
  endfacet
  facet normal 1 0 0
    outer loop
      vertex 59.5 -4.55034 6.24867
      vertex 59.5 -2.46429 6.3764
      vertex 59.5 -4.31862 7.12573
    endloop
  endfacet
  facet normal 1 0 0
    outer loop
      vertex 59.5 -2.46429 6.3764
      vertex 59.5 -4.55034 6.24867
      vertex 59.5 -2.69602 5.49934
    endloop
  endfacet
  facet normal 1 0 0
    outer loop
      vertex 59.5 -4.79831 5.37817
      vertex 59.5 -2.69602 5.49934
      vertex 59.5 -4.55034 6.24867
    endloop
  endfacet
  facet normal 1 0 0
    outer loop
      vertex 59.5 -2.69602 5.49934
      vertex 59.5 -4.79831 5.37817
      vertex 59.5 -2.94399 4.62884
    endloop
  endfacet
  facet normal 1 0 0
    outer loop
      vertex 59.5 5.63953 2.80598
      vertex 59.5 3.78521 2.05665
      vertex 59.5 3.8062 2
    endloop
  endfacet
  facet normal 1 -0 0
    outer loop
      vertex 59.5 1.86645 9.04694
      vertex 59.5 3.90382 8.89952
      vertex 59.5 3.72077 9.79627
    endloop
  endfacet
  facet normal 1 -0 0
    outer loop
      vertex 59.5 1.69962 9.95022
      vertex 59.5 3.72077 9.79627
      vertex 59.5 3.55394 10.6996
    endloop
  endfacet
  facet normal 1 0 0
    outer loop
      vertex 59.5 4.10311 8.00936
      vertex 59.5 3.48857 2.90749
      vertex 59.5 3.78521 2.05665
    endloop
  endfacet
  facet normal 1 -0 0
    outer loop
      vertex 59.5 1.54901 10.8601
      vertex 59.5 3.55394 10.6996
      vertex 59.5 3.40333 11.6094
    endloop
  endfacet
  facet normal 1 -0 0
    outer loop
      vertex 59.5 1.41463 11.7765
      vertex 59.5 3.40333 11.6094
      vertex 59.5 3.26895 12.5258
    endloop
  endfacet
  facet normal 1 0 0
    outer loop
      vertex 59.5 4.10311 8.00936
      vertex 59.5 3.20818 3.76489
      vertex 59.5 3.48857 2.90749
    endloop
  endfacet
  facet normal 1 -0 0
    outer loop
      vertex 59.5 1.29648 12.6994
      vertex 59.5 3.26895 12.5258
      vertex 59.5 3.1508 13.4488
    endloop
  endfacet
  facet normal 1 -0 0
    outer loop
      vertex 59.5 1.19455 13.629
      vertex 59.5 3.1508 13.4488
      vertex 59.5 3.04887 14.3783
    endloop
  endfacet
  facet normal 1 -0 0
    outer loop
      vertex 59.5 1.10883 14.565
      vertex 59.5 3.04887 14.3783
      vertex 59.5 2.96315 15.3143
    endloop
  endfacet
  facet normal 1 0 0
    outer loop
      vertex 59.5 4.10311 8.00936
      vertex 59.5 2.94399 4.62884
      vertex 59.5 3.20818 3.76489
    endloop
  endfacet
  facet normal 1 -0 0
    outer loop
      vertex 59.5 1.03936 15.5076
      vertex 59.5 2.96315 15.3143
      vertex 59.5 2.89368 16.257
    endloop
  endfacet
  facet normal 1 -0 0
    outer loop
      vertex 59.5 0.986099 16.4568
      vertex 59.5 2.89368 16.257
      vertex 59.5 2.84042 17.2062
    endloop
  endfacet
  facet normal 1 -0 0
    outer loop
      vertex 59.5 0.949068 17.4126
      vertex 59.5 2.84042 17.2062
      vertex 59.5 2.80339 18.1619
    endloop
  endfacet
  facet normal 1 -0 0
    outer loop
      vertex 59.5 0.928272 18.3749
      vertex 59.5 2.80339 18.1619
      vertex 59.5 2.78259 19.1242
    endloop
  endfacet
  facet normal 1 0 0
    outer loop
      vertex 59.5 4.10311 8.00936
      vertex 59.5 2.69602 5.49934
      vertex 59.5 2.94399 4.62884
    endloop
  endfacet
  facet normal 1 0 0
    outer loop
      vertex 59.5 4.10311 8.00936
      vertex 59.5 2.46429 6.3764
      vertex 59.5 2.69602 5.49934
    endloop
  endfacet
  facet normal 1 0 0
    outer loop
      vertex 59.5 4.10311 8.00936
      vertex 59.5 2.24879 7.26003
      vertex 59.5 2.46429 6.3764
    endloop
  endfacet
  facet normal 1 0 0
    outer loop
      vertex 59.5 4.10311 8.00936
      vertex 59.5 2.0495 8.1502
      vertex 59.5 2.24879 7.26003
    endloop
  endfacet
  facet normal 1 0 0
    outer loop
      vertex 59.5 3.90382 8.89952
      vertex 59.5 1.86645 9.04694
      vertex 59.5 2.0495 8.1502
    endloop
  endfacet
  facet normal 1 0 0
    outer loop
      vertex 59.5 3.72077 9.79627
      vertex 59.5 1.69962 9.95022
      vertex 59.5 1.86645 9.04694
    endloop
  endfacet
  facet normal 1 0 0
    outer loop
      vertex 59.5 3.55394 10.6996
      vertex 59.5 1.54901 10.8601
      vertex 59.5 1.69962 9.95022
    endloop
  endfacet
  facet normal 1 0 0
    outer loop
      vertex 59.5 3.40333 11.6094
      vertex 59.5 1.41463 11.7765
      vertex 59.5 1.54901 10.8601
    endloop
  endfacet
  facet normal 1 0 0
    outer loop
      vertex 59.5 3.26895 12.5258
      vertex 59.5 1.29648 12.6994
      vertex 59.5 1.41463 11.7765
    endloop
  endfacet
  facet normal 1 0 0
    outer loop
      vertex 59.5 3.1508 13.4488
      vertex 59.5 1.19455 13.629
      vertex 59.5 1.29648 12.6994
    endloop
  endfacet
  facet normal 1 0 0
    outer loop
      vertex 59.5 3.04887 14.3783
      vertex 59.5 1.10883 14.565
      vertex 59.5 1.19455 13.629
    endloop
  endfacet
  facet normal 1 0 0
    outer loop
      vertex 59.5 2.96315 15.3143
      vertex 59.5 1.03936 15.5076
      vertex 59.5 1.10883 14.565
    endloop
  endfacet
  facet normal 1 0 0
    outer loop
      vertex 59.5 2.89368 16.257
      vertex 59.5 0.986099 16.4568
      vertex 59.5 1.03936 15.5076
    endloop
  endfacet
  facet normal 1 0 0
    outer loop
      vertex 59.5 2.84042 17.2062
      vertex 59.5 0.949068 17.4126
      vertex 59.5 0.986099 16.4568
    endloop
  endfacet
  facet normal 1 0 0
    outer loop
      vertex 59.5 2.80339 18.1619
      vertex 59.5 0.928272 18.3749
      vertex 59.5 0.949068 17.4126
    endloop
  endfacet
  facet normal 1 -0 0
    outer loop
      vertex 59.5 5.9382 2
      vertex 59.5 6.5 0
      vertex 59.5 6.5 2
    endloop
  endfacet
  facet normal 1 0 0
    outer loop
      vertex 59.5 3.8062 2
      vertex 59.5 5.9382 2
      vertex 59.5 5.63953 2.80598
    endloop
  endfacet
  facet normal 1 0 0
    outer loop
      vertex 59.5 3.78521 2.05665
      vertex 59.5 5.63953 2.80598
      vertex 59.5 5.34289 3.65682
    endloop
  endfacet
  facet normal 1 0 0
    outer loop
      vertex 59.5 3.78521 2.05665
      vertex 59.5 5.34289 3.65682
      vertex 59.5 5.0625 4.51421
    endloop
  endfacet
  facet normal 1 -0 0
    outer loop
      vertex 59.5 2.0495 8.1502
      vertex 59.5 4.10311 8.00936
      vertex 59.5 3.90382 8.89952
    endloop
  endfacet
  facet normal 1 0 0
    outer loop
      vertex 59.5 3.78521 2.05665
      vertex 59.5 4.31862 7.12573
      vertex 59.5 4.10311 8.00936
    endloop
  endfacet
  facet normal 1 0 0
    outer loop
      vertex 59.5 3.78521 2.05665
      vertex 59.5 4.55034 6.24867
      vertex 59.5 4.31862 7.12573
    endloop
  endfacet
  facet normal 1 0 0
    outer loop
      vertex 59.5 3.78521 2.05665
      vertex 59.5 4.79831 5.37817
      vertex 59.5 4.55034 6.24867
    endloop
  endfacet
  facet normal 1 0 0
    outer loop
      vertex 59.5 3.78521 2.05665
      vertex 59.5 5.0625 4.51421
      vertex 59.5 4.79831 5.37817
    endloop
  endfacet
  facet normal 1 0 0
    outer loop
      vertex 59.5 5.9382 2
      vertex 59.5 3.8062 2
      vertex 59.5 6.5 0
    endloop
  endfacet
  facet normal 1 -0 0
    outer loop
      vertex 59.5 -3.8062 2
      vertex 59.5 6.5 0
      vertex 59.5 3.8062 2
    endloop
  endfacet
  facet normal 1 0 0
    outer loop
      vertex 59.5 -5.0625 4.51421
      vertex 59.5 -2.94399 4.62884
      vertex 59.5 -4.79831 5.37817
    endloop
  endfacet
  facet normal 1 0 0
    outer loop
      vertex 59.5 -2.94399 4.62884
      vertex 59.5 -5.0625 4.51421
      vertex 59.5 -3.20818 3.76489
    endloop
  endfacet
  facet normal 1 0 0
    outer loop
      vertex 59.5 -5.34289 3.65682
      vertex 59.5 -3.20818 3.76489
      vertex 59.5 -5.0625 4.51421
    endloop
  endfacet
  facet normal 1 0 0
    outer loop
      vertex 59.5 -3.20818 3.76489
      vertex 59.5 -5.34289 3.65682
      vertex 59.5 -3.48857 2.90749
    endloop
  endfacet
  facet normal 1 0 0
    outer loop
      vertex 59.5 -5.63953 2.80598
      vertex 59.5 -3.48857 2.90749
      vertex 59.5 -5.34289 3.65682
    endloop
  endfacet
  facet normal 1 0 0
    outer loop
      vertex 59.5 -3.48857 2.90749
      vertex 59.5 -5.63953 2.80598
      vertex 59.5 -3.78521 2.05665
    endloop
  endfacet
  facet normal 1 0 0
    outer loop
      vertex 59.5 -3.78521 2.05665
      vertex 59.5 -5.63953 2.80598
      vertex 59.5 -3.8062 2
    endloop
  endfacet
  facet normal 1 0 0
    outer loop
      vertex 59.5 -5.9382 2
      vertex 59.5 -3.8062 2
      vertex 59.5 -5.63953 2.80598
    endloop
  endfacet
  facet normal 1 0 0
    outer loop
      vertex 59.5 -6.5 0
      vertex 59.5 -3.8062 2
      vertex 59.5 -5.9382 2
    endloop
  endfacet
  facet normal 1 0 0
    outer loop
      vertex 59.5 -6.5 0
      vertex 59.5 -5.9382 2
      vertex 59.5 -6.5 2
    endloop
  endfacet
  facet normal 1 0 0
    outer loop
      vertex 59.5 -3.8062 2
      vertex 59.5 -6.5 0
      vertex 59.5 6.5 0
    endloop
  endfacet
  facet normal -0 0 1
    outer loop
      vertex -59.5 -5.9382 2
      vertex 59.5 -6.5 2
      vertex 59.5 -5.9382 2
    endloop
  endfacet
  facet normal 0 0 1
    outer loop
      vertex 59.5 -6.5 2
      vertex -59.5 -5.9382 2
      vertex -59.5 -6.5 2
    endloop
  endfacet
  facet normal -0 0 1
    outer loop
      vertex -59.5 6.5 2
      vertex 59.5 5.9382 2
      vertex 59.5 6.5 2
    endloop
  endfacet
  facet normal 0 0 1
    outer loop
      vertex 59.5 5.9382 2
      vertex -59.5 6.5 2
      vertex -59.5 5.9382 2
    endloop
  endfacet
  facet normal -0 0 1
    outer loop
      vertex -59.5 3.8062 2
      vertex 59.5 -3.8062 2
      vertex 59.5 3.8062 2
    endloop
  endfacet
  facet normal 0 0 1
    outer loop
      vertex 59.5 -3.8062 2
      vertex -59.5 3.8062 2
      vertex -59.5 -3.8062 2
    endloop
  endfacet
  facet normal 0 0 -1
    outer loop
      vertex -59.5 -6.5 0
      vertex 59.5 6.5 0
      vertex 59.5 -6.5 0
    endloop
  endfacet
  facet normal -0 0 -1
    outer loop
      vertex 59.5 6.5 0
      vertex -59.5 -6.5 0
      vertex -59.5 6.5 0
    endloop
  endfacet
  facet normal 0 1 -0
    outer loop
      vertex 59.5 6.5 0
      vertex -59.5 6.5 2
      vertex 59.5 6.5 2
    endloop
  endfacet
  facet normal 0 1 0
    outer loop
      vertex -59.5 6.5 2
      vertex 59.5 6.5 0
      vertex -59.5 6.5 0
    endloop
  endfacet
  facet normal 0 -1 0
    outer loop
      vertex -59.5 -6.5 0
      vertex 59.5 -6.5 2
      vertex -59.5 -6.5 2
    endloop
  endfacet
  facet normal 0 -1 -0
    outer loop
      vertex 59.5 -6.5 2
      vertex -59.5 -6.5 0
      vertex 59.5 -6.5 0
    endloop
  endfacet
  facet normal 0 -0.937689 0.347477
    outer loop
      vertex -59.5 -5.9382 2
      vertex 59.5 -5.63953 2.80598
      vertex -59.5 -5.63953 2.80598
    endloop
  endfacet
  facet normal 0 -0.937689 0.347477
    outer loop
      vertex 59.5 -5.63953 2.80598
      vertex -59.5 -5.9382 2
      vertex 59.5 -5.9382 2
    endloop
  endfacet
  facet normal 0 -0.944257 0.329209
    outer loop
      vertex -59.5 -5.63953 2.80598
      vertex 59.5 -5.34289 3.65682
      vertex -59.5 -5.34289 3.65682
    endloop
  endfacet
  facet normal 0 -0.944257 0.329209
    outer loop
      vertex 59.5 -5.34289 3.65682
      vertex -59.5 -5.63953 2.80598
      vertex 59.5 -5.63953 2.80598
    endloop
  endfacet
  facet normal 0 -0.950466 0.310828
    outer loop
      vertex -59.5 -5.34289 3.65682
      vertex 59.5 -5.0625 4.51421
      vertex -59.5 -5.0625 4.51421
    endloop
  endfacet
  facet normal 0 -0.950466 0.310828
    outer loop
      vertex 59.5 -5.0625 4.51421
      vertex -59.5 -5.34289 3.65682
      vertex 59.5 -5.34289 3.65682
    endloop
  endfacet
  facet normal 0 -0.956289 0.292423
    outer loop
      vertex -59.5 -5.0625 4.51421
      vertex 59.5 -4.79831 5.37817
      vertex -59.5 -4.79831 5.37817
    endloop
  endfacet
  facet normal 0 -0.956289 0.292423
    outer loop
      vertex 59.5 -4.79831 5.37817
      vertex -59.5 -5.0625 4.51421
      vertex 59.5 -5.0625 4.51421
    endloop
  endfacet
  facet normal 0 -0.961741 0.273961
    outer loop
      vertex -59.5 -4.79831 5.37817
      vertex 59.5 -4.55034 6.24867
      vertex -59.5 -4.55034 6.24867
    endloop
  endfacet
  facet normal 0 -0.961741 0.273961
    outer loop
      vertex 59.5 -4.55034 6.24867
      vertex -59.5 -4.79831 5.37817
      vertex 59.5 -4.79831 5.37817
    endloop
  endfacet
  facet normal 0 -0.966826 0.255436
    outer loop
      vertex -59.5 -4.55034 6.24867
      vertex 59.5 -4.31862 7.12573
      vertex -59.5 -4.31862 7.12573
    endloop
  endfacet
  facet normal 0 -0.966826 0.255436
    outer loop
      vertex 59.5 -4.31862 7.12573
      vertex -59.5 -4.55034 6.24867
      vertex 59.5 -4.55034 6.24867
    endloop
  endfacet
  facet normal 0 -0.971523 0.236946
    outer loop
      vertex -59.5 -4.31862 7.12573
      vertex 59.5 -4.10311 8.00936
      vertex -59.5 -4.10311 8.00936
    endloop
  endfacet
  facet normal 0 -0.971523 0.236946
    outer loop
      vertex 59.5 -4.10311 8.00936
      vertex -59.5 -4.31862 7.12573
      vertex 59.5 -4.31862 7.12573
    endloop
  endfacet
  facet normal 0 -0.975843 0.218473
    outer loop
      vertex -59.5 -4.10311 8.00936
      vertex 59.5 -3.90382 8.89952
      vertex -59.5 -3.90382 8.89952
    endloop
  endfacet
  facet normal 0 -0.975843 0.218473
    outer loop
      vertex 59.5 -3.90382 8.89952
      vertex -59.5 -4.10311 8.00936
      vertex 59.5 -4.10311 8.00936
    endloop
  endfacet
  facet normal 0 -0.979796 0.200002
    outer loop
      vertex -59.5 -3.90382 8.89952
      vertex 59.5 -3.72077 9.79627
      vertex -59.5 -3.72077 9.79627
    endloop
  endfacet
  facet normal 0 -0.979796 0.200002
    outer loop
      vertex 59.5 -3.72077 9.79627
      vertex -59.5 -3.90382 8.89952
      vertex 59.5 -3.90382 8.89952
    endloop
  endfacet
  facet normal 0 -0.98337 0.181612
    outer loop
      vertex -59.5 -3.72077 9.79627
      vertex 59.5 -3.55394 10.6996
      vertex -59.5 -3.55394 10.6996
    endloop
  endfacet
  facet normal 0 -0.98337 0.181612
    outer loop
      vertex 59.5 -3.55394 10.6996
      vertex -59.5 -3.72077 9.79627
      vertex 59.5 -3.72077 9.79627
    endloop
  endfacet
  facet normal 0 -0.986573 0.163319
    outer loop
      vertex -59.5 -3.55394 10.6996
      vertex 59.5 -3.40333 11.6094
      vertex -59.5 -3.40333 11.6094
    endloop
  endfacet
  facet normal 0 -0.986573 0.163319
    outer loop
      vertex 59.5 -3.40333 11.6094
      vertex -59.5 -3.55394 10.6996
      vertex 59.5 -3.55394 10.6996
    endloop
  endfacet
  facet normal 0 -0.989419 0.145087
    outer loop
      vertex -59.5 -3.40333 11.6094
      vertex 59.5 -3.26895 12.5258
      vertex -59.5 -3.26895 12.5258
    endloop
  endfacet
  facet normal 0 -0.989419 0.145087
    outer loop
      vertex 59.5 -3.26895 12.5258
      vertex -59.5 -3.40333 11.6094
      vertex 59.5 -3.40333 11.6094
    endloop
  endfacet
  facet normal 0 -0.991906 0.12697
    outer loop
      vertex -59.5 -3.26895 12.5258
      vertex 59.5 -3.1508 13.4488
      vertex -59.5 -3.1508 13.4488
    endloop
  endfacet
  facet normal 0 -0.991906 0.12697
    outer loop
      vertex 59.5 -3.1508 13.4488
      vertex -59.5 -3.26895 12.5258
      vertex 59.5 -3.26895 12.5258
    endloop
  endfacet
  facet normal 0 -0.994041 0.109008
    outer loop
      vertex -59.5 -3.1508 13.4488
      vertex 59.5 -3.04887 14.3783
      vertex -59.5 -3.04887 14.3783
    endloop
  endfacet
  facet normal 0 -0.994041 0.109008
    outer loop
      vertex 59.5 -3.04887 14.3783
      vertex -59.5 -3.1508 13.4488
      vertex 59.5 -3.1508 13.4488
    endloop
  endfacet
  facet normal 0 -0.995833 0.0911995
    outer loop
      vertex -59.5 -3.04887 14.3783
      vertex 59.5 -2.96315 15.3143
      vertex -59.5 -2.96315 15.3143
    endloop
  endfacet
  facet normal 0 -0.995833 0.0911995
    outer loop
      vertex 59.5 -2.96315 15.3143
      vertex -59.5 -3.04887 14.3783
      vertex 59.5 -3.04887 14.3783
    endloop
  endfacet
  facet normal 0 -0.997296 0.0734933
    outer loop
      vertex -59.5 -2.96315 15.3143
      vertex 59.5 -2.89368 16.257
      vertex -59.5 -2.89368 16.257
    endloop
  endfacet
  facet normal 0 -0.997296 0.0734933
    outer loop
      vertex 59.5 -2.89368 16.257
      vertex -59.5 -2.96315 15.3143
      vertex 59.5 -2.96315 15.3143
    endloop
  endfacet
  facet normal 0 -0.99843 0.0560223
    outer loop
      vertex -59.5 -2.89368 16.257
      vertex 59.5 -2.84042 17.2062
      vertex -59.5 -2.84042 17.2062
    endloop
  endfacet
  facet normal 0 -0.99843 0.0560223
    outer loop
      vertex 59.5 -2.84042 17.2062
      vertex -59.5 -2.89368 16.257
      vertex 59.5 -2.89368 16.257
    endloop
  endfacet
  facet normal 0 -0.99925 0.0387174
    outer loop
      vertex -59.5 -2.84042 17.2062
      vertex 59.5 -2.80339 18.1619
      vertex -59.5 -2.80339 18.1619
    endloop
  endfacet
  facet normal 0 -0.99925 0.0387174
    outer loop
      vertex 59.5 -2.80339 18.1619
      vertex -59.5 -2.84042 17.2062
      vertex 59.5 -2.84042 17.2062
    endloop
  endfacet
  facet normal 0 -0.999766 0.0216098
    outer loop
      vertex -59.5 -2.80339 18.1619
      vertex 59.5 -2.78259 19.1242
      vertex -59.5 -2.78259 19.1242
    endloop
  endfacet
  facet normal 0 -0.999766 0.0216098
    outer loop
      vertex 59.5 -2.78259 19.1242
      vertex -59.5 -2.80339 18.1619
      vertex 59.5 -2.80339 18.1619
    endloop
  endfacet
  facet normal -0 0.374653 0.927165
    outer loop
      vertex -59.5 -0.928272 18.3749
      vertex 59.5 -2.78259 19.1242
      vertex 59.5 -0.928272 18.3749
    endloop
  endfacet
  facet normal 0 0.374653 0.927165
    outer loop
      vertex 59.5 -2.78259 19.1242
      vertex -59.5 -0.928272 18.3749
      vertex -59.5 -2.78259 19.1242
    endloop
  endfacet
  facet normal 0 0.999767 -0.0216057
    outer loop
      vertex 59.5 -0.949068 17.4126
      vertex -59.5 -0.928272 18.3749
      vertex 59.5 -0.928272 18.3749
    endloop
  endfacet
  facet normal 0 0.999767 -0.0216057
    outer loop
      vertex -59.5 -0.928272 18.3749
      vertex 59.5 -0.949068 17.4126
      vertex -59.5 -0.949068 17.4126
    endloop
  endfacet
  facet normal 0 0.99925 -0.0387144
    outer loop
      vertex 59.5 -0.986099 16.4568
      vertex -59.5 -0.949068 17.4126
      vertex 59.5 -0.949068 17.4126
    endloop
  endfacet
  facet normal 0 0.99925 -0.0387144
    outer loop
      vertex -59.5 -0.949068 17.4126
      vertex 59.5 -0.986099 16.4568
      vertex -59.5 -0.986099 16.4568
    endloop
  endfacet
  facet normal 0 0.998429 -0.0560233
    outer loop
      vertex 59.5 -1.03936 15.5076
      vertex -59.5 -0.986099 16.4568
      vertex 59.5 -0.986099 16.4568
    endloop
  endfacet
  facet normal 0 0.998429 -0.0560233
    outer loop
      vertex -59.5 -0.986099 16.4568
      vertex 59.5 -1.03936 15.5076
      vertex -59.5 -1.03936 15.5076
    endloop
  endfacet
  facet normal 0 0.997295 -0.0735011
    outer loop
      vertex 59.5 -1.10883 14.565
      vertex -59.5 -1.03936 15.5076
      vertex 59.5 -1.03936 15.5076
    endloop
  endfacet
  facet normal 0 0.997295 -0.0735011
    outer loop
      vertex -59.5 -1.03936 15.5076
      vertex 59.5 -1.10883 14.565
      vertex -59.5 -1.10883 14.565
    endloop
  endfacet
  facet normal 0 0.995833 -0.0911995
    outer loop
      vertex 59.5 -1.19455 13.629
      vertex -59.5 -1.10883 14.565
      vertex 59.5 -1.10883 14.565
    endloop
  endfacet
  facet normal 0 0.995833 -0.0911995
    outer loop
      vertex -59.5 -1.10883 14.565
      vertex 59.5 -1.19455 13.629
      vertex -59.5 -1.19455 13.629
    endloop
  endfacet
  facet normal 0 0.994042 -0.108996
    outer loop
      vertex 59.5 -1.29648 12.6994
      vertex -59.5 -1.19455 13.629
      vertex 59.5 -1.19455 13.629
    endloop
  endfacet
  facet normal 0 0.994042 -0.108996
    outer loop
      vertex -59.5 -1.19455 13.629
      vertex 59.5 -1.29648 12.6994
      vertex -59.5 -1.29648 12.6994
    endloop
  endfacet
  facet normal 0 0.991905 -0.126984
    outer loop
      vertex 59.5 -1.41463 11.7765
      vertex -59.5 -1.29648 12.6994
      vertex 59.5 -1.29648 12.6994
    endloop
  endfacet
  facet normal 0 0.991905 -0.126984
    outer loop
      vertex -59.5 -1.29648 12.6994
      vertex 59.5 -1.41463 11.7765
      vertex -59.5 -1.41463 11.7765
    endloop
  endfacet
  facet normal 0 0.989419 -0.145087
    outer loop
      vertex 59.5 -1.54901 10.8601
      vertex -59.5 -1.41463 11.7765
      vertex 59.5 -1.41463 11.7765
    endloop
  endfacet
  facet normal 0 0.989419 -0.145087
    outer loop
      vertex -59.5 -1.41463 11.7765
      vertex 59.5 -1.54901 10.8601
      vertex -59.5 -1.54901 10.8601
    endloop
  endfacet
  facet normal 0 0.986576 -0.163305
    outer loop
      vertex 59.5 -1.69962 9.95022
      vertex -59.5 -1.54901 10.8601
      vertex 59.5 -1.54901 10.8601
    endloop
  endfacet
  facet normal 0 0.986576 -0.163305
    outer loop
      vertex -59.5 -1.54901 10.8601
      vertex 59.5 -1.69962 9.95022
      vertex -59.5 -1.69962 9.95022
    endloop
  endfacet
  facet normal 0 0.983368 -0.181622
    outer loop
      vertex 59.5 -1.86645 9.04694
      vertex -59.5 -1.69962 9.95022
      vertex 59.5 -1.69962 9.95022
    endloop
  endfacet
  facet normal 0 0.983368 -0.181622
    outer loop
      vertex -59.5 -1.69962 9.95022
      vertex 59.5 -1.86645 9.04694
      vertex -59.5 -1.86645 9.04694
    endloop
  endfacet
  facet normal 0 0.979795 -0.200004
    outer loop
      vertex 59.5 -2.0495 8.1502
      vertex -59.5 -1.86645 9.04694
      vertex 59.5 -1.86645 9.04694
    endloop
  endfacet
  facet normal 0 0.979795 -0.200004
    outer loop
      vertex -59.5 -1.86645 9.04694
      vertex 59.5 -2.0495 8.1502
      vertex -59.5 -2.0495 8.1502
    endloop
  endfacet
  facet normal 0 0.975844 -0.21847
    outer loop
      vertex 59.5 -2.24879 7.26003
      vertex -59.5 -2.0495 8.1502
      vertex 59.5 -2.0495 8.1502
    endloop
  endfacet
  facet normal 0 0.975844 -0.21847
    outer loop
      vertex -59.5 -2.0495 8.1502
      vertex 59.5 -2.24879 7.26003
      vertex -59.5 -2.24879 7.26003
    endloop
  endfacet
  facet normal 0 0.971525 -0.236936
    outer loop
      vertex 59.5 -2.46429 6.3764
      vertex -59.5 -2.24879 7.26003
      vertex 59.5 -2.24879 7.26003
    endloop
  endfacet
  facet normal 0 0.971525 -0.236936
    outer loop
      vertex -59.5 -2.24879 7.26003
      vertex 59.5 -2.46429 6.3764
      vertex -59.5 -2.46429 6.3764
    endloop
  endfacet
  facet normal 0 0.966823 -0.255447
    outer loop
      vertex 59.5 -2.69602 5.49934
      vertex -59.5 -2.46429 6.3764
      vertex 59.5 -2.46429 6.3764
    endloop
  endfacet
  facet normal 0 0.966823 -0.255447
    outer loop
      vertex -59.5 -2.46429 6.3764
      vertex 59.5 -2.69602 5.49934
      vertex -59.5 -2.69602 5.49934
    endloop
  endfacet
  facet normal 0 0.961741 -0.273961
    outer loop
      vertex 59.5 -2.94399 4.62884
      vertex -59.5 -2.69602 5.49934
      vertex 59.5 -2.69602 5.49934
    endloop
  endfacet
  facet normal 0 0.961741 -0.273961
    outer loop
      vertex -59.5 -2.69602 5.49934
      vertex 59.5 -2.94399 4.62884
      vertex -59.5 -2.94399 4.62884
    endloop
  endfacet
  facet normal 0 0.956288 -0.292426
    outer loop
      vertex 59.5 -3.20818 3.76489
      vertex -59.5 -2.94399 4.62884
      vertex 59.5 -2.94399 4.62884
    endloop
  endfacet
  facet normal 0 0.956288 -0.292426
    outer loop
      vertex -59.5 -2.94399 4.62884
      vertex 59.5 -3.20818 3.76489
      vertex -59.5 -3.20818 3.76489
    endloop
  endfacet
  facet normal 0 0.950467 -0.310825
    outer loop
      vertex 59.5 -3.48857 2.90749
      vertex -59.5 -3.20818 3.76489
      vertex 59.5 -3.20818 3.76489
    endloop
  endfacet
  facet normal 0 0.950467 -0.310825
    outer loop
      vertex -59.5 -3.20818 3.76489
      vertex 59.5 -3.48857 2.90749
      vertex -59.5 -3.48857 2.90749
    endloop
  endfacet
  facet normal 0 0.944257 -0.329209
    outer loop
      vertex 59.5 -3.78521 2.05665
      vertex -59.5 -3.48857 2.90749
      vertex 59.5 -3.48857 2.90749
    endloop
  endfacet
  facet normal 0 0.944257 -0.329209
    outer loop
      vertex -59.5 -3.48857 2.90749
      vertex 59.5 -3.78521 2.05665
      vertex -59.5 -3.78521 2.05665
    endloop
  endfacet
  facet normal 0 0.937703 -0.347438
    outer loop
      vertex 59.5 -3.8062 2
      vertex -59.5 -3.78521 2.05665
      vertex 59.5 -3.78521 2.05665
    endloop
  endfacet
  facet normal 0 0.937703 -0.347438
    outer loop
      vertex -59.5 -3.78521 2.05665
      vertex 59.5 -3.8062 2
      vertex -59.5 -3.8062 2
    endloop
  endfacet
  facet normal 0 0.937689 0.347477
    outer loop
      vertex 59.5 5.9382 2
      vertex -59.5 5.63953 2.80598
      vertex 59.5 5.63953 2.80598
    endloop
  endfacet
  facet normal 0 0.937689 0.347477
    outer loop
      vertex -59.5 5.63953 2.80598
      vertex 59.5 5.9382 2
      vertex -59.5 5.9382 2
    endloop
  endfacet
  facet normal 0 0.944257 0.329209
    outer loop
      vertex 59.5 5.63953 2.80598
      vertex -59.5 5.34289 3.65682
      vertex 59.5 5.34289 3.65682
    endloop
  endfacet
  facet normal 0 0.944257 0.329209
    outer loop
      vertex -59.5 5.34289 3.65682
      vertex 59.5 5.63953 2.80598
      vertex -59.5 5.63953 2.80598
    endloop
  endfacet
  facet normal 0 0.950466 0.310828
    outer loop
      vertex 59.5 5.34289 3.65682
      vertex -59.5 5.0625 4.51421
      vertex 59.5 5.0625 4.51421
    endloop
  endfacet
  facet normal 0 0.950466 0.310828
    outer loop
      vertex -59.5 5.0625 4.51421
      vertex 59.5 5.34289 3.65682
      vertex -59.5 5.34289 3.65682
    endloop
  endfacet
  facet normal 0 0.956289 0.292423
    outer loop
      vertex 59.5 5.0625 4.51421
      vertex -59.5 4.79831 5.37817
      vertex 59.5 4.79831 5.37817
    endloop
  endfacet
  facet normal 0 0.956289 0.292423
    outer loop
      vertex -59.5 4.79831 5.37817
      vertex 59.5 5.0625 4.51421
      vertex -59.5 5.0625 4.51421
    endloop
  endfacet
  facet normal 0 0.961741 0.273961
    outer loop
      vertex 59.5 4.79831 5.37817
      vertex -59.5 4.55034 6.24867
      vertex 59.5 4.55034 6.24867
    endloop
  endfacet
  facet normal 0 0.961741 0.273961
    outer loop
      vertex -59.5 4.55034 6.24867
      vertex 59.5 4.79831 5.37817
      vertex -59.5 4.79831 5.37817
    endloop
  endfacet
  facet normal 0 0.966826 0.255436
    outer loop
      vertex 59.5 4.55034 6.24867
      vertex -59.5 4.31862 7.12573
      vertex 59.5 4.31862 7.12573
    endloop
  endfacet
  facet normal 0 0.966826 0.255436
    outer loop
      vertex -59.5 4.31862 7.12573
      vertex 59.5 4.55034 6.24867
      vertex -59.5 4.55034 6.24867
    endloop
  endfacet
  facet normal 0 0.971523 0.236946
    outer loop
      vertex 59.5 4.31862 7.12573
      vertex -59.5 4.10311 8.00936
      vertex 59.5 4.10311 8.00936
    endloop
  endfacet
  facet normal 0 0.971523 0.236946
    outer loop
      vertex -59.5 4.10311 8.00936
      vertex 59.5 4.31862 7.12573
      vertex -59.5 4.31862 7.12573
    endloop
  endfacet
  facet normal 0 0.975843 0.218473
    outer loop
      vertex 59.5 4.10311 8.00936
      vertex -59.5 3.90382 8.89952
      vertex 59.5 3.90382 8.89952
    endloop
  endfacet
  facet normal 0 0.975843 0.218473
    outer loop
      vertex -59.5 3.90382 8.89952
      vertex 59.5 4.10311 8.00936
      vertex -59.5 4.10311 8.00936
    endloop
  endfacet
  facet normal 0 0.979796 0.200002
    outer loop
      vertex 59.5 3.90382 8.89952
      vertex -59.5 3.72077 9.79627
      vertex 59.5 3.72077 9.79627
    endloop
  endfacet
  facet normal 0 0.979796 0.200002
    outer loop
      vertex -59.5 3.72077 9.79627
      vertex 59.5 3.90382 8.89952
      vertex -59.5 3.90382 8.89952
    endloop
  endfacet
  facet normal 0 0.98337 0.181612
    outer loop
      vertex 59.5 3.72077 9.79627
      vertex -59.5 3.55394 10.6996
      vertex 59.5 3.55394 10.6996
    endloop
  endfacet
  facet normal 0 0.98337 0.181612
    outer loop
      vertex -59.5 3.55394 10.6996
      vertex 59.5 3.72077 9.79627
      vertex -59.5 3.72077 9.79627
    endloop
  endfacet
  facet normal 0 0.986573 0.163319
    outer loop
      vertex 59.5 3.55394 10.6996
      vertex -59.5 3.40333 11.6094
      vertex 59.5 3.40333 11.6094
    endloop
  endfacet
  facet normal 0 0.986573 0.163319
    outer loop
      vertex -59.5 3.40333 11.6094
      vertex 59.5 3.55394 10.6996
      vertex -59.5 3.55394 10.6996
    endloop
  endfacet
  facet normal 0 0.989419 0.145087
    outer loop
      vertex 59.5 3.40333 11.6094
      vertex -59.5 3.26895 12.5258
      vertex 59.5 3.26895 12.5258
    endloop
  endfacet
  facet normal 0 0.989419 0.145087
    outer loop
      vertex -59.5 3.26895 12.5258
      vertex 59.5 3.40333 11.6094
      vertex -59.5 3.40333 11.6094
    endloop
  endfacet
  facet normal 0 0.991906 0.12697
    outer loop
      vertex 59.5 3.26895 12.5258
      vertex -59.5 3.1508 13.4488
      vertex 59.5 3.1508 13.4488
    endloop
  endfacet
  facet normal 0 0.991906 0.12697
    outer loop
      vertex -59.5 3.1508 13.4488
      vertex 59.5 3.26895 12.5258
      vertex -59.5 3.26895 12.5258
    endloop
  endfacet
  facet normal 0 0.994041 0.109008
    outer loop
      vertex 59.5 3.1508 13.4488
      vertex -59.5 3.04887 14.3783
      vertex 59.5 3.04887 14.3783
    endloop
  endfacet
  facet normal 0 0.994041 0.109008
    outer loop
      vertex -59.5 3.04887 14.3783
      vertex 59.5 3.1508 13.4488
      vertex -59.5 3.1508 13.4488
    endloop
  endfacet
  facet normal 0 0.995833 0.0911995
    outer loop
      vertex 59.5 3.04887 14.3783
      vertex -59.5 2.96315 15.3143
      vertex 59.5 2.96315 15.3143
    endloop
  endfacet
  facet normal 0 0.995833 0.0911995
    outer loop
      vertex -59.5 2.96315 15.3143
      vertex 59.5 3.04887 14.3783
      vertex -59.5 3.04887 14.3783
    endloop
  endfacet
  facet normal 0 0.997296 0.0734933
    outer loop
      vertex 59.5 2.96315 15.3143
      vertex -59.5 2.89368 16.257
      vertex 59.5 2.89368 16.257
    endloop
  endfacet
  facet normal 0 0.997296 0.0734933
    outer loop
      vertex -59.5 2.89368 16.257
      vertex 59.5 2.96315 15.3143
      vertex -59.5 2.96315 15.3143
    endloop
  endfacet
  facet normal 0 0.99843 0.0560223
    outer loop
      vertex 59.5 2.89368 16.257
      vertex -59.5 2.84042 17.2062
      vertex 59.5 2.84042 17.2062
    endloop
  endfacet
  facet normal 0 0.99843 0.0560223
    outer loop
      vertex -59.5 2.84042 17.2062
      vertex 59.5 2.89368 16.257
      vertex -59.5 2.89368 16.257
    endloop
  endfacet
  facet normal 0 0.99925 0.0387174
    outer loop
      vertex 59.5 2.84042 17.2062
      vertex -59.5 2.80339 18.1619
      vertex 59.5 2.80339 18.1619
    endloop
  endfacet
  facet normal 0 0.99925 0.0387174
    outer loop
      vertex -59.5 2.80339 18.1619
      vertex 59.5 2.84042 17.2062
      vertex -59.5 2.84042 17.2062
    endloop
  endfacet
  facet normal 0 0.999766 0.0216098
    outer loop
      vertex 59.5 2.80339 18.1619
      vertex -59.5 2.78259 19.1242
      vertex 59.5 2.78259 19.1242
    endloop
  endfacet
  facet normal 0 0.999766 0.0216098
    outer loop
      vertex -59.5 2.78259 19.1242
      vertex 59.5 2.80339 18.1619
      vertex -59.5 2.80339 18.1619
    endloop
  endfacet
  facet normal 0 -0.374653 0.927165
    outer loop
      vertex -59.5 2.78259 19.1242
      vertex 59.5 0.928272 18.3749
      vertex 59.5 2.78259 19.1242
    endloop
  endfacet
  facet normal 0 -0.374653 0.927165
    outer loop
      vertex 59.5 0.928272 18.3749
      vertex -59.5 2.78259 19.1242
      vertex -59.5 0.928272 18.3749
    endloop
  endfacet
  facet normal 0 -0.999767 -0.0216057
    outer loop
      vertex -59.5 0.949068 17.4126
      vertex 59.5 0.928272 18.3749
      vertex -59.5 0.928272 18.3749
    endloop
  endfacet
  facet normal 0 -0.999767 -0.0216057
    outer loop
      vertex 59.5 0.928272 18.3749
      vertex -59.5 0.949068 17.4126
      vertex 59.5 0.949068 17.4126
    endloop
  endfacet
  facet normal 0 -0.99925 -0.0387144
    outer loop
      vertex -59.5 0.986099 16.4568
      vertex 59.5 0.949068 17.4126
      vertex -59.5 0.949068 17.4126
    endloop
  endfacet
  facet normal 0 -0.99925 -0.0387144
    outer loop
      vertex 59.5 0.949068 17.4126
      vertex -59.5 0.986099 16.4568
      vertex 59.5 0.986099 16.4568
    endloop
  endfacet
  facet normal 0 -0.998429 -0.0560233
    outer loop
      vertex -59.5 1.03936 15.5076
      vertex 59.5 0.986099 16.4568
      vertex -59.5 0.986099 16.4568
    endloop
  endfacet
  facet normal 0 -0.998429 -0.0560233
    outer loop
      vertex 59.5 0.986099 16.4568
      vertex -59.5 1.03936 15.5076
      vertex 59.5 1.03936 15.5076
    endloop
  endfacet
  facet normal 0 -0.997295 -0.0735011
    outer loop
      vertex -59.5 1.10883 14.565
      vertex 59.5 1.03936 15.5076
      vertex -59.5 1.03936 15.5076
    endloop
  endfacet
  facet normal 0 -0.997295 -0.0735011
    outer loop
      vertex 59.5 1.03936 15.5076
      vertex -59.5 1.10883 14.565
      vertex 59.5 1.10883 14.565
    endloop
  endfacet
  facet normal 0 -0.995833 -0.0911995
    outer loop
      vertex -59.5 1.19455 13.629
      vertex 59.5 1.10883 14.565
      vertex -59.5 1.10883 14.565
    endloop
  endfacet
  facet normal 0 -0.995833 -0.0911995
    outer loop
      vertex 59.5 1.10883 14.565
      vertex -59.5 1.19455 13.629
      vertex 59.5 1.19455 13.629
    endloop
  endfacet
  facet normal 0 -0.994042 -0.108996
    outer loop
      vertex -59.5 1.29648 12.6994
      vertex 59.5 1.19455 13.629
      vertex -59.5 1.19455 13.629
    endloop
  endfacet
  facet normal 0 -0.994042 -0.108996
    outer loop
      vertex 59.5 1.19455 13.629
      vertex -59.5 1.29648 12.6994
      vertex 59.5 1.29648 12.6994
    endloop
  endfacet
  facet normal 0 -0.991905 -0.126984
    outer loop
      vertex -59.5 1.41463 11.7765
      vertex 59.5 1.29648 12.6994
      vertex -59.5 1.29648 12.6994
    endloop
  endfacet
  facet normal 0 -0.991905 -0.126984
    outer loop
      vertex 59.5 1.29648 12.6994
      vertex -59.5 1.41463 11.7765
      vertex 59.5 1.41463 11.7765
    endloop
  endfacet
  facet normal 0 -0.989419 -0.145087
    outer loop
      vertex -59.5 1.54901 10.8601
      vertex 59.5 1.41463 11.7765
      vertex -59.5 1.41463 11.7765
    endloop
  endfacet
  facet normal 0 -0.989419 -0.145087
    outer loop
      vertex 59.5 1.41463 11.7765
      vertex -59.5 1.54901 10.8601
      vertex 59.5 1.54901 10.8601
    endloop
  endfacet
  facet normal 0 -0.986576 -0.163305
    outer loop
      vertex -59.5 1.69962 9.95022
      vertex 59.5 1.54901 10.8601
      vertex -59.5 1.54901 10.8601
    endloop
  endfacet
  facet normal 0 -0.986576 -0.163305
    outer loop
      vertex 59.5 1.54901 10.8601
      vertex -59.5 1.69962 9.95022
      vertex 59.5 1.69962 9.95022
    endloop
  endfacet
  facet normal 0 -0.983368 -0.181622
    outer loop
      vertex -59.5 1.86645 9.04694
      vertex 59.5 1.69962 9.95022
      vertex -59.5 1.69962 9.95022
    endloop
  endfacet
  facet normal 0 -0.983368 -0.181622
    outer loop
      vertex 59.5 1.69962 9.95022
      vertex -59.5 1.86645 9.04694
      vertex 59.5 1.86645 9.04694
    endloop
  endfacet
  facet normal 0 -0.979795 -0.200004
    outer loop
      vertex -59.5 2.0495 8.1502
      vertex 59.5 1.86645 9.04694
      vertex -59.5 1.86645 9.04694
    endloop
  endfacet
  facet normal 0 -0.979795 -0.200004
    outer loop
      vertex 59.5 1.86645 9.04694
      vertex -59.5 2.0495 8.1502
      vertex 59.5 2.0495 8.1502
    endloop
  endfacet
  facet normal 0 -0.975844 -0.21847
    outer loop
      vertex -59.5 2.24879 7.26003
      vertex 59.5 2.0495 8.1502
      vertex -59.5 2.0495 8.1502
    endloop
  endfacet
  facet normal 0 -0.975844 -0.21847
    outer loop
      vertex 59.5 2.0495 8.1502
      vertex -59.5 2.24879 7.26003
      vertex 59.5 2.24879 7.26003
    endloop
  endfacet
  facet normal 0 -0.971525 -0.236936
    outer loop
      vertex -59.5 2.46429 6.3764
      vertex 59.5 2.24879 7.26003
      vertex -59.5 2.24879 7.26003
    endloop
  endfacet
  facet normal 0 -0.971525 -0.236936
    outer loop
      vertex 59.5 2.24879 7.26003
      vertex -59.5 2.46429 6.3764
      vertex 59.5 2.46429 6.3764
    endloop
  endfacet
  facet normal 0 -0.966823 -0.255447
    outer loop
      vertex -59.5 2.69602 5.49934
      vertex 59.5 2.46429 6.3764
      vertex -59.5 2.46429 6.3764
    endloop
  endfacet
  facet normal 0 -0.966823 -0.255447
    outer loop
      vertex 59.5 2.46429 6.3764
      vertex -59.5 2.69602 5.49934
      vertex 59.5 2.69602 5.49934
    endloop
  endfacet
  facet normal 0 -0.961741 -0.273961
    outer loop
      vertex -59.5 2.94399 4.62884
      vertex 59.5 2.69602 5.49934
      vertex -59.5 2.69602 5.49934
    endloop
  endfacet
  facet normal 0 -0.961741 -0.273961
    outer loop
      vertex 59.5 2.69602 5.49934
      vertex -59.5 2.94399 4.62884
      vertex 59.5 2.94399 4.62884
    endloop
  endfacet
  facet normal 0 -0.956288 -0.292426
    outer loop
      vertex -59.5 3.20818 3.76489
      vertex 59.5 2.94399 4.62884
      vertex -59.5 2.94399 4.62884
    endloop
  endfacet
  facet normal 0 -0.956288 -0.292426
    outer loop
      vertex 59.5 2.94399 4.62884
      vertex -59.5 3.20818 3.76489
      vertex 59.5 3.20818 3.76489
    endloop
  endfacet
  facet normal 0 -0.950467 -0.310825
    outer loop
      vertex -59.5 3.48857 2.90749
      vertex 59.5 3.20818 3.76489
      vertex -59.5 3.20818 3.76489
    endloop
  endfacet
  facet normal 0 -0.950467 -0.310825
    outer loop
      vertex 59.5 3.20818 3.76489
      vertex -59.5 3.48857 2.90749
      vertex 59.5 3.48857 2.90749
    endloop
  endfacet
  facet normal 0 -0.944257 -0.329209
    outer loop
      vertex -59.5 3.78521 2.05665
      vertex 59.5 3.48857 2.90749
      vertex -59.5 3.48857 2.90749
    endloop
  endfacet
  facet normal 0 -0.944257 -0.329209
    outer loop
      vertex 59.5 3.48857 2.90749
      vertex -59.5 3.78521 2.05665
      vertex 59.5 3.78521 2.05665
    endloop
  endfacet
  facet normal 0 -0.937703 -0.347438
    outer loop
      vertex -59.5 3.8062 2
      vertex 59.5 3.78521 2.05665
      vertex -59.5 3.78521 2.05665
    endloop
  endfacet
  facet normal 0 -0.937703 -0.347438
    outer loop
      vertex 59.5 3.78521 2.05665
      vertex -59.5 3.8062 2
      vertex 59.5 3.8062 2
    endloop
  endfacet
  facet normal -1 0 0
    outer loop
      vertex -59.5 6.5 0
      vertex -59.5 5.9382 2
      vertex -59.5 6.5 2
    endloop
  endfacet
  facet normal -1 0 0
    outer loop
      vertex -59.5 3.8062 2
      vertex -59.5 5.9382 2
      vertex -59.5 6.5 0
    endloop
  endfacet
  facet normal -1 0 0
    outer loop
      vertex -59.5 5.9382 2
      vertex -59.5 3.8062 2
      vertex -59.5 5.63953 2.80598
    endloop
  endfacet
  facet normal -1 0 0
    outer loop
      vertex -59.5 3.78521 2.05665
      vertex -59.5 5.63953 2.80598
      vertex -59.5 3.8062 2
    endloop
  endfacet
  facet normal -1 0 0
    outer loop
      vertex -59.5 5.0625 4.51421
      vertex -59.5 2.94399 4.62884
      vertex -59.5 4.79831 5.37817
    endloop
  endfacet
  facet normal -1 0 0
    outer loop
      vertex -59.5 2.94399 4.62884
      vertex -59.5 5.0625 4.51421
      vertex -59.5 3.20818 3.76489
    endloop
  endfacet
  facet normal -1 0 0
    outer loop
      vertex -59.5 5.34289 3.65682
      vertex -59.5 3.20818 3.76489
      vertex -59.5 5.0625 4.51421
    endloop
  endfacet
  facet normal -1 0 0
    outer loop
      vertex -59.5 3.20818 3.76489
      vertex -59.5 5.34289 3.65682
      vertex -59.5 3.48857 2.90749
    endloop
  endfacet
  facet normal -1 0 0
    outer loop
      vertex -59.5 5.63953 2.80598
      vertex -59.5 3.48857 2.90749
      vertex -59.5 5.34289 3.65682
    endloop
  endfacet
  facet normal -1 0 0
    outer loop
      vertex -59.5 3.48857 2.90749
      vertex -59.5 5.63953 2.80598
      vertex -59.5 3.78521 2.05665
    endloop
  endfacet
  facet normal -1 0 0
    outer loop
      vertex -59.5 6.5 0
      vertex -59.5 -3.8062 2
      vertex -59.5 3.8062 2
    endloop
  endfacet
  facet normal -1 -0 0
    outer loop
      vertex -59.5 -2.0495 8.1502
      vertex -59.5 -4.10311 8.00936
      vertex -59.5 -3.90382 8.89952
    endloop
  endfacet
  facet normal -1 0 0
    outer loop
      vertex -59.5 -3.78521 2.05665
      vertex -59.5 -4.31862 7.12573
      vertex -59.5 -4.10311 8.00936
    endloop
  endfacet
  facet normal -1 0 0
    outer loop
      vertex -59.5 -3.78521 2.05665
      vertex -59.5 -4.55034 6.24867
      vertex -59.5 -4.31862 7.12573
    endloop
  endfacet
  facet normal -1 0 0
    outer loop
      vertex -59.5 -3.78521 2.05665
      vertex -59.5 -4.79831 5.37817
      vertex -59.5 -4.55034 6.24867
    endloop
  endfacet
  facet normal -1 0 0
    outer loop
      vertex -59.5 -3.78521 2.05665
      vertex -59.5 -5.0625 4.51421
      vertex -59.5 -4.79831 5.37817
    endloop
  endfacet
  facet normal -1 0 0
    outer loop
      vertex -59.5 -3.78521 2.05665
      vertex -59.5 -5.34289 3.65682
      vertex -59.5 -5.0625 4.51421
    endloop
  endfacet
  facet normal -1 0 0
    outer loop
      vertex -59.5 -3.78521 2.05665
      vertex -59.5 -5.63953 2.80598
      vertex -59.5 -5.34289 3.65682
    endloop
  endfacet
  facet normal -1 0 0
    outer loop
      vertex -59.5 -3.8062 2
      vertex -59.5 -5.9382 2
      vertex -59.5 -5.63953 2.80598
    endloop
  endfacet
  facet normal -1 0 0
    outer loop
      vertex -59.5 -6.5 0
      vertex -59.5 -3.8062 2
      vertex -59.5 6.5 0
    endloop
  endfacet
  facet normal -1 -0 0
    outer loop
      vertex -59.5 -3.8062 2
      vertex -59.5 -6.5 0
      vertex -59.5 -5.9382 2
    endloop
  endfacet
  facet normal -1 -0 0
    outer loop
      vertex -59.5 -5.9382 2
      vertex -59.5 -6.5 0
      vertex -59.5 -6.5 2
    endloop
  endfacet
  facet normal -1 0 0
    outer loop
      vertex -59.5 2.69602 5.49934
      vertex -59.5 4.79831 5.37817
      vertex -59.5 2.94399 4.62884
    endloop
  endfacet
  facet normal -1 0 0
    outer loop
      vertex -59.5 4.79831 5.37817
      vertex -59.5 2.69602 5.49934
      vertex -59.5 4.55034 6.24867
    endloop
  endfacet
  facet normal -1 0 0
    outer loop
      vertex -59.5 2.46429 6.3764
      vertex -59.5 4.55034 6.24867
      vertex -59.5 2.69602 5.49934
    endloop
  endfacet
  facet normal -1 0 0
    outer loop
      vertex -59.5 4.55034 6.24867
      vertex -59.5 2.46429 6.3764
      vertex -59.5 4.31862 7.12573
    endloop
  endfacet
  facet normal -1 0 0
    outer loop
      vertex -59.5 2.24879 7.26003
      vertex -59.5 4.31862 7.12573
      vertex -59.5 2.46429 6.3764
    endloop
  endfacet
  facet normal -1 0 0
    outer loop
      vertex -59.5 4.31862 7.12573
      vertex -59.5 2.24879 7.26003
      vertex -59.5 4.10311 8.00936
    endloop
  endfacet
  facet normal -1 0 0
    outer loop
      vertex -59.5 2.0495 8.1502
      vertex -59.5 4.10311 8.00936
      vertex -59.5 2.24879 7.26003
    endloop
  endfacet
  facet normal -1 0 0
    outer loop
      vertex -59.5 4.10311 8.00936
      vertex -59.5 2.0495 8.1502
      vertex -59.5 3.90382 8.89952
    endloop
  endfacet
  facet normal -1 0 0
    outer loop
      vertex -59.5 1.86645 9.04694
      vertex -59.5 3.90382 8.89952
      vertex -59.5 2.0495 8.1502
    endloop
  endfacet
  facet normal -1 0 0
    outer loop
      vertex -59.5 3.90382 8.89952
      vertex -59.5 1.86645 9.04694
      vertex -59.5 3.72077 9.79627
    endloop
  endfacet
  facet normal -1 0 0
    outer loop
      vertex -59.5 1.69962 9.95022
      vertex -59.5 3.72077 9.79627
      vertex -59.5 1.86645 9.04694
    endloop
  endfacet
  facet normal -1 0 0
    outer loop
      vertex -59.5 3.72077 9.79627
      vertex -59.5 1.69962 9.95022
      vertex -59.5 3.55394 10.6996
    endloop
  endfacet
  facet normal -1 0 0
    outer loop
      vertex -59.5 1.54901 10.8601
      vertex -59.5 3.55394 10.6996
      vertex -59.5 1.69962 9.95022
    endloop
  endfacet
  facet normal -1 0 0
    outer loop
      vertex -59.5 3.55394 10.6996
      vertex -59.5 1.54901 10.8601
      vertex -59.5 3.40333 11.6094
    endloop
  endfacet
  facet normal -1 0 0
    outer loop
      vertex -59.5 1.41463 11.7765
      vertex -59.5 3.40333 11.6094
      vertex -59.5 1.54901 10.8601
    endloop
  endfacet
  facet normal -1 0 0
    outer loop
      vertex -59.5 3.40333 11.6094
      vertex -59.5 1.41463 11.7765
      vertex -59.5 3.26895 12.5258
    endloop
  endfacet
  facet normal -1 0 0
    outer loop
      vertex -59.5 1.29648 12.6994
      vertex -59.5 3.26895 12.5258
      vertex -59.5 1.41463 11.7765
    endloop
  endfacet
  facet normal -1 0 0
    outer loop
      vertex -59.5 3.26895 12.5258
      vertex -59.5 1.29648 12.6994
      vertex -59.5 3.1508 13.4488
    endloop
  endfacet
  facet normal -1 0 0
    outer loop
      vertex -59.5 1.19455 13.629
      vertex -59.5 3.1508 13.4488
      vertex -59.5 1.29648 12.6994
    endloop
  endfacet
  facet normal -1 0 0
    outer loop
      vertex -59.5 3.1508 13.4488
      vertex -59.5 1.19455 13.629
      vertex -59.5 3.04887 14.3783
    endloop
  endfacet
  facet normal -1 0 0
    outer loop
      vertex -59.5 1.10883 14.565
      vertex -59.5 3.04887 14.3783
      vertex -59.5 1.19455 13.629
    endloop
  endfacet
  facet normal -1 0 0
    outer loop
      vertex -59.5 3.04887 14.3783
      vertex -59.5 1.10883 14.565
      vertex -59.5 2.96315 15.3143
    endloop
  endfacet
  facet normal -1 0 0
    outer loop
      vertex -59.5 1.03936 15.5076
      vertex -59.5 2.96315 15.3143
      vertex -59.5 1.10883 14.565
    endloop
  endfacet
  facet normal -1 0 0
    outer loop
      vertex -59.5 2.96315 15.3143
      vertex -59.5 1.03936 15.5076
      vertex -59.5 2.89368 16.257
    endloop
  endfacet
  facet normal -1 0 0
    outer loop
      vertex -59.5 0.986099 16.4568
      vertex -59.5 2.89368 16.257
      vertex -59.5 1.03936 15.5076
    endloop
  endfacet
  facet normal -1 0 0
    outer loop
      vertex -59.5 2.89368 16.257
      vertex -59.5 0.986099 16.4568
      vertex -59.5 2.84042 17.2062
    endloop
  endfacet
  facet normal -1 0 0
    outer loop
      vertex -59.5 0.949068 17.4126
      vertex -59.5 2.84042 17.2062
      vertex -59.5 0.986099 16.4568
    endloop
  endfacet
  facet normal -1 0 0
    outer loop
      vertex -59.5 2.84042 17.2062
      vertex -59.5 0.949068 17.4126
      vertex -59.5 2.80339 18.1619
    endloop
  endfacet
  facet normal -1 0 0
    outer loop
      vertex -59.5 0.928272 18.3749
      vertex -59.5 2.80339 18.1619
      vertex -59.5 0.949068 17.4126
    endloop
  endfacet
  facet normal -1 0 0
    outer loop
      vertex -59.5 2.80339 18.1619
      vertex -59.5 0.928272 18.3749
      vertex -59.5 2.78259 19.1242
    endloop
  endfacet
  facet normal -1 0 0
    outer loop
      vertex -59.5 -2.84042 17.2062
      vertex -59.5 -0.949068 17.4126
      vertex -59.5 -0.986099 16.4568
    endloop
  endfacet
  facet normal -1 0 0
    outer loop
      vertex -59.5 -2.89368 16.257
      vertex -59.5 -0.986099 16.4568
      vertex -59.5 -1.03936 15.5076
    endloop
  endfacet
  facet normal -1 0 0
    outer loop
      vertex -59.5 -2.96315 15.3143
      vertex -59.5 -1.03936 15.5076
      vertex -59.5 -1.10883 14.565
    endloop
  endfacet
  facet normal -1 0 0
    outer loop
      vertex -59.5 -3.04887 14.3783
      vertex -59.5 -1.10883 14.565
      vertex -59.5 -1.19455 13.629
    endloop
  endfacet
  facet normal -1 0 0
    outer loop
      vertex -59.5 -3.1508 13.4488
      vertex -59.5 -1.19455 13.629
      vertex -59.5 -1.29648 12.6994
    endloop
  endfacet
  facet normal -1 0 0
    outer loop
      vertex -59.5 -3.26895 12.5258
      vertex -59.5 -1.29648 12.6994
      vertex -59.5 -1.41463 11.7765
    endloop
  endfacet
  facet normal -1 0 0
    outer loop
      vertex -59.5 -3.40333 11.6094
      vertex -59.5 -1.41463 11.7765
      vertex -59.5 -1.54901 10.8601
    endloop
  endfacet
  facet normal -1 0 0
    outer loop
      vertex -59.5 -3.55394 10.6996
      vertex -59.5 -1.54901 10.8601
      vertex -59.5 -1.69962 9.95022
    endloop
  endfacet
  facet normal -1 0 0
    outer loop
      vertex -59.5 -3.72077 9.79627
      vertex -59.5 -1.69962 9.95022
      vertex -59.5 -1.86645 9.04694
    endloop
  endfacet
  facet normal -1 0 0
    outer loop
      vertex -59.5 -3.90382 8.89952
      vertex -59.5 -1.86645 9.04694
      vertex -59.5 -2.0495 8.1502
    endloop
  endfacet
  facet normal -1 0 0
    outer loop
      vertex -59.5 -4.10311 8.00936
      vertex -59.5 -2.0495 8.1502
      vertex -59.5 -2.24879 7.26003
    endloop
  endfacet
  facet normal -1 0 0
    outer loop
      vertex -59.5 -4.10311 8.00936
      vertex -59.5 -2.24879 7.26003
      vertex -59.5 -2.46429 6.3764
    endloop
  endfacet
  facet normal -1 0 0
    outer loop
      vertex -59.5 -4.10311 8.00936
      vertex -59.5 -2.46429 6.3764
      vertex -59.5 -2.69602 5.49934
    endloop
  endfacet
  facet normal -1 -0 0
    outer loop
      vertex -59.5 -1.29648 12.6994
      vertex -59.5 -3.26895 12.5258
      vertex -59.5 -3.1508 13.4488
    endloop
  endfacet
  facet normal -1 -0 0
    outer loop
      vertex -59.5 -0.928272 18.3749
      vertex -59.5 -2.80339 18.1619
      vertex -59.5 -2.78259 19.1242
    endloop
  endfacet
  facet normal -1 0 0
    outer loop
      vertex -59.5 -0.949068 17.4126
      vertex -59.5 -2.80339 18.1619
      vertex -59.5 -0.928272 18.3749
    endloop
  endfacet
  facet normal -1 0 -0
    outer loop
      vertex -59.5 -2.80339 18.1619
      vertex -59.5 -0.949068 17.4126
      vertex -59.5 -2.84042 17.2062
    endloop
  endfacet
  facet normal -1 0 0
    outer loop
      vertex -59.5 -4.10311 8.00936
      vertex -59.5 -2.69602 5.49934
      vertex -59.5 -2.94399 4.62884
    endloop
  endfacet
  facet normal -1 -0 0
    outer loop
      vertex -59.5 -0.986099 16.4568
      vertex -59.5 -2.89368 16.257
      vertex -59.5 -2.84042 17.2062
    endloop
  endfacet
  facet normal -1 -0 0
    outer loop
      vertex -59.5 -1.03936 15.5076
      vertex -59.5 -2.96315 15.3143
      vertex -59.5 -2.89368 16.257
    endloop
  endfacet
  facet normal -1 -0 0
    outer loop
      vertex -59.5 -1.10883 14.565
      vertex -59.5 -3.04887 14.3783
      vertex -59.5 -2.96315 15.3143
    endloop
  endfacet
  facet normal -1 0 0
    outer loop
      vertex -59.5 -4.10311 8.00936
      vertex -59.5 -2.94399 4.62884
      vertex -59.5 -3.20818 3.76489
    endloop
  endfacet
  facet normal -1 -0 0
    outer loop
      vertex -59.5 -1.19455 13.629
      vertex -59.5 -3.1508 13.4488
      vertex -59.5 -3.04887 14.3783
    endloop
  endfacet
  facet normal -1 -0 0
    outer loop
      vertex -59.5 -1.41463 11.7765
      vertex -59.5 -3.40333 11.6094
      vertex -59.5 -3.26895 12.5258
    endloop
  endfacet
  facet normal -1 0 0
    outer loop
      vertex -59.5 -4.10311 8.00936
      vertex -59.5 -3.20818 3.76489
      vertex -59.5 -3.48857 2.90749
    endloop
  endfacet
  facet normal -1 -0 0
    outer loop
      vertex -59.5 -1.54901 10.8601
      vertex -59.5 -3.55394 10.6996
      vertex -59.5 -3.40333 11.6094
    endloop
  endfacet
  facet normal -1 -0 0
    outer loop
      vertex -59.5 -1.69962 9.95022
      vertex -59.5 -3.72077 9.79627
      vertex -59.5 -3.55394 10.6996
    endloop
  endfacet
  facet normal -1 0 0
    outer loop
      vertex -59.5 -4.10311 8.00936
      vertex -59.5 -3.48857 2.90749
      vertex -59.5 -3.78521 2.05665
    endloop
  endfacet
  facet normal -1 0 0
    outer loop
      vertex -59.5 -5.63953 2.80598
      vertex -59.5 -3.78521 2.05665
      vertex -59.5 -3.8062 2
    endloop
  endfacet
  facet normal -1 -0 0
    outer loop
      vertex -59.5 -1.86645 9.04694
      vertex -59.5 -3.90382 8.89952
      vertex -59.5 -3.72077 9.79627
    endloop
  endfacet
endsolid OpenSCAD_Model
