solid OpenSCAD_Model
  facet normal 1 0 0
    outer loop
      vertex 59.5 -4.5 12
      vertex 59.5 -6.5 12
      vertex 59.5 -4.5 2
    endloop
  endfacet
  facet normal 1 0 0
    outer loop
      vertex 59.5 4.5 2
      vertex 59.5 6.5 12
      vertex 59.5 4.5 12
    endloop
  endfacet
  facet normal 1 0 0
    outer loop
      vertex 59.5 6.5 12
      vertex 59.5 4.5 2
      vertex 59.5 6.5 0
    endloop
  endfacet
  facet normal 1 -0 0
    outer loop
      vertex 59.5 -4.5 2
      vertex 59.5 6.5 0
      vertex 59.5 4.5 2
    endloop
  endfacet
  facet normal 1 0 0
    outer loop
      vertex 59.5 -4.5 2
      vertex 59.5 -6.5 0
      vertex 59.5 6.5 0
    endloop
  endfacet
  facet normal 1 0 0
    outer loop
      vertex 59.5 -6.5 0
      vertex 59.5 -4.5 2
      vertex 59.5 -6.5 12
    endloop
  endfacet
  facet normal 0 0 1
    outer loop
      vertex 4.5 59.5 2
      vertex -4.5 59.5 2
      vertex 4.5 4.5 2
    endloop
  endfacet
  facet normal -0 0 1
    outer loop
      vertex 4.5 4.5 2
      vertex 59.5 -4.5 2
      vertex 59.5 4.5 2
    endloop
  endfacet
  facet normal 0 0 1
    outer loop
      vertex -4.5 4.5 2
      vertex 4.5 4.5 2
      vertex -4.5 59.5 2
    endloop
  endfacet
  facet normal -0 0 1
    outer loop
      vertex -4.5 4.5 2
      vertex 59.5 -4.5 2
      vertex 4.5 4.5 2
    endloop
  endfacet
  facet normal 0 0 1
    outer loop
      vertex -59.5 -4.5 2
      vertex -4.5 4.5 2
      vertex -59.5 4.5 2
    endloop
  endfacet
  facet normal 0 0 1
    outer loop
      vertex -4.5 4.5 2
      vertex -59.5 -4.5 2
      vertex 59.5 -4.5 2
    endloop
  endfacet
  facet normal 0 0 -1
    outer loop
      vertex 59.5 -6.5 0
      vertex 6.5 6.5 0
      vertex 59.5 6.5 0
    endloop
  endfacet
  facet normal 0 0 -1
    outer loop
      vertex -1.24963 -4 0
      vertex 6.5 6.5 0
      vertex -1.24963 -4.14172 0
    endloop
  endfacet
  facet normal 0 0 -1
    outer loop
      vertex -1.46866 -4.95547 0
      vertex 6.5 6.5 0
      vertex 59.5 -6.5 0
    endloop
  endfacet
  facet normal 0 0 -1
    outer loop
      vertex 6.5 6.5 0
      vertex -1.46866 -4.95547 0
      vertex -1.24963 -4.14172 0
    endloop
  endfacet
  facet normal 0 0 -1
    outer loop
      vertex 59.5 -6.5 0
      vertex -1.64903 -4.95547 0
      vertex -1.46866 -4.95547 0
    endloop
  endfacet
  facet normal 0 0 -1
    outer loop
      vertex -2.59982 -4.95547 0
      vertex -1.88841 -4.65031 0
      vertex -1.88841 -4.80019 0
    endloop
  endfacet
  facet normal 0 0 -1
    outer loop
      vertex -2.06995 -4 0
      vertex -1.89587 -4.14172 0
      vertex -2.06995 -4.20682 0
    endloop
  endfacet
  facet normal 0 0 -1
    outer loop
      vertex -1.88841 -4.65031 0
      vertex -2.06995 -4.20682 0
      vertex -1.89587 -4.14172 0
    endloop
  endfacet
  facet normal 0 0 -1
    outer loop
      vertex -1.88841 -4.65031 0
      vertex -2.26593 -4.20682 0
      vertex -2.06995 -4.20682 0
    endloop
  endfacet
  facet normal 0 0 -1
    outer loop
      vertex -2.26593 -4.20682 0
      vertex -2.38078 -4.14172 0
      vertex -2.26593 -4 0
    endloop
  endfacet
  facet normal -0 0 -1
    outer loop
      vertex -1.88841 -4.65031 0
      vertex -2.59982 -4.95547 0
      vertex -2.26593 -4.20682 0
    endloop
  endfacet
  facet normal 0 0 -1
    outer loop
      vertex -2.59982 -4.14172 0
      vertex -2.26593 -4.20682 0
      vertex -2.59982 -4.95547 0
    endloop
  endfacet
  facet normal 0 0 -1
    outer loop
      vertex -1.64903 -4.95547 0
      vertex -2.59982 -4.95547 0
      vertex -1.88841 -4.80019 0
    endloop
  endfacet
  facet normal 0 0 -1
    outer loop
      vertex 59.5 -6.5 0
      vertex -2.59982 -4.95547 0
      vertex -1.64903 -4.95547 0
    endloop
  endfacet
  facet normal 0 0 -1
    outer loop
      vertex 59.5 -6.5 0
      vertex -2.7802 -4.95547 0
      vertex -2.59982 -4.95547 0
    endloop
  endfacet
  facet normal 0 0 -1
    outer loop
      vertex -3.73099 -4.95547 0
      vertex -3.01958 -4.65031 0
      vertex -3.01958 -4.80019 0
    endloop
  endfacet
  facet normal 0 0 -1
    outer loop
      vertex -3.20111 -4 0
      vertex -3.02704 -4.14172 0
      vertex -3.20111 -4.20682 0
    endloop
  endfacet
  facet normal 0 0 -1
    outer loop
      vertex -3.01958 -4.65031 0
      vertex -3.20111 -4.20682 0
      vertex -3.02704 -4.14172 0
    endloop
  endfacet
  facet normal 0 0 -1
    outer loop
      vertex -3.01958 -4.65031 0
      vertex -3.39709 -4.20682 0
      vertex -3.20111 -4.20682 0
    endloop
  endfacet
  facet normal 0 0 -1
    outer loop
      vertex -3.39709 -4.20682 0
      vertex -3.51195 -4.14172 0
      vertex -3.39709 -4 0
    endloop
  endfacet
  facet normal -0 0 -1
    outer loop
      vertex -3.01958 -4.65031 0
      vertex -3.73099 -4.95547 0
      vertex -3.39709 -4.20682 0
    endloop
  endfacet
  facet normal 0 0 -1
    outer loop
      vertex -3.73099 -4.14172 0
      vertex -3.39709 -4.20682 0
      vertex -3.73099 -4.95547 0
    endloop
  endfacet
  facet normal 0 0 -1
    outer loop
      vertex -2.7802 -4.95547 0
      vertex -3.73099 -4.95547 0
      vertex -3.01958 -4.80019 0
    endloop
  endfacet
  facet normal 0 0 -1
    outer loop
      vertex 59.5 -6.5 0
      vertex -3.73099 -4.95547 0
      vertex -2.7802 -4.95547 0
    endloop
  endfacet
  facet normal 0 0 -1
    outer loop
      vertex 59.5 -6.5 0
      vertex -3.91136 -4.95547 0
      vertex -3.73099 -4.95547 0
    endloop
  endfacet
  facet normal 0 0 -1
    outer loop
      vertex -4.23373 -4.73372 0
      vertex -4.15074 -4.65031 0
      vertex -4.15074 -4.80019 0
    endloop
  endfacet
  facet normal 0 0 -1
    outer loop
      vertex -4.15074 -4.65031 0
      vertex -4.5043 -4 0
      vertex -4.1582 -4.14172 0
    endloop
  endfacet
  facet normal 0 0 -1
    outer loop
      vertex -4.5043 -4 0
      vertex -4.15074 -4.65031 0
      vertex -4.23373 -4.73372 0
    endloop
  endfacet
  facet normal 0 0 -1
    outer loop
      vertex -4.15074 -4.80019 0
      vertex -4.43309 -4.73372 0
      vertex -4.23373 -4.73372 0
    endloop
  endfacet
  facet normal 0 0 -1
    outer loop
      vertex -3.91136 -4.95547 0
      vertex -4.43309 -4.73372 0
      vertex -4.15074 -4.80019 0
    endloop
  endfacet
  facet normal -0 0 -1
    outer loop
      vertex -4.60652 -4.19225 0
      vertex -4.64789 -4.26413 0
      vertex -4.61687 -4.15392 0
    endloop
  endfacet
  facet normal -0 0 -1
    outer loop
      vertex -4.58907 -4.25157 0
      vertex -4.64789 -4.26413 0
      vertex -4.60652 -4.19225 0
    endloop
  endfacet
  facet normal 0 0 -1
    outer loop
      vertex -4.66502 -4.32346 0
      vertex -4.58907 -4.25157 0
      vertex -4.53957 -4.40703 0
    endloop
  endfacet
  facet normal 0 0 -1
    outer loop
      vertex -4.79318 -4.73372 0
      vertex -4.53957 -4.40703 0
      vertex -4.43309 -4.73372 0
    endloop
  endfacet
  facet normal 0 0 -1
    outer loop
      vertex -4.58907 -4.25157 0
      vertex -4.66502 -4.32346 0
      vertex -4.64789 -4.26413 0
    endloop
  endfacet
  facet normal -0 0 -1
    outer loop
      vertex -4.53957 -4.40703 0
      vertex -4.79318 -4.73372 0
      vertex -4.66502 -4.32346 0
    endloop
  endfacet
  facet normal 0 0 -1
    outer loop
      vertex -3.91136 -4.95547 0
      vertex -4.79318 -4.73372 0
      vertex -4.43309 -4.73372 0
    endloop
  endfacet
  facet normal 0 0 -1
    outer loop
      vertex -3.91136 -4.95547 0
      vertex -4.99458 -4.73372 0
      vertex -4.79318 -4.73372 0
    endloop
  endfacet
  facet normal 0 0 -1
    outer loop
      vertex -59.5 -6.5 0
      vertex -3.91136 -4.95547 0
      vertex 59.5 -6.5 0
    endloop
  endfacet
  facet normal 0 0 -1
    outer loop
      vertex -59.5 -6.5 0
      vertex -4.99458 -4.73372 0
      vertex -3.91136 -4.95547 0
    endloop
  endfacet
  facet normal 0 0 -1
    outer loop
      vertex -59.5 -6.5 0
      vertex -6.5 6.5 0
      vertex -4.99458 -4.73372 0
    endloop
  endfacet
  facet normal -0 0 -1
    outer loop
      vertex -6.5 6.5 0
      vertex -59.5 -6.5 0
      vertex -59.5 6.5 0
    endloop
  endfacet
  facet normal 0 0 -1
    outer loop
      vertex -6.5 6.5 0
      vertex 6.5 6.5 0
      vertex -1.24963 -4 0
    endloop
  endfacet
  facet normal 0 0 -1
    outer loop
      vertex -6.5 6.5 0
      vertex -1.24963 -4 0
      vertex -1.89587 -4 0
    endloop
  endfacet
  facet normal 0 0 -1
    outer loop
      vertex -1.89587 -4.14172 0
      vertex -2.06995 -4 0
      vertex -1.89587 -4 0
    endloop
  endfacet
  facet normal 0 0 -1
    outer loop
      vertex -6.5 6.5 0
      vertex -1.89587 -4 0
      vertex -2.06995 -4 0
    endloop
  endfacet
  facet normal 0 0 -1
    outer loop
      vertex -6.5 6.5 0
      vertex -2.06995 -4 0
      vertex -2.26593 -4 0
    endloop
  endfacet
  facet normal 0 0 -1
    outer loop
      vertex -2.38078 -4 0
      vertex -2.26593 -4 0
      vertex -2.38078 -4.14172 0
    endloop
  endfacet
  facet normal 0 0 -1
    outer loop
      vertex -6.5 6.5 0
      vertex -2.26593 -4 0
      vertex -2.38078 -4 0
    endloop
  endfacet
  facet normal 0 0 -1
    outer loop
      vertex -6.5 6.5 0
      vertex -2.38078 -4 0
      vertex -3.02704 -4 0
    endloop
  endfacet
  facet normal 0 0 -1
    outer loop
      vertex -3.02704 -4.14172 0
      vertex -3.20111 -4 0
      vertex -3.02704 -4 0
    endloop
  endfacet
  facet normal 0 0 -1
    outer loop
      vertex -6.5 6.5 0
      vertex -3.02704 -4 0
      vertex -3.20111 -4 0
    endloop
  endfacet
  facet normal 0 0 -1
    outer loop
      vertex -6.5 6.5 0
      vertex -3.20111 -4 0
      vertex -3.39709 -4 0
    endloop
  endfacet
  facet normal 0 0 -1
    outer loop
      vertex -3.51195 -4 0
      vertex -3.39709 -4 0
      vertex -3.51195 -4.14172 0
    endloop
  endfacet
  facet normal 0 0 -1
    outer loop
      vertex -6.5 6.5 0
      vertex -3.39709 -4 0
      vertex -3.51195 -4 0
    endloop
  endfacet
  facet normal 0 0 -1
    outer loop
      vertex -6.5 6.5 0
      vertex -3.51195 -4 0
      vertex -4.1582 -4 0
    endloop
  endfacet
  facet normal 0 0 -1
    outer loop
      vertex -4.1582 -4.14172 0
      vertex -4.5043 -4 0
      vertex -4.1582 -4 0
    endloop
  endfacet
  facet normal 0 0 -1
    outer loop
      vertex -6.5 6.5 0
      vertex -4.1582 -4 0
      vertex -4.5043 -4 0
    endloop
  endfacet
  facet normal 0 0 -1
    outer loop
      vertex -6.5 6.5 0
      vertex -4.5043 -4 0
      vertex -4.73215 -4 0
    endloop
  endfacet
  facet normal 0 0 -1
    outer loop
      vertex -6.5 6.5 0
      vertex -4.73215 -4 0
      vertex -4.99458 -4.73372 0
    endloop
  endfacet
  facet normal 0 0 -1
    outer loop
      vertex 6.5 6.5 0
      vertex -6.5 6.5 0
      vertex 6.5 59.5 0
    endloop
  endfacet
  facet normal -0 0 -1
    outer loop
      vertex 6.5 59.5 0
      vertex -6.5 6.5 0
      vertex -6.5 59.5 0
    endloop
  endfacet
  facet normal -0 0 -1
    outer loop
      vertex -1.24963 -4.14172 0
      vertex -1.46866 -4.95547 0
      vertex -1.46866 -4.14172 0
    endloop
  endfacet
  facet normal 0 0 -1
    outer loop
      vertex -1.88841 -4.65031 0
      vertex -1.65921 -4.14172 0
      vertex -1.65921 -4.7934 0
    endloop
  endfacet
  facet normal -0 0 -1
    outer loop
      vertex -1.65921 -4.14172 0
      vertex -1.88841 -4.65031 0
      vertex -1.89587 -4.14172 0
    endloop
  endfacet
  facet normal 0 0 -1
    outer loop
      vertex -2.26593 -4.20682 0
      vertex -2.59982 -4.14172 0
      vertex -2.38078 -4.14172 0
    endloop
  endfacet
  facet normal 0 0 -1
    outer loop
      vertex -3.01958 -4.65031 0
      vertex -2.79037 -4.14172 0
      vertex -2.79037 -4.7934 0
    endloop
  endfacet
  facet normal -0 0 -1
    outer loop
      vertex -2.79037 -4.14172 0
      vertex -3.01958 -4.65031 0
      vertex -3.02704 -4.14172 0
    endloop
  endfacet
  facet normal 0 0 -1
    outer loop
      vertex -3.39709 -4.20682 0
      vertex -3.73099 -4.14172 0
      vertex -3.51195 -4.14172 0
    endloop
  endfacet
  facet normal 0 0 -1
    outer loop
      vertex -4.15074 -4.65031 0
      vertex -3.92154 -4.14172 0
      vertex -3.92154 -4.7934 0
    endloop
  endfacet
  facet normal -0 0 -1
    outer loop
      vertex -3.92154 -4.14172 0
      vertex -4.15074 -4.65031 0
      vertex -4.1582 -4.14172 0
    endloop
  endfacet
  facet normal -1 0 0
    outer loop
      vertex 4.5 4.5 2
      vertex 4.5 59.5 12
      vertex 4.5 59.5 2
    endloop
  endfacet
  facet normal -1 -0 0
    outer loop
      vertex 4.5 59.5 12
      vertex 4.5 4.5 2
      vertex 4.5 4.5 12
    endloop
  endfacet
  facet normal 0 1 -0
    outer loop
      vertex 59.5 6.5 0
      vertex 6.5 6.5 12
      vertex 59.5 6.5 12
    endloop
  endfacet
  facet normal 0 1 0
    outer loop
      vertex 6.5 6.5 12
      vertex 59.5 6.5 0
      vertex 6.5 6.5 0
    endloop
  endfacet
  facet normal 0 -1 0
    outer loop
      vertex -59.5 -6.5 0
      vertex 59.5 -6.5 12
      vertex -59.5 -6.5 12
    endloop
  endfacet
  facet normal 0 -1 -0
    outer loop
      vertex 59.5 -6.5 12
      vertex -59.5 -6.5 0
      vertex 59.5 -6.5 0
    endloop
  endfacet
  facet normal -0 0 1
    outer loop
      vertex -59.5 -4.5 12
      vertex 59.5 -6.5 12
      vertex 59.5 -4.5 12
    endloop
  endfacet
  facet normal 0 0 1
    outer loop
      vertex 59.5 -6.5 12
      vertex -59.5 -4.5 12
      vertex -59.5 -6.5 12
    endloop
  endfacet
  facet normal 0 1 -0
    outer loop
      vertex 59.5 -4.5 2
      vertex -59.5 -4.5 12
      vertex 59.5 -4.5 12
    endloop
  endfacet
  facet normal 0 1 0
    outer loop
      vertex -59.5 -4.5 12
      vertex 59.5 -4.5 2
      vertex -59.5 -4.5 2
    endloop
  endfacet
  facet normal 0 0 1
    outer loop
      vertex 6.5 59.5 12
      vertex 4.5 59.5 12
      vertex 6.5 6.5 12
    endloop
  endfacet
  facet normal -0 0 1
    outer loop
      vertex 6.5 6.5 12
      vertex 59.5 4.5 12
      vertex 59.5 6.5 12
    endloop
  endfacet
  facet normal 0 0 1
    outer loop
      vertex 6.5 6.5 12
      vertex 4.5 4.5 12
      vertex 59.5 4.5 12
    endloop
  endfacet
  facet normal 0 0 1
    outer loop
      vertex 4.5 4.5 12
      vertex 6.5 6.5 12
      vertex 4.5 59.5 12
    endloop
  endfacet
  facet normal 0 -1 0
    outer loop
      vertex -59.5 4.5 2
      vertex -4.5 4.5 12
      vertex -59.5 4.5 12
    endloop
  endfacet
  facet normal 0 -1 -0
    outer loop
      vertex -4.5 4.5 12
      vertex -59.5 4.5 2
      vertex -4.5 4.5 2
    endloop
  endfacet
  facet normal 0 -1 0
    outer loop
      vertex 4.5 4.5 2
      vertex 59.5 4.5 12
      vertex 4.5 4.5 12
    endloop
  endfacet
  facet normal 0 -1 -0
    outer loop
      vertex 59.5 4.5 12
      vertex 4.5 4.5 2
      vertex 59.5 4.5 2
    endloop
  endfacet
  facet normal 0 1 0
    outer loop
      vertex 6.5 59.5 12
      vertex 4.5 59.5 2
      vertex 4.5 59.5 12
    endloop
  endfacet
  facet normal 0 1 0
    outer loop
      vertex 4.5 59.5 2
      vertex 6.5 59.5 0
      vertex -4.5 59.5 2
    endloop
  endfacet
  facet normal 0 1 -0
    outer loop
      vertex 6.5 59.5 0
      vertex 4.5 59.5 2
      vertex 6.5 59.5 12
    endloop
  endfacet
  facet normal 0 1 -0
    outer loop
      vertex -4.5 59.5 2
      vertex -6.5 59.5 12
      vertex -4.5 59.5 12
    endloop
  endfacet
  facet normal 0 1 0
    outer loop
      vertex -4.5 59.5 2
      vertex -6.5 59.5 0
      vertex -6.5 59.5 12
    endloop
  endfacet
  facet normal 0 1 0
    outer loop
      vertex -6.5 59.5 0
      vertex -4.5 59.5 2
      vertex 6.5 59.5 0
    endloop
  endfacet
  facet normal -1 0 0
    outer loop
      vertex -6.5 6.5 0
      vertex -6.5 59.5 12
      vertex -6.5 59.5 0
    endloop
  endfacet
  facet normal -1 -0 0
    outer loop
      vertex -6.5 59.5 12
      vertex -6.5 6.5 0
      vertex -6.5 6.5 12
    endloop
  endfacet
  facet normal 1 -0 0
    outer loop
      vertex 6.5 6.5 12
      vertex 6.5 59.5 0
      vertex 6.5 59.5 12
    endloop
  endfacet
  facet normal 1 0 0
    outer loop
      vertex 6.5 59.5 0
      vertex 6.5 6.5 12
      vertex 6.5 6.5 0
    endloop
  endfacet
  facet normal 0 0 1
    outer loop
      vertex -6.5 6.5 12
      vertex -4.5 59.5 12
      vertex -6.5 59.5 12
    endloop
  endfacet
  facet normal 0 0 1
    outer loop
      vertex -4.5 59.5 12
      vertex -6.5 6.5 12
      vertex -4.5 4.5 12
    endloop
  endfacet
  facet normal 0 0 1
    outer loop
      vertex -59.5 4.5 12
      vertex -6.5 6.5 12
      vertex -59.5 6.5 12
    endloop
  endfacet
  facet normal 0 0 1
    outer loop
      vertex -6.5 6.5 12
      vertex -59.5 4.5 12
      vertex -4.5 4.5 12
    endloop
  endfacet
  facet normal 1 -0 0
    outer loop
      vertex -4.5 4.5 12
      vertex -4.5 59.5 2
      vertex -4.5 59.5 12
    endloop
  endfacet
  facet normal 1 0 0
    outer loop
      vertex -4.5 59.5 2
      vertex -4.5 4.5 12
      vertex -4.5 4.5 2
    endloop
  endfacet
  facet normal -1 0 0
    outer loop
      vertex -59.5 6.5 0
      vertex -59.5 4.5 2
      vertex -59.5 6.5 12
    endloop
  endfacet
  facet normal -1 0 0
    outer loop
      vertex -59.5 6.5 0
      vertex -59.5 -4.5 2
      vertex -59.5 4.5 2
    endloop
  endfacet
  facet normal -1 0 0
    outer loop
      vertex -59.5 -6.5 0
      vertex -59.5 -4.5 2
      vertex -59.5 6.5 0
    endloop
  endfacet
  facet normal -1 0 0
    outer loop
      vertex -59.5 -6.5 12
      vertex -59.5 -4.5 2
      vertex -59.5 -6.5 0
    endloop
  endfacet
  facet normal -1 0 0
    outer loop
      vertex -59.5 -4.5 2
      vertex -59.5 -6.5 12
      vertex -59.5 -4.5 12
    endloop
  endfacet
  facet normal -1 -0 0
    outer loop
      vertex -59.5 6.5 12
      vertex -59.5 4.5 2
      vertex -59.5 4.5 12
    endloop
  endfacet
  facet normal 0 1 -0
    outer loop
      vertex -6.5 6.5 0
      vertex -59.5 6.5 12
      vertex -6.5 6.5 12
    endloop
  endfacet
  facet normal 0 1 0
    outer loop
      vertex -59.5 6.5 12
      vertex -6.5 6.5 0
      vertex -59.5 6.5 0
    endloop
  endfacet
  facet normal 0 0 -1
    outer loop
      vertex -3.92154 -4.7934 0.29
      vertex -3.73099 -4.95547 0.29
      vertex -3.91136 -4.95547 0.29
    endloop
  endfacet
  facet normal 0 0 -1
    outer loop
      vertex -3.73099 -4.14172 0.29
      vertex -3.51195 -4 0.29
      vertex -3.51195 -4.14172 0.29
    endloop
  endfacet
  facet normal 0 0 -1
    outer loop
      vertex -3.73099 -4.95547 0.29
      vertex -3.92154 -4.7934 0.29
      vertex -3.73099 -4.14172 0.29
    endloop
  endfacet
  facet normal 0 0 -1
    outer loop
      vertex -3.92154 -4.14172 0.29
      vertex -3.73099 -4.14172 0.29
      vertex -3.92154 -4.7934 0.29
    endloop
  endfacet
  facet normal 0 0 -1
    outer loop
      vertex -3.92154 -4.14172 0.29
      vertex -3.51195 -4 0.29
      vertex -3.73099 -4.14172 0.29
    endloop
  endfacet
  facet normal 0 0 -1
    outer loop
      vertex -4.1582 -4 0.29
      vertex -3.92154 -4.14172 0.29
      vertex -4.1582 -4.14172 0.29
    endloop
  endfacet
  facet normal 0 0 -1
    outer loop
      vertex -3.92154 -4.14172 0.29
      vertex -4.1582 -4 0.29
      vertex -3.51195 -4 0.29
    endloop
  endfacet
  facet normal 0 0 -1
    outer loop
      vertex -4.15074 -4.80019 0.29
      vertex -3.92154 -4.7934 0.29
      vertex -3.91136 -4.95547 0.29
    endloop
  endfacet
  facet normal -0 0 -1
    outer loop
      vertex -3.92154 -4.7934 0.29
      vertex -4.15074 -4.80019 0.29
      vertex -4.15074 -4.65031 0.29
    endloop
  endfacet
  facet normal 0 0 -1
    outer loop
      vertex -1.65921 -4.7934 0.29
      vertex -1.46866 -4.95547 0.29
      vertex -1.64903 -4.95547 0.29
    endloop
  endfacet
  facet normal 0 0 -1
    outer loop
      vertex -1.46866 -4.14172 0.29
      vertex -1.24963 -4 0.29
      vertex -1.24963 -4.14172 0.29
    endloop
  endfacet
  facet normal 0 0 -1
    outer loop
      vertex -1.46866 -4.95547 0.29
      vertex -1.65921 -4.7934 0.29
      vertex -1.46866 -4.14172 0.29
    endloop
  endfacet
  facet normal 0 0 -1
    outer loop
      vertex -1.65921 -4.14172 0.29
      vertex -1.46866 -4.14172 0.29
      vertex -1.65921 -4.7934 0.29
    endloop
  endfacet
  facet normal 0 0 -1
    outer loop
      vertex -1.65921 -4.14172 0.29
      vertex -1.24963 -4 0.29
      vertex -1.46866 -4.14172 0.29
    endloop
  endfacet
  facet normal 0 0 -1
    outer loop
      vertex -1.89587 -4 0.29
      vertex -1.65921 -4.14172 0.29
      vertex -1.89587 -4.14172 0.29
    endloop
  endfacet
  facet normal 0 0 -1
    outer loop
      vertex -1.65921 -4.14172 0.29
      vertex -1.89587 -4 0.29
      vertex -1.24963 -4 0.29
    endloop
  endfacet
  facet normal 0 0 -1
    outer loop
      vertex -1.88841 -4.80019 0.29
      vertex -1.65921 -4.7934 0.29
      vertex -1.64903 -4.95547 0.29
    endloop
  endfacet
  facet normal -0 0 -1
    outer loop
      vertex -1.65921 -4.7934 0.29
      vertex -1.88841 -4.80019 0.29
      vertex -1.88841 -4.65031 0.29
    endloop
  endfacet
  facet normal 0 0 -1
    outer loop
      vertex -2.79037 -4.7934 0.29
      vertex -2.59982 -4.95547 0.29
      vertex -2.7802 -4.95547 0.29
    endloop
  endfacet
  facet normal 0 0 -1
    outer loop
      vertex -2.59982 -4.14172 0.29
      vertex -2.38078 -4 0.29
      vertex -2.38078 -4.14172 0.29
    endloop
  endfacet
  facet normal 0 0 -1
    outer loop
      vertex -2.59982 -4.95547 0.29
      vertex -2.79037 -4.7934 0.29
      vertex -2.59982 -4.14172 0.29
    endloop
  endfacet
  facet normal 0 0 -1
    outer loop
      vertex -2.79037 -4.14172 0.29
      vertex -2.59982 -4.14172 0.29
      vertex -2.79037 -4.7934 0.29
    endloop
  endfacet
  facet normal 0 0 -1
    outer loop
      vertex -2.79037 -4.14172 0.29
      vertex -2.38078 -4 0.29
      vertex -2.59982 -4.14172 0.29
    endloop
  endfacet
  facet normal 0 0 -1
    outer loop
      vertex -3.02704 -4 0.29
      vertex -2.79037 -4.14172 0.29
      vertex -3.02704 -4.14172 0.29
    endloop
  endfacet
  facet normal 0 0 -1
    outer loop
      vertex -2.79037 -4.14172 0.29
      vertex -3.02704 -4 0.29
      vertex -2.38078 -4 0.29
    endloop
  endfacet
  facet normal 0 0 -1
    outer loop
      vertex -3.01958 -4.80019 0.29
      vertex -2.79037 -4.7934 0.29
      vertex -2.7802 -4.95547 0.29
    endloop
  endfacet
  facet normal -0 0 -1
    outer loop
      vertex -2.79037 -4.7934 0.29
      vertex -3.01958 -4.80019 0.29
      vertex -3.01958 -4.65031 0.29
    endloop
  endfacet
  facet normal 0 0 -1
    outer loop
      vertex -3.39709 -4.20682 0.29
      vertex -3.20111 -4 0.29
      vertex -3.20111 -4.20682 0.29
    endloop
  endfacet
  facet normal -0 0 -1
    outer loop
      vertex -3.20111 -4 0.29
      vertex -3.39709 -4.20682 0.29
      vertex -3.39709 -4 0.29
    endloop
  endfacet
  facet normal 0 0 -1
    outer loop
      vertex -2.26593 -4.20682 0.29
      vertex -2.06995 -4 0.29
      vertex -2.06995 -4.20682 0.29
    endloop
  endfacet
  facet normal -0 0 -1
    outer loop
      vertex -2.06995 -4 0.29
      vertex -2.26593 -4.20682 0.29
      vertex -2.26593 -4 0.29
    endloop
  endfacet
  facet normal 0 0 -1
    outer loop
      vertex -4.53957 -4.40703 0.29
      vertex -4.23373 -4.73372 0.29
      vertex -4.43309 -4.73372 0.29
    endloop
  endfacet
  facet normal 0 0 -1
    outer loop
      vertex -4.23373 -4.73372 0.29
      vertex -4.53957 -4.40703 0.29
      vertex -4.5043 -4 0.29
    endloop
  endfacet
  facet normal 0 0 -1
    outer loop
      vertex -4.58907 -4.25157 0.29
      vertex -4.5043 -4 0.29
      vertex -4.53957 -4.40703 0.29
    endloop
  endfacet
  facet normal 0 0 -1
    outer loop
      vertex -4.60652 -4.19225 0.29
      vertex -4.5043 -4 0.29
      vertex -4.58907 -4.25157 0.29
    endloop
  endfacet
  facet normal 0 0 -1
    outer loop
      vertex -4.61687 -4.15392 0.29
      vertex -4.5043 -4 0.29
      vertex -4.60652 -4.19225 0.29
    endloop
  endfacet
  facet normal 0 0 -1
    outer loop
      vertex -4.73215 -4 0.29
      vertex -4.64789 -4.26413 0.29
      vertex -4.66502 -4.32346 0.29
    endloop
  endfacet
  facet normal 0 0 -1
    outer loop
      vertex -4.61687 -4.15392 0.29
      vertex -4.73215 -4 0.29
      vertex -4.5043 -4 0.29
    endloop
  endfacet
  facet normal 0 0 -1
    outer loop
      vertex -4.64789 -4.26413 0.29
      vertex -4.73215 -4 0.29
      vertex -4.61687 -4.15392 0.29
    endloop
  endfacet
  facet normal 0 0 -1
    outer loop
      vertex -4.99458 -4.73372 0.29
      vertex -4.66502 -4.32346 0.29
      vertex -4.79318 -4.73372 0.29
    endloop
  endfacet
  facet normal -0 0 -1
    outer loop
      vertex -4.66502 -4.32346 0.29
      vertex -4.99458 -4.73372 0.29
      vertex -4.73215 -4 0.29
    endloop
  endfacet
  facet normal 0 1 -0
    outer loop
      vertex -3.51195 -4.14172 0
      vertex -3.73099 -4.14172 0.29
      vertex -3.51195 -4.14172 0.29
    endloop
  endfacet
  facet normal 0 1 0
    outer loop
      vertex -3.73099 -4.14172 0.29
      vertex -3.51195 -4.14172 0
      vertex -3.73099 -4.14172 0
    endloop
  endfacet
  facet normal -1 0 0
    outer loop
      vertex -3.73099 -4.95547 0
      vertex -3.73099 -4.14172 0.29
      vertex -3.73099 -4.14172 0
    endloop
  endfacet
  facet normal -1 -0 0
    outer loop
      vertex -3.73099 -4.14172 0.29
      vertex -3.73099 -4.95547 0
      vertex -3.73099 -4.95547 0.29
    endloop
  endfacet
  facet normal 0 1 -0
    outer loop
      vertex -3.73099 -4.95547 0
      vertex -3.91136 -4.95547 0.29
      vertex -3.73099 -4.95547 0.29
    endloop
  endfacet
  facet normal 0 1 0
    outer loop
      vertex -3.91136 -4.95547 0.29
      vertex -3.73099 -4.95547 0
      vertex -3.91136 -4.95547 0
    endloop
  endfacet
  facet normal 0.544207 0.838951 -0
    outer loop
      vertex -3.91136 -4.95547 0
      vertex -4.15074 -4.80019 0.29
      vertex -3.91136 -4.95547 0.29
    endloop
  endfacet
  facet normal 0.544207 0.838951 0
    outer loop
      vertex -4.15074 -4.80019 0.29
      vertex -3.91136 -4.95547 0
      vertex -4.15074 -4.80019 0
    endloop
  endfacet
  facet normal 1 -0 0
    outer loop
      vertex -4.15074 -4.80019 0.29
      vertex -4.15074 -4.65031 0
      vertex -4.15074 -4.65031 0.29
    endloop
  endfacet
  facet normal 1 0 0
    outer loop
      vertex -4.15074 -4.65031 0
      vertex -4.15074 -4.80019 0.29
      vertex -4.15074 -4.80019 0
    endloop
  endfacet
  facet normal -0.529573 -0.848264 0
    outer loop
      vertex -4.15074 -4.65031 0
      vertex -3.92154 -4.7934 0.29
      vertex -4.15074 -4.65031 0.29
    endloop
  endfacet
  facet normal -0.529573 -0.848264 -0
    outer loop
      vertex -3.92154 -4.7934 0.29
      vertex -4.15074 -4.65031 0
      vertex -3.92154 -4.7934 0
    endloop
  endfacet
  facet normal 1 -0 0
    outer loop
      vertex -3.92154 -4.7934 0.29
      vertex -3.92154 -4.14172 0
      vertex -3.92154 -4.14172 0.29
    endloop
  endfacet
  facet normal 1 0 0
    outer loop
      vertex -3.92154 -4.14172 0
      vertex -3.92154 -4.7934 0.29
      vertex -3.92154 -4.7934 0
    endloop
  endfacet
  facet normal 0 1 -0
    outer loop
      vertex -3.92154 -4.14172 0
      vertex -4.1582 -4.14172 0.29
      vertex -3.92154 -4.14172 0.29
    endloop
  endfacet
  facet normal 0 1 0
    outer loop
      vertex -4.1582 -4.14172 0.29
      vertex -3.92154 -4.14172 0
      vertex -4.1582 -4.14172 0
    endloop
  endfacet
  facet normal 1 -0 0
    outer loop
      vertex -4.1582 -4.14172 0.29
      vertex -4.1582 -4 0
      vertex -4.1582 -4 0.29
    endloop
  endfacet
  facet normal 1 0 0
    outer loop
      vertex -4.1582 -4 0
      vertex -4.1582 -4.14172 0.29
      vertex -4.1582 -4.14172 0
    endloop
  endfacet
  facet normal 0 -1 0
    outer loop
      vertex -4.1582 -4 0
      vertex -3.51195 -4 0.29
      vertex -4.1582 -4 0.29
    endloop
  endfacet
  facet normal 0 -1 -0
    outer loop
      vertex -3.51195 -4 0.29
      vertex -4.1582 -4 0
      vertex -3.51195 -4 0
    endloop
  endfacet
  facet normal -1 0 0
    outer loop
      vertex -3.51195 -4.14172 0
      vertex -3.51195 -4 0.29
      vertex -3.51195 -4 0
    endloop
  endfacet
  facet normal -1 -0 0
    outer loop
      vertex -3.51195 -4 0.29
      vertex -3.51195 -4.14172 0
      vertex -3.51195 -4.14172 0.29
    endloop
  endfacet
  facet normal 0 1 -0
    outer loop
      vertex -2.38078 -4.14172 0
      vertex -2.59982 -4.14172 0.29
      vertex -2.38078 -4.14172 0.29
    endloop
  endfacet
  facet normal 0 1 0
    outer loop
      vertex -2.59982 -4.14172 0.29
      vertex -2.38078 -4.14172 0
      vertex -2.59982 -4.14172 0
    endloop
  endfacet
  facet normal -1 0 0
    outer loop
      vertex -2.59982 -4.95547 0
      vertex -2.59982 -4.14172 0.29
      vertex -2.59982 -4.14172 0
    endloop
  endfacet
  facet normal -1 -0 0
    outer loop
      vertex -2.59982 -4.14172 0.29
      vertex -2.59982 -4.95547 0
      vertex -2.59982 -4.95547 0.29
    endloop
  endfacet
  facet normal 0 1 -0
    outer loop
      vertex -2.59982 -4.95547 0
      vertex -2.7802 -4.95547 0.29
      vertex -2.59982 -4.95547 0.29
    endloop
  endfacet
  facet normal 0 1 0
    outer loop
      vertex -2.7802 -4.95547 0.29
      vertex -2.59982 -4.95547 0
      vertex -2.7802 -4.95547 0
    endloop
  endfacet
  facet normal 0.544207 0.838951 -0
    outer loop
      vertex -2.7802 -4.95547 0
      vertex -3.01958 -4.80019 0.29
      vertex -2.7802 -4.95547 0.29
    endloop
  endfacet
  facet normal 0.544207 0.838951 0
    outer loop
      vertex -3.01958 -4.80019 0.29
      vertex -2.7802 -4.95547 0
      vertex -3.01958 -4.80019 0
    endloop
  endfacet
  facet normal 1 -0 0
    outer loop
      vertex -3.01958 -4.80019 0.29
      vertex -3.01958 -4.65031 0
      vertex -3.01958 -4.65031 0.29
    endloop
  endfacet
  facet normal 1 0 0
    outer loop
      vertex -3.01958 -4.65031 0
      vertex -3.01958 -4.80019 0.29
      vertex -3.01958 -4.80019 0
    endloop
  endfacet
  facet normal -0.529556 -0.848275 0
    outer loop
      vertex -3.01958 -4.65031 0
      vertex -2.79037 -4.7934 0.29
      vertex -3.01958 -4.65031 0.29
    endloop
  endfacet
  facet normal -0.529556 -0.848275 -0
    outer loop
      vertex -2.79037 -4.7934 0.29
      vertex -3.01958 -4.65031 0
      vertex -2.79037 -4.7934 0
    endloop
  endfacet
  facet normal 1 -0 0
    outer loop
      vertex -2.79037 -4.7934 0.29
      vertex -2.79037 -4.14172 0
      vertex -2.79037 -4.14172 0.29
    endloop
  endfacet
  facet normal 1 0 0
    outer loop
      vertex -2.79037 -4.14172 0
      vertex -2.79037 -4.7934 0.29
      vertex -2.79037 -4.7934 0
    endloop
  endfacet
  facet normal 0 1 -0
    outer loop
      vertex -2.79037 -4.14172 0
      vertex -3.02704 -4.14172 0.29
      vertex -2.79037 -4.14172 0.29
    endloop
  endfacet
  facet normal 0 1 0
    outer loop
      vertex -3.02704 -4.14172 0.29
      vertex -2.79037 -4.14172 0
      vertex -3.02704 -4.14172 0
    endloop
  endfacet
  facet normal 1 -0 0
    outer loop
      vertex -3.02704 -4.14172 0.29
      vertex -3.02704 -4 0
      vertex -3.02704 -4 0.29
    endloop
  endfacet
  facet normal 1 0 0
    outer loop
      vertex -3.02704 -4 0
      vertex -3.02704 -4.14172 0.29
      vertex -3.02704 -4.14172 0
    endloop
  endfacet
  facet normal 0 -1 0
    outer loop
      vertex -3.02704 -4 0
      vertex -2.38078 -4 0.29
      vertex -3.02704 -4 0.29
    endloop
  endfacet
  facet normal 0 -1 -0
    outer loop
      vertex -2.38078 -4 0.29
      vertex -3.02704 -4 0
      vertex -2.38078 -4 0
    endloop
  endfacet
  facet normal -1 0 0
    outer loop
      vertex -2.38078 -4.14172 0
      vertex -2.38078 -4 0.29
      vertex -2.38078 -4 0
    endloop
  endfacet
  facet normal -1 -0 0
    outer loop
      vertex -2.38078 -4 0.29
      vertex -2.38078 -4.14172 0
      vertex -2.38078 -4.14172 0.29
    endloop
  endfacet
  facet normal 0 1 -0
    outer loop
      vertex -1.24963 -4.14172 0
      vertex -1.46866 -4.14172 0.29
      vertex -1.24963 -4.14172 0.29
    endloop
  endfacet
  facet normal 0 1 0
    outer loop
      vertex -1.46866 -4.14172 0.29
      vertex -1.24963 -4.14172 0
      vertex -1.46866 -4.14172 0
    endloop
  endfacet
  facet normal -1 0 0
    outer loop
      vertex -1.46866 -4.95547 0
      vertex -1.46866 -4.14172 0.29
      vertex -1.46866 -4.14172 0
    endloop
  endfacet
  facet normal -1 -0 0
    outer loop
      vertex -1.46866 -4.14172 0.29
      vertex -1.46866 -4.95547 0
      vertex -1.46866 -4.95547 0.29
    endloop
  endfacet
  facet normal 0 1 -0
    outer loop
      vertex -1.46866 -4.95547 0
      vertex -1.64903 -4.95547 0.29
      vertex -1.46866 -4.95547 0.29
    endloop
  endfacet
  facet normal 0 1 0
    outer loop
      vertex -1.64903 -4.95547 0.29
      vertex -1.46866 -4.95547 0
      vertex -1.64903 -4.95547 0
    endloop
  endfacet
  facet normal 0.544207 0.838951 -0
    outer loop
      vertex -1.64903 -4.95547 0
      vertex -1.88841 -4.80019 0.29
      vertex -1.64903 -4.95547 0.29
    endloop
  endfacet
  facet normal 0.544207 0.838951 0
    outer loop
      vertex -1.88841 -4.80019 0.29
      vertex -1.64903 -4.95547 0
      vertex -1.88841 -4.80019 0
    endloop
  endfacet
  facet normal 1 -0 0
    outer loop
      vertex -1.88841 -4.80019 0.29
      vertex -1.88841 -4.65031 0
      vertex -1.88841 -4.65031 0.29
    endloop
  endfacet
  facet normal 1 0 0
    outer loop
      vertex -1.88841 -4.65031 0
      vertex -1.88841 -4.80019 0.29
      vertex -1.88841 -4.80019 0
    endloop
  endfacet
  facet normal -0.529573 -0.848264 0
    outer loop
      vertex -1.88841 -4.65031 0
      vertex -1.65921 -4.7934 0.29
      vertex -1.88841 -4.65031 0.29
    endloop
  endfacet
  facet normal -0.529573 -0.848264 -0
    outer loop
      vertex -1.65921 -4.7934 0.29
      vertex -1.88841 -4.65031 0
      vertex -1.65921 -4.7934 0
    endloop
  endfacet
  facet normal 1 -0 0
    outer loop
      vertex -1.65921 -4.7934 0.29
      vertex -1.65921 -4.14172 0
      vertex -1.65921 -4.14172 0.29
    endloop
  endfacet
  facet normal 1 0 0
    outer loop
      vertex -1.65921 -4.14172 0
      vertex -1.65921 -4.7934 0.29
      vertex -1.65921 -4.7934 0
    endloop
  endfacet
  facet normal 0 1 -0
    outer loop
      vertex -1.65921 -4.14172 0
      vertex -1.89587 -4.14172 0.29
      vertex -1.65921 -4.14172 0.29
    endloop
  endfacet
  facet normal 0 1 0
    outer loop
      vertex -1.89587 -4.14172 0.29
      vertex -1.65921 -4.14172 0
      vertex -1.89587 -4.14172 0
    endloop
  endfacet
  facet normal 1 -0 0
    outer loop
      vertex -1.89587 -4.14172 0.29
      vertex -1.89587 -4 0
      vertex -1.89587 -4 0.29
    endloop
  endfacet
  facet normal 1 0 0
    outer loop
      vertex -1.89587 -4 0
      vertex -1.89587 -4.14172 0.29
      vertex -1.89587 -4.14172 0
    endloop
  endfacet
  facet normal 0 -1 0
    outer loop
      vertex -1.89587 -4 0
      vertex -1.24963 -4 0.29
      vertex -1.89587 -4 0.29
    endloop
  endfacet
  facet normal 0 -1 -0
    outer loop
      vertex -1.24963 -4 0.29
      vertex -1.89587 -4 0
      vertex -1.24963 -4 0
    endloop
  endfacet
  facet normal -1 0 0
    outer loop
      vertex -1.24963 -4.14172 0
      vertex -1.24963 -4 0.29
      vertex -1.24963 -4 0
    endloop
  endfacet
  facet normal -1 -0 0
    outer loop
      vertex -1.24963 -4 0.29
      vertex -1.24963 -4.14172 0
      vertex -1.24963 -4.14172 0.29
    endloop
  endfacet
  facet normal 0 1 -0
    outer loop
      vertex -4.23373 -4.73372 0
      vertex -4.43309 -4.73372 0.29
      vertex -4.23373 -4.73372 0.29
    endloop
  endfacet
  facet normal 0 1 0
    outer loop
      vertex -4.43309 -4.73372 0.29
      vertex -4.23373 -4.73372 0
      vertex -4.43309 -4.73372 0
    endloop
  endfacet
  facet normal 0.950772 0.309891 0
    outer loop
      vertex -4.43309 -4.73372 0.29
      vertex -4.53957 -4.40703 0
      vertex -4.53957 -4.40703 0.29
    endloop
  endfacet
  facet normal 0.950772 0.309891 0
    outer loop
      vertex -4.53957 -4.40703 0
      vertex -4.43309 -4.73372 0.29
      vertex -4.43309 -4.73372 0
    endloop
  endfacet
  facet normal 0.952863 0.303401 0
    outer loop
      vertex -4.53957 -4.40703 0.29
      vertex -4.58907 -4.25157 0
      vertex -4.58907 -4.25157 0.29
    endloop
  endfacet
  facet normal 0.952863 0.303401 0
    outer loop
      vertex -4.58907 -4.25157 0
      vertex -4.53957 -4.40703 0.29
      vertex -4.53957 -4.40703 0
    endloop
  endfacet
  facet normal 0.959353 0.28221 0
    outer loop
      vertex -4.58907 -4.25157 0.29
      vertex -4.60652 -4.19225 0
      vertex -4.60652 -4.19225 0.29
    endloop
  endfacet
  facet normal 0.959353 0.28221 0
    outer loop
      vertex -4.60652 -4.19225 0
      vertex -4.58907 -4.25157 0.29
      vertex -4.58907 -4.25157 0
    endloop
  endfacet
  facet normal 0.965423 0.260687 0
    outer loop
      vertex -4.60652 -4.19225 0.29
      vertex -4.61687 -4.15392 0
      vertex -4.61687 -4.15392 0.29
    endloop
  endfacet
  facet normal 0.965423 0.260687 0
    outer loop
      vertex -4.61687 -4.15392 0
      vertex -4.60652 -4.19225 0.29
      vertex -4.60652 -4.19225 0
    endloop
  endfacet
  facet normal -0.962598 0.270935 0
    outer loop
      vertex -4.64789 -4.26413 0
      vertex -4.61687 -4.15392 0.29
      vertex -4.61687 -4.15392 0
    endloop
  endfacet
  facet normal -0.962598 0.270935 0
    outer loop
      vertex -4.61687 -4.15392 0.29
      vertex -4.64789 -4.26413 0
      vertex -4.64789 -4.26413 0.29
    endloop
  endfacet
  facet normal -0.960756 0.277394 0
    outer loop
      vertex -4.66502 -4.32346 0
      vertex -4.64789 -4.26413 0.29
      vertex -4.64789 -4.26413 0
    endloop
  endfacet
  facet normal -0.960756 0.277394 0
    outer loop
      vertex -4.64789 -4.26413 0.29
      vertex -4.66502 -4.32346 0
      vertex -4.66502 -4.32346 0.29
    endloop
  endfacet
  facet normal -0.954511 0.298177 0
    outer loop
      vertex -4.79318 -4.73372 0
      vertex -4.66502 -4.32346 0.29
      vertex -4.66502 -4.32346 0
    endloop
  endfacet
  facet normal -0.954511 0.298177 0
    outer loop
      vertex -4.66502 -4.32346 0.29
      vertex -4.79318 -4.73372 0
      vertex -4.79318 -4.73372 0.29
    endloop
  endfacet
  facet normal 0 1 -0
    outer loop
      vertex -4.79318 -4.73372 0
      vertex -4.99458 -4.73372 0.29
      vertex -4.79318 -4.73372 0.29
    endloop
  endfacet
  facet normal 0 1 0
    outer loop
      vertex -4.99458 -4.73372 0.29
      vertex -4.79318 -4.73372 0
      vertex -4.99458 -4.73372 0
    endloop
  endfacet
  facet normal 0.941584 -0.336777 0
    outer loop
      vertex -4.99458 -4.73372 0.29
      vertex -4.73215 -4 0
      vertex -4.73215 -4 0.29
    endloop
  endfacet
  facet normal 0.941584 -0.336777 0
    outer loop
      vertex -4.73215 -4 0
      vertex -4.99458 -4.73372 0.29
      vertex -4.99458 -4.73372 0
    endloop
  endfacet
  facet normal 0 -1 0
    outer loop
      vertex -4.73215 -4 0
      vertex -4.5043 -4 0.29
      vertex -4.73215 -4 0.29
    endloop
  endfacet
  facet normal 0 -1 -0
    outer loop
      vertex -4.5043 -4 0.29
      vertex -4.73215 -4 0
      vertex -4.5043 -4 0
    endloop
  endfacet
  facet normal -0.938238 -0.345989 0
    outer loop
      vertex -4.23373 -4.73372 0
      vertex -4.5043 -4 0.29
      vertex -4.5043 -4 0
    endloop
  endfacet
  facet normal -0.938238 -0.345989 0
    outer loop
      vertex -4.5043 -4 0.29
      vertex -4.23373 -4.73372 0
      vertex -4.23373 -4.73372 0.29
    endloop
  endfacet
  facet normal 0 1 -0
    outer loop
      vertex -3.20111 -4.20682 0
      vertex -3.39709 -4.20682 0.29
      vertex -3.20111 -4.20682 0.29
    endloop
  endfacet
  facet normal 0 1 0
    outer loop
      vertex -3.39709 -4.20682 0.29
      vertex -3.20111 -4.20682 0
      vertex -3.39709 -4.20682 0
    endloop
  endfacet
  facet normal 1 -0 0
    outer loop
      vertex -3.39709 -4.20682 0.29
      vertex -3.39709 -4 0
      vertex -3.39709 -4 0.29
    endloop
  endfacet
  facet normal 1 0 0
    outer loop
      vertex -3.39709 -4 0
      vertex -3.39709 -4.20682 0.29
      vertex -3.39709 -4.20682 0
    endloop
  endfacet
  facet normal 0 -1 0
    outer loop
      vertex -3.39709 -4 0
      vertex -3.20111 -4 0.29
      vertex -3.39709 -4 0.29
    endloop
  endfacet
  facet normal 0 -1 -0
    outer loop
      vertex -3.20111 -4 0.29
      vertex -3.39709 -4 0
      vertex -3.20111 -4 0
    endloop
  endfacet
  facet normal -1 0 0
    outer loop
      vertex -3.20111 -4.20682 0
      vertex -3.20111 -4 0.29
      vertex -3.20111 -4 0
    endloop
  endfacet
  facet normal -1 -0 0
    outer loop
      vertex -3.20111 -4 0.29
      vertex -3.20111 -4.20682 0
      vertex -3.20111 -4.20682 0.29
    endloop
  endfacet
  facet normal 0 1 -0
    outer loop
      vertex -2.06995 -4.20682 0
      vertex -2.26593 -4.20682 0.29
      vertex -2.06995 -4.20682 0.29
    endloop
  endfacet
  facet normal 0 1 0
    outer loop
      vertex -2.26593 -4.20682 0.29
      vertex -2.06995 -4.20682 0
      vertex -2.26593 -4.20682 0
    endloop
  endfacet
  facet normal 1 -0 0
    outer loop
      vertex -2.26593 -4.20682 0.29
      vertex -2.26593 -4 0
      vertex -2.26593 -4 0.29
    endloop
  endfacet
  facet normal 1 0 0
    outer loop
      vertex -2.26593 -4 0
      vertex -2.26593 -4.20682 0.29
      vertex -2.26593 -4.20682 0
    endloop
  endfacet
  facet normal 0 -1 0
    outer loop
      vertex -2.26593 -4 0
      vertex -2.06995 -4 0.29
      vertex -2.26593 -4 0.29
    endloop
  endfacet
  facet normal 0 -1 -0
    outer loop
      vertex -2.06995 -4 0.29
      vertex -2.26593 -4 0
      vertex -2.06995 -4 0
    endloop
  endfacet
  facet normal -1 0 0
    outer loop
      vertex -2.06995 -4.20682 0
      vertex -2.06995 -4 0.29
      vertex -2.06995 -4 0
    endloop
  endfacet
  facet normal -1 -0 0
    outer loop
      vertex -2.06995 -4 0.29
      vertex -2.06995 -4.20682 0
      vertex -2.06995 -4.20682 0.29
    endloop
  endfacet
endsolid OpenSCAD_Model
